<mxfile modified="2023-03-31T15:57:25.766Z" host="app.diagrams.net" agent="5.0 (Windows NT 10.0; Win64; x64) AppleWebKit/537.36 (KHTML, like Gecko) Chrome/111.0.0.0 Safari/537.36" etag="MUv2vV26nZ0FUkVYIZbj" version="20.6.0" type="github">
  <diagram id="WI9T0HZ2pTsCkuznbFz-" name="Page-1">
    <mxGraphModel dx="1038" dy="547" grid="1" gridSize="10" guides="1" tooltips="1" connect="1" arrows="1" fold="1" page="1" pageScale="1" pageWidth="827" pageHeight="1169" math="0" shadow="0">
      <root>
        <mxCell id="0" />
        <mxCell id="1" parent="0" />
        <mxCell id="AcxdMaKK0mU5kZiv2lnr-41" style="edgeStyle=elbowEdgeStyle;rounded=0;orthogonalLoop=1;jettySize=auto;elbow=vertical;html=1;strokeColor=#808080;" parent="1" source="AcxdMaKK0mU5kZiv2lnr-31" target="AcxdMaKK0mU5kZiv2lnr-32" edge="1">
          <mxGeometry relative="1" as="geometry" />
        </mxCell>
        <mxCell id="AcxdMaKK0mU5kZiv2lnr-47" style="rounded=0;orthogonalLoop=1;jettySize=auto;elbow=vertical;html=1;strokeColor=#808080;" parent="1" source="AcxdMaKK0mU5kZiv2lnr-32" target="AcxdMaKK0mU5kZiv2lnr-33" edge="1">
          <mxGeometry relative="1" as="geometry" />
        </mxCell>
        <mxCell id="AcxdMaKK0mU5kZiv2lnr-48" style="rounded=0;orthogonalLoop=1;jettySize=auto;elbow=vertical;html=1;strokeColor=#808080;" parent="1" source="AcxdMaKK0mU5kZiv2lnr-32" target="AcxdMaKK0mU5kZiv2lnr-34" edge="1">
          <mxGeometry relative="1" as="geometry" />
        </mxCell>
        <mxCell id="AcxdMaKK0mU5kZiv2lnr-46" style="edgeStyle=elbowEdgeStyle;rounded=0;orthogonalLoop=1;jettySize=auto;elbow=vertical;html=1;strokeColor=#808080;entryX=0.018;entryY=0.503;entryDx=0;entryDy=0;entryPerimeter=0;" parent="1" source="AcxdMaKK0mU5kZiv2lnr-33" target="AcxdMaKK0mU5kZiv2lnr-36" edge="1">
          <mxGeometry relative="1" as="geometry" />
        </mxCell>
        <mxCell id="AcxdMaKK0mU5kZiv2lnr-49" style="edgeStyle=elbowEdgeStyle;rounded=0;orthogonalLoop=1;jettySize=auto;elbow=vertical;html=1;strokeColor=#808080;" parent="1" source="AcxdMaKK0mU5kZiv2lnr-34" target="AcxdMaKK0mU5kZiv2lnr-35" edge="1">
          <mxGeometry relative="1" as="geometry" />
        </mxCell>
        <mxCell id="AcxdMaKK0mU5kZiv2lnr-50" style="edgeStyle=elbowEdgeStyle;rounded=0;orthogonalLoop=1;jettySize=auto;html=1;entryX=0.501;entryY=0.02;entryDx=0;entryDy=0;strokeColor=#808080;entryPerimeter=0;" parent="1" source="AcxdMaKK0mU5kZiv2lnr-35" target="AcxdMaKK0mU5kZiv2lnr-36" edge="1">
          <mxGeometry relative="1" as="geometry" />
        </mxCell>
        <mxCell id="AcxdMaKK0mU5kZiv2lnr-45" style="edgeStyle=elbowEdgeStyle;rounded=0;orthogonalLoop=1;jettySize=auto;elbow=vertical;html=1;strokeColor=#808080;" parent="1" source="AcxdMaKK0mU5kZiv2lnr-36" target="AcxdMaKK0mU5kZiv2lnr-40" edge="1">
          <mxGeometry relative="1" as="geometry" />
        </mxCell>
        <mxCell id="AcxdMaKK0mU5kZiv2lnr-42" style="edgeStyle=elbowEdgeStyle;rounded=0;orthogonalLoop=1;jettySize=auto;elbow=vertical;html=1;strokeColor=#808080;" parent="1" source="AcxdMaKK0mU5kZiv2lnr-37" target="AcxdMaKK0mU5kZiv2lnr-31" edge="1">
          <mxGeometry relative="1" as="geometry" />
        </mxCell>
        <mxCell id="AcxdMaKK0mU5kZiv2lnr-43" style="edgeStyle=elbowEdgeStyle;rounded=0;orthogonalLoop=1;jettySize=auto;elbow=vertical;html=1;strokeColor=#808080;" parent="1" source="AcxdMaKK0mU5kZiv2lnr-38" target="AcxdMaKK0mU5kZiv2lnr-37" edge="1">
          <mxGeometry relative="1" as="geometry" />
        </mxCell>
        <mxCell id="AcxdMaKK0mU5kZiv2lnr-44" style="edgeStyle=elbowEdgeStyle;rounded=0;orthogonalLoop=1;jettySize=auto;elbow=vertical;html=1;entryX=1;entryY=0.5;entryDx=0;entryDy=0;strokeColor=#808080;" parent="1" source="AcxdMaKK0mU5kZiv2lnr-40" target="AcxdMaKK0mU5kZiv2lnr-38" edge="1">
          <mxGeometry relative="1" as="geometry" />
        </mxCell>
        <mxCell id="AcxdMaKK0mU5kZiv2lnr-31" value="GitHub" style="shape=image;verticalLabelPosition=bottom;labelBackgroundColor=#ffffff;verticalAlign=top;aspect=fixed;imageAspect=0;image=data:image/svg+xml,PHN2ZyB4bWxuczpjYz0iaHR0cDovL2NyZWF0aXZlY29tbW9ucy5vcmcvbnMjIiB4bWxuczpkYz0iaHR0cDovL3B1cmwub3JnL2RjL2VsZW1lbnRzLzEuMS8iIHhtbG5zOmlua3NjYXBlPSJodHRwOi8vd3d3Lmlua3NjYXBlLm9yZy9uYW1lc3BhY2VzL2lua3NjYXBlIiB4bWxuczpyZGY9Imh0dHA6Ly93d3cudzMub3JnLzE5OTkvMDIvMjItcmRmLXN5bnRheC1ucyMiIHhtbG5zOnNvZGlwb2RpPSJodHRwOi8vc29kaXBvZGkuc291cmNlZm9yZ2UubmV0L0RURC9zb2RpcG9kaS0wLmR0ZCIgeG1sbnM6c3ZnPSJodHRwOi8vd3d3LnczLm9yZy8yMDAwL3N2ZyIgeG1sbnM9Imh0dHA6Ly93d3cudzMub3JnLzIwMDAvc3ZnIiB4bWxuczp4bGluaz0iaHR0cDovL3d3dy53My5vcmcvMTk5OS94bGluayIgdmVyc2lvbj0iMS4xIiBpZD0ic3ZnMTc1NjcxIiBpbmtzY2FwZTp2ZXJzaW9uPSIwLjkyLjMgKDI0MDU1NDYsIDIwMTgtMDMtMTEpIiBzb2RpcG9kaTpkb2NuYW1lPSJnaXRodWIuc3ZnIiB4PSIwcHgiIHk9IjBweCIgdmlld0JveD0iMCAwIDQ1LjI3IDQ1LjI5IiBzdHlsZT0iZW5hYmxlLWJhY2tncm91bmQ6bmV3IDAgMCA0NS4yNyA0NS4yOTsiIHhtbDpzcGFjZT0icHJlc2VydmUiPiYjeGE7PHNvZGlwb2RpOm5hbWVkdmlldyBib3JkZXJjb2xvcj0iIzY2NjY2NiIgYm9yZGVyb3BhY2l0eT0iMSIgZml0LW1hcmdpbi1ib3R0b209IjAiIGZpdC1tYXJnaW4tbGVmdD0iMCIgZml0LW1hcmdpbi1yaWdodD0iMCIgZml0LW1hcmdpbi10b3A9IjAiIGdyaWR0b2xlcmFuY2U9IjEwIiBndWlkZXRvbGVyYW5jZT0iMTAiIGlkPSJuYW1lZHZpZXcxNzU2NzMiIGlua3NjYXBlOmN1cnJlbnQtbGF5ZXI9InN2ZzE3NTY3MSIgaW5rc2NhcGU6Y3g9IjMwLjE3ODAyNSIgaW5rc2NhcGU6Y3k9IjMwLjE5NDMxOSIgaW5rc2NhcGU6cGFnZW9wYWNpdHk9IjAiIGlua3NjYXBlOnBhZ2VzaGFkb3c9IjIiIGlua3NjYXBlOndpbmRvdy1oZWlnaHQ9IjEwMTciIGlua3NjYXBlOndpbmRvdy1tYXhpbWl6ZWQ9IjEiIGlua3NjYXBlOndpbmRvdy13aWR0aD0iMTkyMCIgaW5rc2NhcGU6d2luZG93LXg9Ii04IiBpbmtzY2FwZTp3aW5kb3cteT0iLTgiIGlua3NjYXBlOnpvb209IjEwLjA5NTE1OCIgb2JqZWN0dG9sZXJhbmNlPSIxMCIgcGFnZWNvbG9yPSIjZmZmZmZmIiBzaG93Z3JpZD0iZmFsc2UiPiYjeGE7CTwvc29kaXBvZGk6bmFtZWR2aWV3PiYjeGE7PGcgaWQ9ImcxNzU2NjkiIHRyYW5zZm9ybT0idHJhbnNsYXRlKC05LjU2MjU0MTcsLTkuNTYxMzEpIj4mI3hhOwk8dGl0bGUgaWQ9InRpdGxlMTc1NjU5Ij5QYWdlLTE8L3RpdGxlPiYjeGE7CTxnIGlkPSJncm91cDIyNTAtMSIgdHJhbnNmb3JtPSJ0cmFuc2xhdGUoOS41NjMwOCwtOS4zNzg2OSkiPiYjeGE7CQk8dGl0bGUgaWQ9InRpdGxlMTc1NjYxIj5HaXRIdWI8L3RpdGxlPiYjeGE7CQk8ZyBpZD0ic2hhcGUyMjUxLTIiPiYjeGE7CQkJPHRpdGxlIGlkPSJ0aXRsZTE3NTY2MyI+U2hlZXQuMjI1MTwvdGl0bGU+JiN4YTsJCQk8cGF0aCBpZD0icGF0aDE3NTY2NSIgaW5rc2NhcGU6Y29ubmVjdG9yLWN1cnZhdHVyZT0iMCIgZD0iTTIyLjYzLDE4Ljk0QzEwLjE0LDE4Ljk0LDAsMjkuMzMsMCw0Mi4xNSAgICAgYy0wLjA3LDkuODksNi4xNSwxOC43MywxNS40OCwyMi4wMWMxLjEzLDAuMjIsMS41NC0wLjUsMS41NC0xLjExYzAtMC42MiwwLTIuMDEsMC0zLjk1Yy02LjI5LDEuNDEtNy42Mi0zLjExLTcuNjItMy4xMSAgICAgYy0xLjAzLTIuNjgtMi41MS0zLjQtMi41MS0zLjRjLTIuMDYtMS40MSwwLjE1LTEuNDEsMC4xNS0xLjQxYzIuMjcsMC4xNiwzLjQ3LDIuMzksMy40NywyLjM5YzIuMDIsMy41NCw1LjMsMi41Miw2LjU4LDEuOTMgICAgIGMwLjEtMS4xNywwLjYtMi4yNiwxLjQyLTMuMUMxMy40OCw1MS44MSw4LjIsNDkuODIsOC4yLDQwLjkyYy0wLjA0LTIuMjksMC43OS00LjUxLDIuMzItNi4yMmMtMC42OS0yLTAuNjEtNC4xOSwwLjIyLTYuMTQgICAgIGMwLDAsMS45MS0wLjYyLDYuMjMsMi40YzMuNy0xLjA0LDcuNjItMS4wNCwxMS4zMiwwYzQuMzItMyw2LjIyLTIuMzcsNi4yMi0yLjM3YzAuODMsMS45NSwwLjkxLDQuMTQsMC4yMiw2LjE0ICAgICBjMS41MywxLjcsMi4zNywzLjkzLDIuMzMsNi4yMmMwLDguOTEtNS4yOSwxMC44OC0xMC4zMywxMS40NWMwLjgxLDAuNzEsMS41MywyLjEyLDEuNTMsNC4zYzAsMy4xMSwwLDUuNjEsMCw2LjM3ICAgICBjMCwwLjYyLDAuNDEsMS4zNCwxLjU2LDEuMTJjOS4zMy0zLjMsMTUuNTMtMTIuMTUsMTUuNDUtMjIuMDRDNDUuMjcsMjkuMzMsMzUuMTMsMTguOTQsMjIuNjMsMTguOTR6Ii8+JiN4YTsJCTwvZz4mI3hhOwk8L2c+JiN4YTs8L2c+JiN4YTs8L3N2Zz4=;spacingTop=4;" parent="1" vertex="1">
          <mxGeometry x="114.5" y="391.5" width="60" height="60" as="geometry" />
        </mxCell>
        <mxCell id="AcxdMaKK0mU5kZiv2lnr-32" value="Github Actions" style="shape=image;verticalLabelPosition=bottom;labelBackgroundColor=none;verticalAlign=top;aspect=fixed;imageAspect=0;image=data:image/png,iVBORw0KGgoAAAANSUhEUgAAARgAAAEYCAYAAACHjumMAAAydklEQVR4nOydDYgdV3bnT82IpRIEWwKz8wxGLtUYRmaGdos4WGJadDWuME9kBrUYZ2WPO0hiJm2JJFgGx6omztZ9xLNd9jpIZj1Y7jhYYtuxRBzUghn0ZrdCV6c1SCYe1O51kMKa55IwzAsYpnZXJJVFUMvtvs9qtfrj3Vv31sd75wdNHM2rW7f7X+/Uueeee84W6AFMPzUAYDf7+QYA1Og/s5+1SADgKvvvGwDwzwDQjFztao7TRpCeRyt6AjwYjrcTAB7TLXtQt2z634+wH13ibT4HgE8BIEpa4adJK/wEAD6Og0Yk8R4I0heU3sBQo2I45AQA2Bt4JHmwAACnIlc7W+AcEKRSlM7A6NbwVt2yn9Qt26Y/APAtACjTUi6my6qkFQZJK/xZ0go/Slpzd4qeFIKUkVIZGNNPDwPAJIuhVAXq2bwQuVpY9EQQpGwUamB0a3iLbtlDhkMOAcDTkmMpeXM1Dsg5AJiLg8ZC0ZNBkDJQmIFhOz/vA0C9qDko5EzkakeKngSCFM1Xirip4Xi7AeCzHjUulMOmn84ajldkUBpBCic3D4Yth75vOKTeA8uhbvkCAN5pT9k/SVpznxc9GQTJm9wMjOmn7zPD0o+0AWBf5GoYm0H6CuVLpNr47PdNP/2sj40LsF2xa2zZ9O2iJ4MgeaHUgzH99CQAHFd5jw1YeRxgNTsL3Aqn83omcrWZgu6PILmhxMAYjmcaDnlLcRA3BoBP6E8ckPaKM0VRt2n9huMZzNDQn68bDnmEGZ9B1VnDSSt8M2mFfxIHjUTlfRCkSKQbGJYs967scVewAACNPDwA00+fZx6YKmMTxQHZEweNtqLxEaRQpBoYw/G+YzikKXPMFVDDMhG5mqrx18X000MAQBQZmtORqx1TMC6CFI4UA7NiC/qUxNgGXTo0k1b406QV/m0cNGJJ4wpjON6w4ZBRVhbicYlnpGbigDQwAxjpNaQYGLaUOCVjLAZdOhwo8xfO9NM6y0Q2ZI0ZB2RXmX9nBOHlq1kupp7LQyeiPwaAVwDg32WcC/VYgjggL7anRo4lrblSxyXioPEpALxBjeGWbeZ2GZ4bOz3+i7L/7gjSLZk8GMPxDhrO0gG/rNC39kjkaoUvg0Qx/XQSAFwZY6Eng/QKwh4MC+ieBoCtGe7/OQD85/aU/cdf/M2RyhoXWPZo/g4A5nTLTthWt7BHxzyZv01ac7flzhJB8kXIg5G0FR2zLdobGccpHZJ20+jf51HcwkaqDPdRAXZCOKtxoV+aHb1oXGDZm/k5ABxgcSVRDMMhByVOC0FyR8DALGXoZmGmPWXbVY63dEPkajNJK6yzDGNRXjYcz5Y4LQTJFa4lUsazRX17Bsf002vs+IEoI1iSE6kiXXswtfHZ72cxLkkrHOtH40JpT9nfo55bhiEuGY73mMQpIUgudO3BsJILIqny1HPZg7VQMgfHZyJXOyB5SgiilE09GN0a3mL66QVR48I8l743LrAclzmTtELRXJnvmn76nOQpIYhSujAwNl0ajQqO/0x7auRvBa/tSdpTI68CwBmBS7cAwGnW3RJBKsGmSyTTT6lLf1hgbOkuPTv/89yKei0xywKeiwNypkrtXTMsOd3I1V5VMCUEkc6GHgyr/i9S6rLdnrKlpM0bjvckXaKZfvorALjEvKnOF9NgLWU9wyH/y/TT2dr47CEZ91VN0gp/JJgnc5QVykKQ0rOuB8P6Fn0mcFqYehU7ZOS5mH5KqPEQuHSBncYutUeTIeiLfZeQSrCmB6Nbw1sESxF8HgdkjwzjUhufPSloXCiDhkPmTT89UeaYReRqZwBgWuDSw1g8HKkC6xgYe0iwnu6bMtL/TT89qVt21mLhDwGAbzjkepl3X+KA/JnIdYZDfiR/NggilzUNDOsVzctCe8p+O+uEDMf7joJOBG+afnrJcLxhyeNmhi3jRgXiMXWMxSBlZ80YjOmn/8rZeZF+OR6UFHe5kGFbvBsacUD8slXzF4zHYCwGKTX3eTDsQedt6xpKPLyo+nCfZzhkUvE9uGHxGN6g9CgLxiNIKbnHwOjW8FYA4P7yxcFS4anMmH76tMwatxtw3PTT66afero1/FAO9+uKpBW+w3kJ/VtlPd2OIMpYZWDsJwVqy0Zx0LgoaT55BmN3AgCpjYfzpp8qbbLWLUkr/InAZU+zGj0IUjpWGxje5UkSB0Rmtu5uiWN1C/1yflYbn32r6C8qa81yVODSJxVMB0Eyc0+QV6BuidTjAKafprLGysDTkaudL3ICAscIzkWu9ozCKSGIEF96MCwh7Vs8Fyet8KdKZtUdYdIKxzJWjFuLadNP3zcc75BuDfMGu6WQtMIPOC8ZUjQVBMnECgNDTvB2KkxaYaEnpdtTI+9FrvYoAIywIwoy2LIc1yBnauPhBUljcpG0wp9xXvKQ6acqt/YRRIiVMRje+MtCGdq5wvIWbyh44nsz6nTZaDierHa43SJSP6d0SYQIsmRg2PKIN8A5oWZKYkSudjEOyINJKzyVsZr/agYNh/yD6acndGv4AYnjrgsz3Lw1Yw4XtaRDkPXoeDC89V4XIlfL2vdHOnHQaLenRl4AgEclx2aWzjXlvKXd4Py8oVt2aQ92Iv3JkoHRLZu34j3vw58rkatF7Sl7LwAQALgqcWj6Bb7OzjUpPc1MfwcA+ITzsm8qmg6CCNExMDxvvrgK3QGS1twXkas1IlfbQ70PiUPrywcNyWXTT4nheCqXJR9xfv4RRfNAECE6SySeB5P3rVo4katNxAEZAQDZ2+qe4ZBZw/EOsho6UokDwhXsNRzClWaAIKrpCwMDy/GZMHK17wHAEclB4N2GQ87VxsP/JnHMDh9zfr4056oQhPIVdhq3azc/Dkilm7GzU8sqtrSfZrWDZR7W5P1b572djiAb8hWB8z+Vb1gfudr5OCA74oAcFyiRsBGjAHC9Nj4rJQCctELeuaGBQUqFiIH5Z0VzyZU4aERx0HgjDsgeAJDZ97mmW/abMgZKWnMJ59x000+z9MBGEKlQA/MNzmtKXamflzhotCNXG5F8rmnQ9NO3JAV+eeeEXgxSGr7C+0CWvRWIKCvONZ2SNORR3bIflzDOP3F+voiSFwiyJl/hPCJQqjq2KmhP2X8SB6QOAKcB4HaWsXTL/l0JU8K+3khl4TUwMrNiS0nSmrsTB42fR652LA7I72Q5pc3av+TNwwXcE0HWZNPm9/1MHDSoQd2VIe4k49wSrweD5TOR0oAGZhPYuabfZueaPue8PHPAVWK3BgTJHTQwXdA518SWTDxg+QSkr5F+fqYX0a3hrbplf99wyIucl95RNCUEqQRoYDaBpf5fEGwIx7ukWuv+GFNBKssWtvXcrSvfNwWNDMczdMv+QwB4MUMzOBmJe7wGpud3+pDqsIU9kN2+nfsiS9T00+MA4GXtMhkHRMYRBN45/JuEeyKIFLiDvPTNrmYq5cD0U2pYTkpqYSsjSQ7PFiGV5St41mWZ2vjsftNPr7DtaBk0k1Y4J2Ec3sQ5mQc3ESQTWwROR9d6oWRDB+qRGQ4RDeKuRztytX2SxuL1YPBoAVIaqIFpsnhDt3y9F96SrA/1d9jWs8xatknSCkX6S9+Hbg1v5TQwtzExDykTWyJXu2r63beENhzySByUuqnApph+ehAAzikYmnoPR9pTI1K8CN2yeQ3fFzLuiyCy6AR5efI1KrtVbTjeE6af0uXQtOSh20krfDEOyJ7I1WQuUXhr9fTM0hXpDTqJdp9yFIyu5K6G6aeEcynYLU2J8ZZ7MBzC+7fuyVo9SHXpGBieB7NymaWmn54EgOMKhg7jgDyjYNwOXH/rqhdkR3qPpSVS0go/5bnI9NPnlc1IEro1/JDpp57pp9cVGJerSSscjVxthPWRVgVvdTrcQUJKxZIHk7TCT3SLa5eWfmHfUDarjLDC1xcUeFvUQ9gnOc6yJux34J0/bx8lBFFKJ8j7S87rTNNPDymYTyYMx9tp+um7AHBNsnH5AgBIe8r+7TyMC2OS8/NRr9ZLRqrLkgcTB43PDWepTSlPUJEAwFl1U+PD9NPnWB1d2URxQEby/PKyHJ0652Wl9SiR/mXlWSTeavqm4XjDkufDhW4NG4bjPWf66SUAkNKLaAVR0gr/KA7Io3l7BgLFwpM4ICryehAkE9rK/8f0019zHvI7FbnaC7ImY/pp9xl/ywHNREGbDjrmMdZithCYweTxYK5GrrZH4ZQQRIjVBaducH5hi+zBoyof53DkaucVjd0tuHuE9AT3lGtIWmHAef3jpp/yxgo2orBzNEkrPB0HZEfRxoUFqblKRUiqO4Mg0lltYH7GeT31gN43HE9WcesivigRAOxoT40cK3oXxnA86pUdFrj05wqmgyCZWW1gPhJwtw3dsp+VNJ+3JY3TDVdXbD2XYntXt2yRrX9fcbIfggijrf4H009tAJjlHGchcrVdMiZk+ulnORxH8CNXm1B8Dy5YcfFfcbY6iSJX26FwWgiSiftKZkauFgoUjh40/ZQ3MWxNklaocrt1hp14LpVxMRyvxjKPeYzLHQA4onBaCJKZr67z71t1y+YN3g4BwFzSmsu03NiyzfxH3bJ5+w9tBl1CPBO5WiNpzWVuJSKb2ng4L7Bz9Pf091E0JQSRwnpFv4VqyRoOOZhtOktZxW0Fb+bDkavNSB5TCobj2YJb7rhzhJSeNQ1MHDQWAEAk0WzMcLzvZJ1U5GpnklboZxzmRhyQw3FAHoxc7WLWOanAcDzdcIhIjZokDsh7CqaEIFK5L8i7EtNPZwWLYR+Q4TGYfjoKAO8L9HieiQPyTBw0kqxzUAnLeRHZlm5Eriar+wGCKGO9GEyHOd2yxwDgNznHHdUt+/LtX569mWFu1JO6QY2Fbtn/jxmZBzZY1n0BAP89Dsjx9tTIj5PWXKn7QtfGZ3+4ZZv5nwQu/ShyNVlpAQiilA09GFh+y04CgCsw9o3I1R4Vm9baGI5nGg6hb/zHWLYr9VA+BICFOCDNsnssHVi/6esCnhksL/sapTnFjiAbsamB0a3hh2rj4T8INlxbaE/Z3yvjzk1R1MZnv61b9geCf8+wPWXvS1pzlTCkCLKpgYG71dWuCd5jJnK1A4LX9hwZEgnbkas9qGBKCKKMrnpTsypuotuio6afigQyew4W1BXNUi7lNjuCbMRmQd6VfKpb9g/WKPHQDaO6ZSe3f3n2FwLXVh66LHrg9878fYb2tFF7yj5y59c3/4/kqSGIUrpaInVg28YXMtzvTORqfZXezgK6VwRjLsCykHdgS1ikinS1ROoQudpM0gqzlKY8bPrpZ7Xx2SczjFEZauOzP2S7RaLG5dM4ILvQuCBVhcvAwPJhxD/J2EHQ1C37p70clzEcTzf99F3dst8R2YruEAfkxaJr1CBIFnhiMEuwBLbzumVvBYDHBe+7BQBGDYc8AgDXktZcz7yhDcezDYf8Jf39MgxzGwBeak+NYL4LUmm4YjCrYY3ks3yROoyW9bxQtxiOVzMccklSreDS1atBEBG4l0griQMiq1zAuSovmUw/NQyHvC/JuMRxQLDHEdITcC+RVpK05toAcFG3bJudExKls2Q6rFu2vmWb+Y9VyFY1HG/QcMiJLdvMcwDwiIQhL8cBGWYlKxCk8mRaInVgXzTRTN/1OBq5Wp41ernIcBJ6PWLW5A2NC9IzSDEwcNfI0GXCTlljsu6KH7BuBwtFFrc2HM/ULft3dcv+Lqs+x9VaZANuA8CbdFmExgXpNaQZGLgb6Lwu8cu3mjOsFkpuW7fsHNakQK/objkeuRrGXJCeRKqBgbtG5iAAvJwxLrMRnwDAR3Gw1LD/YwBoJ60wyhK30a3hrbplPwIA3zAcMsjODO1W2OHgU5bnUundMwTZCOkGpgPLB+Ftf5KVkLW//acV/Z0WVmbCstR9k3lZ1JA8zP6vqla0axHHAdmFSXRIr6PMwMDdHkuXsmSz9iDUqJQi/Z/pY68o4LV7Ha2osW6z4l4Ra7Z/o4Ap9x1V10ipgYFlT+YxwyEEAL4reBK7V6Diz7Sn7B/nXYCL9V36tuGQx5mntlPC0i9mS9VP4oBcpQ82K3GKCNCrGik3MB1MP30OAE7ndb+SEUauNpL3Tdly8KSkbOtuoA80waB19/S6RrkZGFi20jsNh+wHgKM5tIctAx/FAXkzaYXn80ocNBxvULfsZ3XLfqrAvzF9iD+IA/JB0grnqpA0mSf9pFGuBqaD4XiG4ZCTkhPVygQV69W8W4soSP6TAXXN95Uh5lQG+k2jQgxMB8Px6JrzRyzHRLRmSlm4AwCX6XIoDsh7cdD4NI+bUmOtW/bzumUfV5h/lBVqcK8mrfD19tTIz4qeTN70s0aFGpgOKzya0RILsBERAByJXC3Xdq6mn9IH1qvY36wSTfFk0e8alcLAdDD9lIrwFgA8XfRcOCiktILpp88DwKm87yuJviidihqVzMB0MBzPBIAnDYc4ADAEAA8VPSdGwvINFuKAUG/l53mfj9Kt4a/XxsNXAOCpim/7X40DcjwOGh8WPRHZoEZ3KaWBWQ0rNj7MgmNFuJp0CfRGHJBzRR5IZB7etR7agaMGew9ri9MToEb3UgkD00G3hnXdsncCwDeZdyMzGn+b9be+QQ1KHJA281Y+LkNKf218dr9u2ad7IBi+GvoAN9tT9jFWX6iyoEb3UykDsxKWQs171ulqJ1oOAP/G/i1cfV6pbLAT3VdyOHIRrVHQvSa5BMd6VLoDKGq0Nn1lYOKA1OOg8XN1s5KLbg1vrY2Hf84SE2U9uJ04UsTSx5dOo2+WQs5S2elD/DXdsgfpD4uPbZU0L2BHKSrlyaBGG9NvBsaNg8ar6mYlF9NPTwCAL2k4+tCeiwPSkLXkY+kFxwHgeYmxsUp5MqjRxvSVgQGA05GrHVM0JamwYGGWpm0rocu/ZyJXa0oY6z7YEZC3MrTGXUllAr+o0eYaZeoqUEGcoifQDbo1nLXdbIerSSs8HAfkQVUPLix5ho0bkauNxAHZkbRCnz2AotBlxhXD8Z6QOEXpoEbdadRvHgxlJO+MW14knFdps7MlhXgB7M1+idUuEeVq5Gp7JE5LKqjREptq1G8eDOWkbg2XtgCW6aeHAGBM8PI7AHCmPWUXusSIXC1uT9nfAwDCtv9F2E2/xIbjlU4r1OhLNtWoHw3MoG7Z3yl6EmtB18mssLlo9ufLkasdSVpzheftJK25LyJXa8QBEf0iUg6zThWlATW6jw016kcDA4ZDynZcfgnDIX8qeOkXAHC8PWX/heQpZSYOGhfjgFA3ekZwiNHa+Ox+ydMSBjVak3U16scYTIddZdqpYJXNPhO5Ng7I4TholL5RfoZe5oVUBFwNarQha2rUlx4M42TRE1jFu4LXUSN5XvJclBAHRDQHaTcLShYNarQ+a2rUzwbGptZat4ZlZjkKYfqpJ5CfcAcAfOraVqW2Shw0rsYBGRUIKurUWy0yOI8abcqaGvWzgYHltWP4wyInwEpTiJTW/GnkahNVeXA7sEZzrwtcOqhb9rCCKW0KatQ192nU7waG4hqOlyUXIBO6ZYsEMOM4IC8rmE4utKfsn7ADp1wYDnlKzYw2BjXqntUaoYEBqBkOuWI4Xp6dHb9Et2yRgNqROGj8o4Lp5ELSmvsCAPYJZJMWZWBQo+65R6N+3kVazQ1WhzS3nSV2PuQa5yncZuRq+xROq2tW1Od5mP3T/05a4UdJa66r9XttfHZSt2yX87bH8+y7hBpl06jK5fxk03mQduVlZAyHnOA94h8HpBTN69iOwewaPb0jADjQTQpA0grfFnh4CQDkaGBQoywa4RJpFYZDRLciRRBxvecUzIMLVnfk2hoPLrBSkbPdLDlZSQLec2EGy6bNC9Qog0ZoYO5n0PTTX5l+6unW8AOqbsJOovLmdhzPu8j4auiDazjkbzapOWsYDnmrm3NEcUCOsVIFPORy0ho1WiaLRmhg1oZaf1IbD+cVJnjxBpXbRfd8Nv100HDIdVYlbTN2Gw7ZtP0Mq9LG9XsZDslr1w81yqgRGpiNoW7er2rjs2/J3mUyHMI7XiDz/rzUxme/z+qf8Bhcr5sPxQE5xZnY9S2OzwqDGt1FVCM0MJuj65Z91HDINdNPL0j0aLjiCHFALku6Lzf0rahb9rRAzdmuWnewJQXP75eLgUGN7iKqERoYPkYB4Nemn16vjc/+V8PxDmYIOPJ+SQppULbirSiSpt918e6kFfLs3Bmmn+YR6EWNViCiEW5Ti7FTt2z680ew7EoDO+r+MTvY1k1AjCuAnGd+TgfWikPkrdjhXLcfpA+vbnEd9amzHlYqQY1WIKJRPxmYBgDsFwjcdcuo4JZmN+T+4LJtztmMrTh4AoP/zDn2SdNPy3QiHjW6H6OfDAy0p+yna+PhOYVGRhVd5yEYjrdbt+z9rCeOzrypG3FAprtNXV+xzSkcb0pa4en21AhP1TbV3ohqUKP7eaKfjgo0IlcjkK2oTlEciFxt02pjpp8+DwCn1vmfu2o1wVzu2Yw9dBZEShSYfppmuGfRoEZr3KMvg7ztKfv3WTpz4XVRu2TTmI7pp3UAeGWDjyy1mmABwTUR3OZczQcZ6p9U2YtBje5nsC8NTNKaux25GvVodmSoQ5obm7VZYdmYl7poEarrlj3N3oD3kGGbcyX0rfj7GeqfVKZl7GpQo7XpSwOzkvaU/UwcLBUB/6TouWTg2xyfXXpLmn56slPNL+M2J7AErONVqtxWAH2pUV8Fedciac0lSWvuLACcNxwySUUoek4CPMT5efqQHq+NL710z2bc5gTWiqPQFPkK0Jca9b0H04Fa9cjVXsjYrU8JCs9DHZWwzUld7rclzqmSoEZrgwZmFZGrnY0Dso0VPn5H4BSpCjbbVv9UcFy9wGDhWnSVtl5SUKM1QAOzBnHQiOOgcTFytT+IXG0b82qKNDSbifrLAuaXNVi4FlU2MKjR/YRoYLqAejXU0MQBGYwDQl1WHwB+yra57+QwhQ3rn9AHKA7Ivhx3YWS/FSHnIlIqQI3uJ+77IC8PcdD4GAA+joPGl/9mOJ7Oal8MMlf2sS5dWp5DHfUu5naVrtcNh6jedlfxVgRWg4eHKIc8JtToXng1+hgNTEaW30yNkLesoOmn/7eLnIgvP244Xi0OGhu+/Vg/m1HDWaoJy/swbMZtAHg5DsjbirY5H+P8/JHNck+yghrdB69GIRqY4vics94IdcEvbvYh9gCDgrek0m1O3ip1qo0LAzVagYhGGIMpDt61eNfBNfYAn+Gf0rrksc3JEzzM64gHanQv3BqhgSkIzuI99O3BVYgjcrUjbKs9a1BRerBwNaw1K88J91zOLKFGdxHVCA1MQfA+vN0EEVdD35Js10sUVcHCezAc4nEmkuVSewU1uouoRmhgioO3vKJu+ulbvDdhD7DIW1L5WxHunjDetLL9SuKAfKRuRveAGmXUCA1MQbBWELyxhKPMVeW9F+9b8kzkar+n/q24dML4fYE0+F8omtI9oEbZNUIDUyy8LTlBt+wfityoy7dkm34mcrUjIvfgRbfsgwJp8DObbQVLBjXKoBEamAKJXO08r1vcKTQuAnuAR9Z5K8dxQA50tlDzQLdskdjDCwqmsi6oUTaN0MAUz1XOzxumnxLRm1G3nxXaOgAAp1nBrWPLRyEavHMRhhVU4u3QGEWuVkQVQtSoe+7RCBPtCiZphTO6ZfPWB/Zq47Pz7amRvxO9L6sfW0g1P90aNll1Ny6SVviBmhltel/UqEtWa4QeTMEkrfC8yHW6Zb8ufzb5UBsPPZE0+aQVvqdmRpveFzXqktUaoYEpGLYLcJhVlOdh0PTTC6w3TiXQreEtpp+eAIAxgcvPFNHYDFAjHu7TCA1MCYhc7SwAvCpw6ajhkOtVeYBr4+EfslIXvEvzOK9dk/VAjTZlTY3QwJSEOCC+YOFxw3DI35T5AV4uaeEdEtnyhWW3e70+QrmCGq3PehphkLckMDf8dcMhIgfghuhbEgAezTlHZFNYvZwrGbppxkkrLEVBcdRoXdbVCD2YcnExQ1lF+pbkTlNXDTvDkqVVbyMOGmWoi9wBNbqfdTVCA1MilmsBL5VVFH2AR00/vVYbn31S8tS4MRzvm6xF74uCQ9wBgOORq5ViedQBNbqHTTVCA1MyWCJVli/VoG7ZQZZEr6yYfjpqOOQy6/8tugz/oKy9llCjL9lUIzQwJaQ9Zf+FhAQrz/TTX9fGZ/9c5PAdL4bjGYbj7Tf99BIAXMjYaiNqT9kvS5yedFCj7jTSMtygUEw/tVlDqm5pRK5W2BtDBOpKZ1wbr+R05GrHJI11D6afPp/xjb6SNgA8GrlameIu64IabQwamBKjW8PfqI2HocTi0AkANOOAhOww3YciOxqG49Ev1BOGQ4YAwJE5v6QVPt2eGsntMF9WUKONQQNTclhL0lmJb8nV0Ie4yYor0f9eWPlmMv10N3s4h1kbD1XzoF+sPZGrFZKtmwXUaH3QwFQA9gBfV9DmokycYr3BKwlqtDYY5K0A9G3VnrLtvGrR5gx1/0l7yv6zoieSBdRobdDAVISkNfdPkavtKur4viJusGBhI2nN3S56MllBje4HDUzFaE/Zv0/fJgU348/KHQA4056y91Vlt4gH1OguaGAqBn2L0LdJxmzSovlR5GpHktZcEdXplIMa3QUPO1YUlk26AwD2Gw55EQC+VfScumA6DsiPWbX+ngc1QgNTadgBs7MAcN5wiAsAJwTaS+RByJrV96THshH9rhFuU/cQpp8ektzvWAaELheKnkRZ6DeNMAbTQ0SudjYOyG8krfAw28koou5IAgBXk1b4YhyQHWhc7qXfNEIPpscx/fQgK4Go+jBdvNxwi7zaLzEWWfSyRhiD6XFY47DzhuPtBIAndMsepD8s4/QhANgqMOwXrHTkjTggC8sN2Bu8fZwRRi9rhB5Mn8Oaa+1kP/9+jXMsEQDcZP83ilwtLGiqfUuVNUIPps9hB9d6Mb29Z6iyRhjkRRBEGWhgEARRBhoYBEGUgQYGQRBloIFBEEQZaGAQBFEGGhgEQZSBBgZBEGWggUEQRBloYBAEUQYeFehzqnzOpV+YaPJpNFkvj0ZoYPoEWSd1TT+FspzU7TWGxpY12j5gDz48IK7RRPNejeanlzW6PI2nqbsGT1N3Ry/XGukVJpr5ajQ/TV69PJ2PRv1kYJQ1Fi8ThuPpumUf1C17FAB2F9BpsFMtbSZphRfjoNF3dXg3Y2jM07cP2AcfHihWo5uL4cytxfDi5Wl1GlXZwBgA8GuOS8LI1UYUTqlw+q3eaxWZaJZTo8m6Go0qa2Bg+QuVcnw8jlxtm8LpFAb1WvqxYn2VoF7L3rHyazRZl6vRV2UOljeGQ45yBMCoqD9JWnP/onhauWE4nkGXQ4ZD6BvxP5Y4aG8CwHHDIY8AwPWkNfdF0RPKi6Exz6DLob1j1dBo79iyRrcW5WhUdQ/m2hpbdusSB2QPa4ZVeQzH22045BL9z6LnIsDhyNXOFj0J1QyNebv3jlVXo8l6do2qnmjH6849pmgeuaFbw1tNP/UqbFwo75h++q5uDaveNSmE7QPDWyeaqVdh40J5Z6KZvrt9IJtGVfdgJgHA5bik8jtJpp9eAIDRouchiRsAsKfXGuBPNHtPo8m6mEaV9mDigPDu5e9WNBXl6NbwN9iSsFceXGCZqddNPz1BPbOiJ5OV7QPD35ho9qZGE830BPXMeC+utAdjON6g4ZBrnJftqNpuBtuSv15AvkSenIpc7YWiJyHKRLM/NJqs82lUaQ9GIAYDVXu7MOMyq/DBpX/D0wBwBABGAGBb5Gpa54f92wH6cClunXGUnYuqHMy45KrRZF3TOj95asTORXVNpT0YWP4CXgKAOsclcXvK3pG05kq/7qfLotp4GEp8cBMAaMYBCdlD+2EcNLh7I1PPEQCeMBwyBACOzPklrfDp9tTIRUnjKYcui559Tb5G89N3Nbo8za/R0NiyRnvH5Gt0czF8+q9f6k6jXjAw1CO5wHNNHJDDcdAo/TYp7zb8JigLcJt++jx7e8qAfpkerUrgl8VcpGk0WVej0URTvkbdBH6rvkSCyNVmAIArt8VwSKmXSWwr+oKEBzdOWuErcUB2qNw9i1ztjTgg2+Jg6e/azDgcfdNe063hr0uanhLYVrQUjW4uhq/MT5MdqowLZbKuvTE/TbbNT8vTaPvA5hpV3oOBuzVNeIO9u1hLztJh+qkHAFlPfhd2epx5le9mzAE5F7naMxKnJZWJphyNJuvFaDTRlKPRZH1jjSrvwcDd3r2fcF52wXC80iV6GY63GwCOZxhiIWmFTpGlKahXGQdLa3/qXd4RHOYptvQqHUNj2TW6uRg6RRkXWPZoZuans2vEll7r0hMeDIi/9aM4II/GQSNRNC0uDMczDId8luGtMhO52gHJ08qEQDLkal6IXE1W7CAzQ2OesXcsm0aT9XJpNNHMrtFkfW2NesKDgeXArchyh3owwwqmI8r+DA9uHAekdFnKcUAaGbdOPWp4JU4pK5k0mp8un0bz09k1ooZ3rf+h0qepV3Fz628d/i7vdpxu2Y8AwHtJa07UTZQCK7lwBgD+g8Dll+OADItsOauG/V3PJq3wU92yqUv+m5xD6HSY2788O6doil3DSi4IazQ/TYZFtpxVc2txWaNbi+GnDw+Ia/Q//8f9GvXMEgmW3XHqkXwmcGnhSwvTT+nyzhO4NGbLvNI9uKvJsJ1dilo+E01xjeanyaNlNC6rybCdHU/W79eoZ5ZIsBxcjFjQipfR2vhsYQFFVonuhMClM1UxLpT2lP0Tttbn9RYN00/fVTStrmCV6IQ0qopxobz3krhGE837NeopDwaWlxq24RCeWr0dEnayN9eta7Y0+leBSxciV9ulYErKYcbiMO91cUB2xUEj99QCtjQS0miyXk2NmLHg1mh+muy6PH1Xo57yYGBpzR9eZuc2eKHryCu18dnvK5jW+je17IMi1yWt8EX5s8mH9pTdYNmgXOiW/ayaGW3M9gExjW4uVlej914S02j7wL0a9aCBmbvDslZF2jLoumVP53nojlX/56XRnhr5OwXTyYWkNUeXsvt4r9Mt+yk1M9oYVv2fl8Zfv1RdjW4timn08MC9GvWcgVnBOcHrqCczm6OR4a1RE/dCfye2FOUtX2qyQH7ecGtUZBKdLCbrYhpNNO9q1LMGhgUURdfrBgBcq43P/qnkad0Da4rGta2etMI31c0oX5JWKLKUPalgKuvCmqJxaXRzsXc0urmYTaOeNTCscv1IlgQi3bJfMf10VmGil897QdIK/0rNVPInaYXnWbdBHkYNx8uzqBO3RrcWe0ejW4tiGg2NLWvUswYGlt3wOA7IvoxZiku7UobjHdStYWn9bFivaF53/3QvdUpkRzSeYTt4PHxb0ZTugfWK5tZIZafEvLk8nU2jnjYwsPwQtyWk0A8aDjlXGw+56s5swhOcn0+qXrB8LSJXa/LGywyHPK5uRvfArZHKkgtFMVnn12jv2LJGPW9gYNnIXGW1SrImO9VNP/216acXDMfbn2Ug3bJ5g8hZa3iUFnZeiecNmUsAfvsAatSBnVfi1qgvDAwsG5mLcUBkRPaN5TgAmTH99DNW+4QbXgPDylz2JGzZx7OM3alwOl/yMKeBYWUuexK27OPWqG8MDOOs5KLIdH1+gXo0pp/ybmXyBip7Zl2/Djy/X15b1ajRvXBr1FcGJg4aSRyQPYLboxtBvZgrpp9eN/30Um18dtJwvEOG4z2+QVGrhzjv8aGEeZaWOCBc+Ramn9rqZvMlqNEK5qf5NJpopnZZG3ErY3nnonHM9FNd5KzFJlC3cKdu2XXduvv8G87Syixa9QbgaWIViR5onGimdQB4ji3tYgB4mwXtMjM05g3uHSPPr/Ao5uanyWnBg30fc36e/oGFlyTsfNFuptlqT+Vr7N+5NKrKgcYMcGvUdwamQ+RqRwzHe8NwyF8CQB67EmYG157LIGwfGN6yfcD+4d4xcniNLNTRiWZ6dX6anLm1GP4VqwXCxfaB4a8/+1r4CvPcVm7d29Tg7B0jp997yf7xrcW52xzD8n45hfqMM6NIDe5TAPCAyBjr0LMB3hVwa9RXS6TVxEFjIQ7I7yhuViUDLtd7+4D9LP2Sb5Divpv+76sPpnXLs6+FrwPA06uMSwfqKbnPvhZyZUHHQYP37Bh38iMzLtcA4Khk4wK9vjyC5UAvt0Z9bWBg+cGOI1fblbTC4wIZi3nBFTzcO0a6Kkjd7edWwlLnv9vFR492sjk54Pk9uWMwe8fIf+G9hoNeD/B24NKo7w1Mh/bUyBsAsEPgcFcedO1hsdae3W6vDvK2AmWp890srY29Y+Qo59jKvqTsAJ6javwKeMGy4NIIDcwK2NGCA1mChyrg7HLI+2bn/TxPHKlMBdWVJud10+WwH0EDs4o4aLQjVxuJA7ILAN4ROINRNLyxia4/PzTmSTuLVQCVbKxfddDArEMcNBYiV/sDAHiwYjsEvN5X159nB9943tRlikv0yxKmVKCB2QS6PIlcbR/1aJJW6LMHNVevhiepjCVDfd7lxz/nTZ7iKF+QzE+TNzjHVlaGgaXxK1vGTDRzSfwrA1waoYHpEurRtKdGJlih7QdF6oRkoOtlDPMy3uny4++wz3fNZF17tctypDMriz93Cc8ZI66xL0834gxVDruhTM3hVMKlERoYAZhXMxEH5DfigAzFwdJ27xn20KvI5uQKlr73kv0XrLfNem9s+u+n2Oe4ubkY/mgDI3OHGpf3XrJf5hlToIgU99+ZFbIWaWvTDWUKaCtBIO2g3beZvDJgBZN+QX/ioPHlv9Mvi+EspaE/wZLdjIxBRi73+9bi3O3JuvYCALww0UzfYollHU5nrVny1y+N0N/50YlmeoL10Om8vSP6/0/WtfMCw/KekOZObLu1ONeerGsH2Nb8+5JPZffDEolbIzQwClguctWY2ehtafppyjGksHFixkRJESS2XHpV0nBf4/y8cDxlsq4tDI15u9hZJH2tmNpkXQsnmvloVCG4NUIDUxxf8KSrG443WETTsbzIuwDX5elGcnm6sdkOGpdGQ2PeoEDcqTKIFODCGExxfML5ed7yjZWC08DEkauJ9L3iBTVaAWcBrniyrt1AA1McXF8QwyFD6qZSLKxrA8/vx/vFF4VLo71jvavR0JiYRmhgCiIOCK8rrfIcTaEYztIuHE/tlVwMzPw0atSBHYzl1ggNTHHwPrw100+fVzSXwmDtW7h+L97qdxng1mii2XsasfYtXL9XJ4ETDUxBxEHjQ4GdkFMKm8AVguGQtwSS1HKpvXJ5WkwjtpzoGfaOiWuEBqZYRJK+eiahi9Ur5s0fiQWKU2WhrzUaGhPTqFOcCg1MgcQBeZX3XJPhcNdYKS26ZT8ncFmuTeXnp/k1EqiDU1q2D2TTSJM7HYQX00+vbFDacj0ORK6mKuU9F0w/pS73r9Ypu7keceRq2xROa00mmmIaTdarrdFEU0yjyfpdjdCDKZikFYocwHvXcLxvKphOLujW8AMAcInzwaV8oGhKG3JzUUyjobHqarR9QI5GaGAKJmmFFwUuMwyHvKJgOrlQGw//UMAjoEvKQgzMrUUxjfaOVVejZ18T02h+mqCBKROsbapIXOG7pp9OGk61qsyxnt4vCly6kLTCOQVT2hTWNlVIo4lmOlm1SoBDY+Ia3Vq8VyOMwZQE009nBU/kLsQB2cNOdpcaw/F2Gw65InAp/d0e5KxNLJ2JprhG89NkD2/tnSIYGvN27x0T12h1bWL0YMrDEcHrBgHgoOS5KMFwyAnBS68WbVwYPa/R3jFxjdYqfI4GpiRErkbd8GmRaw2HvG766fO6NVzK0/HUczH99ALrBMlN0gpPyZ8VP5N1cY32jpHXJ5rp89sHyqkR9VwmmuIa3VxcW6OvZp4ZIpPrumX/kcB1vwkA9a2/dfhf4qDxCwXzEsZwvP2GQ4IMxZ1mPn91R0PytLJw/eEBcY0Gfufwv1yeLpdGQ2Pe/r1j2TR669DaGqEHUyJYhuphVnZShFdMP31Xt4ZFe2BLQ7eGHzD91DMcIvTGZ5yJA/KMxGllhmWoZtJoopm+u32geI22Dww/MNFMvb1j2TSan15fIwzylhBqJNhDLEobAPZFrlZI8SOWRHdJZJtzBVcjV9sjcVpSoUZChkaT9WI0Ykl0mTWarG+sEXowJaQ9tVScOst5mxoAXDP99EptfPZQXlvZhuOZtfHZSZb9meXBTVgh9dLCCohn1miimV75wWuzh/Layh4a88wfvCZHo/npzTVCD6akMC/guqReQTEAPBO5mpIGcobj7WSnomUUvk4AYE9R3hcPzAuQqtFkXY1GQ2PeTnYqWppG3Xhf6MGUFLYtK2v3hH4RLtClFzvBLGdQxzNMPyUst0VWVf1mFYwL3O1HLVUjuvRiJ5ilMDTmGRPNlLDcFmkadbu0Qw+mxOjW8NbaePjnrO2ILBc6YYWUIla46WO6KtusBALrW7QTAL6mW/Ygq6E7xFnlbDNm2lP2saQ1p6K3lBK2DwxvffY1dRqxwk1LGnVKIKwH61u0pNH2AXuQ1dCVrtF7L9nHbi12pxEamApg+kt9fK5IfIDXI1qjn3RNcv+g9ZiJXO1ADvdRAuu11PMaTdb5NEIDUxFq47P7dcs+rbJ/c0HQt3Wzap7LWvzgtdn9Dw/0rkY8nksHNDAVggV+r9H/LHoukqhMQLdbWOC35zQS3U7HIG+FiFwtbk/ZDmviLproVRauxgGxe8m4AAv8vvdS72g0P03sLLk66MFUFNZhoBRndAQ4E7ma6MHBysA6DFRWo8l6do3Qg6kokau9AQAvZOnRXBAzcUCU9MouG5P16mo0Py1HIzzsWGHioHEVAN6m6+Qt28zBHHYwRKHr+MtJKzz++as7GklrrupLh665PH1XI+Nr5dfo5mJ4/K1DOxq3FuVohEukHkLCGSYV0PX7SEnquRSOhDNMKljSaK16LllBA9NjGI43qFv2s7plP1XgTgZ9UD+IA/JB0grnktZc6Su55cnQmDe4fcB+9uGB4jWanyYf3FoM524tqtEIDUwPY/opfXhPihYREoA+tITFh5AumGgWoxGLDykHDUwfwNL8v2045HFWvnGnhDdnzBqcf8KOHHyYc8fFnoKl+X9775gajdiRgw83O24gGzQwfYzppzY7APcYO2y33mG4BVa/pNOruRm5GhqTHJhoims0WS9eo/8fAAD//7BDnqfZ2hPbAAAAAElFTkSuQmCC;" parent="1" vertex="1">
          <mxGeometry x="389.5" y="397.5" width="48" height="48" as="geometry" />
        </mxCell>
        <mxCell id="AcxdMaKK0mU5kZiv2lnr-33" value="Terraform" style="shape=image;verticalLabelPosition=bottom;labelBackgroundColor=none;verticalAlign=top;aspect=fixed;imageAspect=0;image=data:image/svg+xml,PHN2ZyB4bWxuczpjYz0iaHR0cDovL2NyZWF0aXZlY29tbW9ucy5vcmcvbnMjIiB4bWxuczpkYz0iaHR0cDovL3B1cmwub3JnL2RjL2VsZW1lbnRzLzEuMS8iIHhtbG5zOmlua3NjYXBlPSJodHRwOi8vd3d3Lmlua3NjYXBlLm9yZy9uYW1lc3BhY2VzL2lua3NjYXBlIiB4bWxuczpyZGY9Imh0dHA6Ly93d3cudzMub3JnLzE5OTkvMDIvMjItcmRmLXN5bnRheC1ucyMiIHhtbG5zOnNvZGlwb2RpPSJodHRwOi8vc29kaXBvZGkuc291cmNlZm9yZ2UubmV0L0RURC9zb2RpcG9kaS0wLmR0ZCIgeG1sbnM6c3ZnPSJodHRwOi8vd3d3LnczLm9yZy8yMDAwL3N2ZyIgeG1sbnM9Imh0dHA6Ly93d3cudzMub3JnLzIwMDAvc3ZnIiB4bWxuczp4bGluaz0iaHR0cDovL3d3dy53My5vcmcvMTk5OS94bGluayIgdmVyc2lvbj0iMS4xIiBpZD0ic3ZnNDA4ODAiIGlua3NjYXBlOnZlcnNpb249IjAuOTIuMyAoMjQwNTU0NiwgMjAxOC0wMy0xMSkiIHNvZGlwb2RpOmRvY25hbWU9InRlcnJhZm9ybS5zdmciIHg9IjBweCIgeT0iMHB4IiB2aWV3Qm94PSIwIDAgMzkuNiA0NSIgc3R5bGU9ImVuYWJsZS1iYWNrZ3JvdW5kOm5ldyAwIDAgMzkuNiA0NTsiIHhtbDpzcGFjZT0icHJlc2VydmUiPiYjeGE7PHNvZGlwb2RpOm5hbWVkdmlldyBib3JkZXJjb2xvcj0iIzY2NjY2NiIgYm9yZGVyb3BhY2l0eT0iMSIgZml0LW1hcmdpbi1ib3R0b209IjAiIGZpdC1tYXJnaW4tbGVmdD0iMCIgZml0LW1hcmdpbi1yaWdodD0iMCIgZml0LW1hcmdpbi10b3A9IjAiIGdyaWR0b2xlcmFuY2U9IjEwIiBndWlkZXRvbGVyYW5jZT0iMTAiIGlkPSJuYW1lZHZpZXc0MDg4MiIgaW5rc2NhcGU6Y3VycmVudC1sYXllcj0ic3ZnNDA4ODAiIGlua3NjYXBlOmN4PSIyNi4zOTk5ODYiIGlua3NjYXBlOmN5PSIyOS45OTk5ODUiIGlua3NjYXBlOnBhZ2VvcGFjaXR5PSIwIiBpbmtzY2FwZTpwYWdlc2hhZG93PSIyIiBpbmtzY2FwZTp3aW5kb3ctaGVpZ2h0PSIxMDE3IiBpbmtzY2FwZTp3aW5kb3ctbWF4aW1pemVkPSIxIiBpbmtzY2FwZTp3aW5kb3ctd2lkdGg9IjE5MjAiIGlua3NjYXBlOndpbmRvdy14PSItOCIgaW5rc2NhcGU6d2luZG93LXk9Ii04IiBpbmtzY2FwZTp6b29tPSIxMy45ODM4NzgiIG9iamVjdHRvbGVyYW5jZT0iMTAiIHBhZ2Vjb2xvcj0iI2ZmZmZmZiIgc2hvd2dyaWQ9ImZhbHNlIj4mI3hhOwk8L3NvZGlwb2RpOm5hbWVkdmlldz4mI3hhOzxnIGlkPSJnNDA4NzgiIHRyYW5zZm9ybT0idHJhbnNsYXRlKC0wLjc1LC0wLjc0NzUpIj4mI3hhOwk8dGl0bGUgaWQ9InRpdGxlNDA4NDQiPlBhZ2UtMTwvdGl0bGU+JiN4YTsJPGcgaWQ9Imdyb3VwMTU3MC0xIiB0cmFuc2Zvcm09InRyYW5zbGF0ZSgwLjc1LC0wLjc1KSI+JiN4YTsJCTx0aXRsZSBpZD0idGl0bGU0MDg0NiI+VGVycmFmb3JtPC90aXRsZT4mI3hhOwkJPGcgaWQ9Imdyb3VwMTU3MS0yIj4mI3hhOwkJCTx0aXRsZSBpZD0idGl0bGU0MDg0OCI+TG9nbzwvdGl0bGU+JiN4YTsJCQk8ZyBpZD0ic2hhcGUxNTcyLTMiIHRyYW5zZm9ybT0idHJhbnNsYXRlKDEzLjY1LC0xNS43NjUpIj4mI3hhOwkJCQk8dGl0bGUgaWQ9InRpdGxlNDA4NTAiPnBvbHlnb24zNzA2PC90aXRsZT4mI3hhOwkJCQk8cGF0aCBpZD0icGF0aDQwODUyIiBpbmtzY2FwZTpjb25uZWN0b3ItY3VydmF0dXJlPSIwIiBzdHlsZT0iZmlsbDojNUM0RUU1OyIgZD0iTTEyLjMsNDYuNUwwLDM5LjRWMjUuMTlsMTIuMyw3LjExVjQ2LjV6Ii8+JiN4YTsJCQk8L2c+JiN4YTsJCQk8ZyBpZD0ic2hhcGUxNTczLTUiIHRyYW5zZm9ybT0idHJhbnNsYXRlKDI3LjMsLTE1Ljc2NSkiPiYjeGE7CQkJCTx0aXRsZSBpZD0idGl0bGU0MDg1NSI+cG9seWdvbjM3MDg8L3RpdGxlPiYjeGE7CQkJCTxwYXRoIGlkPSJwYXRoNDA4NTciIGlua3NjYXBlOmNvbm5lY3Rvci1jdXJ2YXR1cmU9IjAiIHN0eWxlPSJmaWxsOiM0MDQwQjI7IiBkPSJNMTIuMywzOS40MVYyNS4xOUwwLDMyLjN2MTQuMkwxMi4zLDM5LjQxeiIvPiYjeGE7CQkJPC9nPiYjeGE7CQkJPGcgaWQ9InNoYXBlMTU3NC03IiB0cmFuc2Zvcm09InRyYW5zbGF0ZSgwLC0yMy42OTI1KSI+JiN4YTsJCQkJPHRpdGxlIGlkPSJ0aXRsZTQwODYwIj5wb2x5Z29uMzcxMDwvdGl0bGU+JiN4YTsJCQkJPHBhdGggaWQ9InBhdGg0MDg2MiIgaW5rc2NhcGU6Y29ubmVjdG9yLWN1cnZhdHVyZT0iMCIgc3R5bGU9ImZpbGw6IzVDNEVFNTsiIGQ9Ik0xMi4zLDQ2LjVWMzIuM0wwLDI1LjE5VjM5LjRMMTIuMyw0Ni41eiIvPiYjeGE7CQkJPC9nPiYjeGE7CQkJPGcgaWQ9InNoYXBlMTU3NS05IiB0cmFuc2Zvcm09InRyYW5zbGF0ZSgxMy42NSkiPiYjeGE7CQkJCTx0aXRsZSBpZD0idGl0bGU0MDg2NSI+cG9seWdvbjM3MTI8L3RpdGxlPiYjeGE7CQkJCTxwYXRoIGlkPSJwYXRoNDA4NjciIGlua3NjYXBlOmNvbm5lY3Rvci1jdXJ2YXR1cmU9IjAiIHN0eWxlPSJmaWxsOiM1QzRFRTU7IiBkPSJNMTIuMywzMi4zOVYzMi4zTDAsMjUuMTlWMzkuNGwxMi4zLDcuMVYzMi4zOXogICAgICAiLz4mI3hhOwkJCTwvZz4mI3hhOwkJCTxnIGlkPSJzaGFwZTE1NzYtMTEiIHRyYW5zZm9ybT0idHJhbnNsYXRlKDM0LjQwMjUsLTkuMzIyNSkiPiYjeGE7CQkJCTx0aXRsZSBpZD0idGl0bGU0MDg3MCI+cGF0aDM3MTQ8L3RpdGxlPiYjeGE7CQkJPC9nPiYjeGE7CQkJPGcgaWQ9InNoYXBlMTU3Ny0xMiIgdHJhbnNmb3JtPSJ0cmFuc2xhdGUoMTMuNjUsLTIxLjMwNzUpIj4mI3hhOwkJCQk8dGl0bGUgaWQ9InRpdGxlNDA4NzMiPnBhdGgzNzE2PC90aXRsZT4mI3hhOwkJCTwvZz4mI3hhOwkJPC9nPiYjeGE7CTwvZz4mI3hhOzwvZz4mI3hhOzwvc3ZnPg==;" parent="1" vertex="1">
          <mxGeometry x="577.5" y="550" width="40" height="45" as="geometry" />
        </mxCell>
        <mxCell id="AcxdMaKK0mU5kZiv2lnr-34" value="Packer" style="shape=image;verticalLabelPosition=bottom;labelBackgroundColor=none;verticalAlign=top;aspect=fixed;imageAspect=0;image=data:image/png,iVBORw0KGgoAAAANSUhEUgAAAlcAAAJXCAYAAAC+O3GEAAAQ/XpUWHRSYXcgcHJvZmlsZSB0eXBlIGV4aWYAAHjarZppciQtDob/c4o5ArvgOIAgYm4wx59HVNltu9tLfzN22OXKzEpA0ruItNv/+fdx/+KrhJRdLtJqr9XzlXvucfBH84+vfn8Hn+/v+1XEx+fRd8fd64nIocRrepyQ8XgNg+Pl1wdexgjz/XHXnmdie97oeeJ5e59sZPtb306S4/FxPOTnjfp+/FF7k7dTnc8breeFdyrPn/w6rceLvXfvDghR0sJAKcadQvL3d3vMID1+Bj/CbzvLElJ6HHG8pNSfNyMg75b38ur92wC9C/LLX+5j9F//+hD8OJ7H04dY1meM+OOPJ0L5cDy9DhPfDpxeZxTfn9AW4m/Lef6co+2c/VjdyJWI1mdF3WCHl9tw4STk6X6s8i38FP6W+935bn74RcrVLz/5XqGHSNyPCzloGOGEfV9XWEwxxx2F1xhXTPdYSxJ7XOQHONh3OFFST5oauVxxO3KWU3ydS7jj9jveCo2RNXBpDNws8JFPv91XJ//m252zLETBt9dYMa9oAWcaljn7zVUkJJxn3soN8Mv3M/3+Tf1YqWYuszA3Fjj8fNxilvCrttLNc+K6wusDQsGJPm9AiBi7MJmQyICvIZVQg5cYJQTi2EjQYOYx5TjJQCglKpOMOaUancQWbWw+I+FeG0us0Q7DTSSipAq2GhkaJCvnQv1IbtTQKKnkUkotUporvYyaaq6l1irVSG5IkixFqog06TJaarmVVpu01nobPfYEB5Zeu/TWex8jusFAg3sNrh8cmXGmmWeZdcpss8+xKJ+VV1l1yWqrr6FRk0ITWlW0adexg9swxc677Lplt933ONTaSSefcuqR004/4zVrz6z+9v0XWQvPrMWbKbtOXrPGUSfycotgdFIsZ2Qs5kDGxTJAQUfLmW8h52iZs5z5HgFFiUyyWG6cBssYKcw7xHLCa+5+Ze5HeXOl/Shv8bvMOUvd/yNzjtT9nrc/ZE1N59bN2AOFFlOfQB/ndxsutmGiNr583VtgMOLGPcduKlFF6hr77NqLP7q8W36zUB0qLY4jTLZ23hBdPj9nlrVG0lUkM/o+zGDDj5Lsr6L2+9QSirpWZJ48veQxa9hJCgHXdSwMTcfMUGLaRQg9hA2EQS3oBrogh2AzmE2iOMlHa8gTluwptUASQzqj7VO2yFhYDFhAg5KZSOyq3xpXhctAQB4nUWgtjOnIsrLgpGWlyh3H3H2mvezjmTmvTMnePynhL17ddxd89noouEJxUmiqJRy39wwFgIjG3rOPjD9usnzSKEgLYGPqWw7RQNTWiHP6sdN5f869OXlGX0HOnAvaPCiJnDPXOmoI66Uo6zYe3SsbN/JeYljCTLZPjgpuGRRkq8q8BE0j2PajcbaomQvm1Ei1rjap80oldm/3aDLDOFUB0K5ubd2nIoNlLYMo4y1QvYVjcQ8BlgDM6oW1ZktIp9JqT4fRkdFWbW6zuinbx15Zb9q9bgK4Rw11+3a46TF0HZ9nJYRtENiBBxLwjmwWolQXtx9xq0vZCtKEeMwxTcr1pr312f4mme6LC1ilMqimoXDS8QXCmQpCMAFZQ/WNhaRNqArENoetf6VBHKnLVEkQ8GR9saaDzbgL1H5ammdDahPTMnaNU+qEKPaA36YG1w4D1jULgV3lKKcrXBoSRmYU3d0qAdoJIwnEWOJYQ/xFm9dUJxMu43h1FdqyvGNkfC69mfuMo3leFaiASqAc/fG1wn/UW+5hQWapio7SVgVvVBt1JMrIYuy55hiML1AtKcPV7AqNhEDxH5tN7l8QiSva7DYsYUwoEQaoh1GV+pRd8zrQySGLxHTEQ/qXIFeFGpyHgNfFyvtqOH/DQ9jKNZCel9Dz6aCv16aoTm9YwMGt4ak4du/wNAmFlRayQnZlDOn+gf5iHpZQjdrKMOhASoABL94AXvQbMGz4x0qauaFxi4BphDVLNtFKuzY3Z0prSpmEs2y4aA7Uw2JQd4q5e64qhCmdFSeBJIQGd8sUQgGFU8Umg06nrhmiLM1WAZovN2ZDGrQxQTg3ITLgUhEVBEq3dFivgAT4Uzbrrn25wZo7otdPjzWXhJphBs9EPUnCQRYH4STJ8EndNCYMdVKGVh8AKLG07yDyOXQU134LwdKy4LjZXRtqE0cfBLob8MCtj7VK3WjoeLxn0JORJo8jQDLTKXJ6MzNCw4QVoI5yqYusxwfmWjBVQQcWAbHSA4ClbZhMFhFBb6moKmOeJgBZSTAOPdLVOZmzNtRyl3w2FLPVpENnDrA3FpLKjnkGs++QUPd1rs1sywSqAliJMACnhQBycLIFnKMstqbFRfUw8gCoDYWvhutF74v8osWXYO0jApnUQEHVGKvDCoOGA51LsXRJMJuzz0rSdulgZOTcTDd8x2LX3NaxOyWFB7Ox+T6wkDiaDKh8dz4QENhkIZh5ZT53oH4rgQtOhCxpJ/+BFI1utueQJ0rVcNKHI5w7oROTiVQTDdQj6glNFzaEWWZufyB0OOlYKfdrpLx0BeERZeFiBnQCwyEheZM2wRLgFMzpN6NMoWyh2YkoXH+zzaS9WB1opVyeA6gIgEMoUZ9lnUCgUWaFVE407O6SAkSAF4BC8AuYBzirTjrBAjUM+2k7xlHIVHKZ9AWVaX4TqC1aOrG9DloQonLo12AKmIu6ogUp5rHS6sSvUdzgo4Q1ukl2ITWQNmxkXcgJU0BdSbirthuAB+kBD0alYZHGImJlhZqgllYWZYBWzHzdCAHRfUFkvPTDV5nyTlZw/i/K4hFHCNiWTESgowC5GffyjnEENODNIYlNHLVgHh83NYCFB9aMH+mmoJPr3mpgiqdMgDHFWCVghKzKKABc78D8FCwfhpo3bW3WvPiow6PTvVMM3kxxNnoXTb3vvSPpQPGxv7cFBSdYEL+MPFE9RsrHmr5czVi6ZUInlpxG0A9snVVhWewRuCCyeBKfiT0mG99txvO0RqaSkWpAgql4XdFtHHHcYAIiwU5jVhEdfE5vMJZ1BSRKfTbJVGgooFoztVopzxhpIHAd4E+bg1F73kgwRN0p7lYODtyfwHoH3sZPrCFJ5pjskWiM6IjsojgXky/YKwWX6nrE0kOfICHAlEg2cptoSLB6sCCyXwgeLRK+2Iy4CRauYD/MDy87vLE1CBGQRuwRCVokYg0oh7E+cdxIoGlRiZayRZvWJn0NIrhM1Kzbins5uyV2BkdGb6q5w2L4r07fRXiSbqJ00A28WcM9EDyxG6ZrkJLgMQAlk+xApNIGRQWPacLIic4EP9QIP3HGQSb0qTws8+xr9xf3/OHVfTyA5UTYwnUZH8q8ld9E6GoQComtucU2MHCUB2JwTsCFXEVJz2nU5D+ZhU+kr40rWC76MrE641xK1Z5VrJG7J2OAns3ocTvFBMRm2hfwucwGNwC7mJHGS8mhsmUv6wHoQk8f1+0zox6AW6/0AQ0b0vc6F6JCVwAJfpRg7RF7bBlq8IGnWQUINLZWndQOkaWtwHfjGUYK1hOsMc3A0clhZeH8a2RzoTRcrNOyZVYM+WMZApz6pBIjhFyMMsIe0G6hhKZEMQ/5bMFOwqXFhx13f+EZPiTrvWFw571f+MQt3AnATJ8Otlw8C5DSVFHZN29ioV8DjT8n3zN399HOXE8awDPTyn6SCmr55ndGRzxNK+xUMtmgqkkOZuTaX6iS7goWWtSIrnDMbsmjvq7xbS8y515b/Enn1BrJIYcYgsH6EMTmB/1uArosEUHsBcPJBK/bRk9sYGOJYOS/mCM9KDIIV3TF1fqDIM2HvJo47fXtHsPrjM41Vn/0bRVheyc9rz2NpvseGjtuxLRt3/QsygsnRh95b63t81lAPL/Bxb3Fyzu4kLGLxycYmYfB8S0Yn1C0GeKzJ50L77AdcyODFQU/e/tjNik9+ZQUp/Wb6L4Pu/sVd+5bwakVhq27GVxt5+PyAIZFG3Hypil73LZ+ZeyMEbotmRnhQuenjPNj2nNf897Pac99zXs/pz33Ne/9nPbcF7xHE65247ts7CfhwJxuk2BarTLttjdWJPmYiljPupqZjPhoI9LJeFHPh86P0eL+ULgXLW+w8mekvMcJfARJ/O8oAbSP+Hr/HVK+y6D7lcIHVhjsH6HFPXqN82Qp6zo+4oWzb/HyCVrcG7j8U7RcrLjfPMInSHmLExbzQMobnLhv/cGP+eiDO7Ad2q/z+EAKEvQOK+4nHuEFK7bl/BlWgMh5gOU9Uv4aJ+6z0v1bVXEfZeWf4sV9wkZhFJraQk/fbR8sVtvSir7WJWXRCqaHZbAnydc0qPvlGTDZG8uT0Okdx55o/sR33XLDEBlmcFe706ZrI2NYcXwEcTxHenIjxaNZKmfLDubYaVArbQJX2dZSPmbY6Q5wSZlu8rQqzXbLIg4B74Ujow9LyTH5HHZLiilpReoGldh5muFu82f9K+9SSrTtyGgtWxSxrSzx69gGb465VVoIa1cycTFksPbadZ3Yx6zP9jSFbyg3zR2DqhvDtoMPMQq1x0LHxo3swdW1VpTbqokmKw/sFnHzA0YI3jZRl74UFr3ydOs7v/JDAnZ/ZuC/Lyj3ZwZ+B9xiG7nlnXWkyo3zJtGkIbLVOXrdo9SPVU1YfR6lZQZjD6JZO2lJtl1vAfb0ZNbxTvpZGiXarLt9FWz7xTUaeaHrP7bGaWNlqHrQTYvtkDSrVMiDYgq0xDNLzqCbMYUWmTvTGyzrzBxWk1B4mtxC021PiaLaNYFm9OjAYnsazpXvpjUVEmltCx3FhXQnkbcscnD+onye2m2Ouy/qekg9eGDqoBb6EDq/OaPtdSsNxgJra6XafVooCjkMw6/uKs0IobHdk20bq5RwzHXgb1sLBe9vG5iFBmd2pZjow6GveqJ0KKsv7sT5NYajhQkwmfU8Y+c2ZkzqKU6kCinom4g8887wdLff2uNXbmkTcQ3Au9gzkkbOO42xb8t2EuyZygbdpCOCXRRG7UF3Dsn5tok3Rp1imibI9rQjo7S16bJ/Dyk1KFlo0TaBUeqmNgI9G+0XnX2KcySEysEaRNL4Gipuw2pn2JxaE9sLb7MeoDntOU6y/7vAaPm7C527JktEst0IXyjInteMtBGMatTD8Ewe5m+y4CVo4ki4m3i9gS5vTyk6t5t5I9mzP+SnuLDqb9tVVMMfW6knHmxz5DfpdE/thJjh2gqMcQLmRehyKXxCr+XZ90Hke3z6GMj9g4d9j9fSZmCBTZNtLG5XtRaa7JKxPVgLQmHt82AZVa1rhtXyWLbblOwJa4NRKegIhGa2LX3xoVbIGKwdGlrgafyO6EJ3kDWVhDyQ5lYoBbpI4s/7TDKP7cbRZioteD/ccXXb53c53ccnhHyCH4KjQwe3xDb5GaTT7Qu0D85PtQdXBt1FdCEvUBnGgrqDgjVYa6LqJRhidBveSlF7uDQAOeUIN8Ow1piWyvvY1uyRcnvxRjlFs0DuUw9EHkeXD3r6QU5nKnaWoj4OZobC4BKx5yKv+LRQ/FQWPjXs3716+/8f25Q+ZhFTVfu/BOrIZzitpzqNvchExAnNiVXMJi3IRuyldH5Lsn3H3i1WGYjY8zODrGrK4shz7fDeEvtvlz1SmU0Cgh9680Q4RfFpal23BvzSiENbPeW4lXkB7Qh2llGtPc/FEEY8GQWL8ZBce0+Qc9/Nmxmw+thIVqqk7NZHMsDiMxbFOIH3VOqIbJuI9y+Bmm1jNY1ujoniZczZZpwtU711tu3dgE3Fdp+atRHouT1AWYosxzCL9rt5ZP8EsuLISqz0FcPc8xf03A+fOx0rL/dfe0S3/bCxyocAAAGEaUNDUElDQyBwcm9maWxlAAB4nH2RPUjDUBSFT1OlUioOdhBxyFCdLIiKOGorFKFCqBVadTB56R80aUhSXBwF14KDP4tVBxdnXR1cBUHwB8TJ0UnRRUq8Lym0iPHB432c987hvnsBoVllmtUzAWi6bWZSCTGXXxVDrwghDKAXcZlZxrwkpeG7vu4R4OddnGf5v/tz9asFiwEBkXiOGaZNvEE8s2kbnPeJo6wsq8TnxOMmFUj8yHXF4zfOJZcFnhk1s5kkcZRYLHWx0sWsbGrE08QxVdMpX8h5rHLe4qxV66xdJ/9hpKCvLHOd9ghSWMQSJIhQUEcFVdiI06mTYiFD9wkf/7Drl8ilkKsCRo4F1KBBdv3gM/jdW6s4NeklRRI0mBfH+RgFQrtAq+E438eO0zoBgs/Ald7x15rA7CfpjY4WOwIGtoGL646m7AGXO8DQkyGbsisFaQvFIvB+RmPKA4O3QHjN61v7HqcPQJZ6lb4BDg6BsRJlr/v8u6+7b/++affvBxFUcoCaVIkzAAAABmJLR0QAAAAAAAD5Q7t/AAAACXBIWXMAAAsTAAALEwEAmpwYAAAAB3RJTUUH5AcKAAcrf2GgxwAAIABJREFUeNrs3dmPnFea5/dvJJlMkkkmd4qLXlJUcJMocZFKorYqlVRLV/XMGN1pYGbuBpgLA2Okjbmy/SfMhe0L+7V9YxsDA56ZhoEYT7unq7qqVKV9Jynum15uwZ1MLknmQiYzwxfPic4sTZHMYJIiI/L7AV5Qqi40Kg8jMn7xnOc8ByRJkiRJkiRJkiRJkiRJkiRJegxKLoEUsryYBnQANWAYGKn2lGuujCSpEdNdAunvPQW8AQwBu4ALwB2XRZJkuJIezFLgF8AoMAc4nOXFWaCv2lMedHkkSRPR5hJIf68T2AD8GfAvgf8K+EvgmSwvfK9IkibEypU0ph1YAKxKz9NENWsOsCLLi3PAhWpPudelkiTdjd/GpTE1YkuwbgnRg/UvgP8W+KfAtiwvOl0qSdLdWLmS7m5GehYAi4F5RCXrmSwvDgPHgIvVnvKwSyVJMlxJjZkDbAHWAm8BHwG/Bb5JTe93cHSDJMlwJU1YGzEDq4NofJ8OLANeBvYRoxtOAp4qlCTDlaQGdQDrgTXANuAbYD6wI8uLKnAdGKr2lEddKkkyXEmamBLRj7U8ha2ngTeBz4EvgL3EMFJJkuFKUgNmENuDy4BniBOGi4BFWV6cBC4DV6s9ZSe9S5LhSlKD5gGvAOuAnxBVrI+IStZFl0eSDFeSGn8/LUjPSmAuUcValeXFAeBbYnTDLZdKkgxXkhp/bz0HrAbeBnYA/x74Oo1uuAWMOrpBkgxXkiZm/OiG+URv1ixgK3CYOGF4EJveJclwJalhJWKbcDnwagpXfwu0ZXlxBrgB3LLpXZIMV5Imri09S4gLoucALxHDR3ekPy+7TJJkuJLUeMhamJ4XiEGky4CuLC8OEacK+2x6lyTDlaTGzQA2EpdBv0ZUsN5Lf550eSTJcCWpcXPTs5oY2zAbWJHlxX6gCpyv9pRvukySZLiS1LgM+M+IKtZh4LfAJ1leHANuAjVHN0iS4UrSxNVHN8wjxjfMBp4F9gMHUuC66jJJkuFKUmPaiD6st4FtwCHgY+DXWV4cBa4TQ0hHrGRJkuFK0v2V0jMDWAxsIqpZG4mRDV8B+4DTLpUkGa4kNa5+X+GLwHrgKaL5fW+WFxeAPmDQKpYkGa4kNe4Z4M+BV4CjwPvA50Q/1m2XR5IMV5IaMzsFrGeIZvdOoqr1VJYXp4BLwA2v0pGkx6fNJZCa1jyi6f2fAz3Af05MfV+Y5UXJ5ZGkx8PKldTc79/5QFf6cyHwNLAb2J/mY12yiiVJhitJjSkRpwrnA5uBl4HPgN8De7K86AWGcHSDJBmuJE04XE1LTwfwHNGLtYoYQLqHGEJ6LIUsSZLhSlIDuoDngXXAFqBMDCWdneXFaWJ0w61qT3nEpZIkw5WkiWkjqlgrgR+lgPUGsV34KTHGwQuhJclwJalBM4km9xXAWmL4aBewrN7wDvTZ9C5JD/fbraSp8V6fB2wnRjf8S+CfAVuJ0Q3TXCJJejisXElT6/1ev0pnCWMnDNcDR7K8KIDT9mJJkuFKUuPmEBdCryUGkX4F/BZ4P41uGAZGHd0gSYYrSRMzfnTD2vTnQmAjcCg9B4EBl0qSDFeSGtMOrAEy4FVgF/AhMC1tFQ4Ct216lyTDlaSJKaVnBtGL9RIxF2szcZXOZ0QV66JLJUmGK0mNaUvBagmwgRhEOh9YnOXFIeACcM0qliTd+xepJH1XCZhNnCT8J8B/DfyXwJvA/Cwv/N0hSXdh5UrSvQLW3PQsT88sorJ1NMuLU8C5ak950KWSJMOVpMa0ExdB/yXwQ+BLoun9/SwvTuLoBkkyXElqSP2uwg6iB6udGN1QBvYRoxu+Ba64VJIMV5LUuKeBZcR1OvuA94APs7zYQ8zGGgZGrGRJMlxJ0sSMH0L6AjHx/QXgAPApMcLhgsskyXAlSY2r31f4PLCN2C6cQzS9XwCuEUNIrWJJMlxJUgM6gJXAP0oh6ygxgPS3QBVwNpYkw5UkNWgmsJo4WbgGWETMy9qTThVerPaUb7hMkgxXktSYEjHl/UfAVmAH8Hvg0ywvDgMD1Z7yqMskyXAlSRPXDsxLTzvQCTwL7Af2Z3lxrNpTtuldkuFKkh7AEmL46HbgBPBr4A9ZXnxDNLzfwdENkgxXkjRh9dENM4nLoAGeAQ4SYxt2A2eAWy6VJMOVJDVmFrAZWAu8nP7sAvZleVEFbgJD9mRJMlxJUmNmE6Mb3k4B6xCwE/go/bMXQksyXElSg2YSV+k8TYxwWAnMBZZleXGCmPJ+vdpTHnGpJDWLNpdA0hNiEfAK8F8A/w3wj4GXgAVZXvi7SlLTsHIl6UkxfnTDYmLi+1JifMOheiWr2lO26V2S4UqSGjSTuEJnLfAW8DnwPvBlanofAUYd3SDJcCVJE9OWAtZMogerA1gGbAT2Eg3vp4A+l0qS4UqSGtNBzMZaDWwC9hBVrB1ZXhwDrhPzsaxkSTJcSdIElNIzkzhNOAvIgFeJOwu/BvZVe8pXXSpJhitJasxMYEV6nk1hawlxovAYMbrhWrWnPOxSSTJcSVJjuoCtwCrgDaKK9QnwMXDR5ZFkuJKkxn9/zU/PCmAhMStrSZYXB4iG90vVnvKASyXJcCVJjZlBNL2vALYD3wC/Ar7K8uI4cBuo2fAuyXAlSRMzfnTDAuLewjnAc8A+4ABQ4OgGSYYrSWpYibircDlxfc5B4HfAh2nK+zXglvcVSjJcSdLEw1WJqGY9RWwZziea3/cSje9fAb0ulSTDlSYkq9TqHyxUu0t+O9dUNo24p3AxMYB0A1HRmpHlxRGiinW92lMedKkkGa50L21Ev0kNe0ykupnEXYXzgS3AfqKC9QlxnY4kGa50V7OBF4GurFK7SAxWvFTtLg25NJri5qRnNTHlfSkxgHQZMbrhQrWn3O8ySTJc6bvmAu8ALwDnScMVs0rtHDBY7S55HF2K7cF3gM3AEeBvgA+yvDgJ9Du2QZLhSt/9e10IrE/PauAZYhvkaFapnap2l665TJrCSkSje73ZfQGxnZ6loHUoy4sD1Z7ydZdKkuFKEL1Ww+mDIwM2Ai8Du4CPiCrWEaCfGK44ajVLU/z9Mh/4cXqfHAfeB9qyvDgK3EjvpxGrWZIMV35gtAEdKWStYOzk1PPEYMVdwKFqd+msy6UprD66oWPcM5Oo+O4FdgO7qz3lUy6VJMOVakB9FEMb0WOyNIWrF1Lgmp9VaruJmT8DwLBVLE1xc4kDIZvSn88AXVle7ErvkxvAoFUsSYYr1U0DuoherPkpZO0BPiWOpZ8H7rhMEm1E9Wp2+kJyBPgsvU/2EluFkmS4EhBbIF3pWQmsAhal53BWqVWBC9XukoMVNdXNTgFrNTEjqz6QdEm6Suc8cNOrdCQZrjReR/rgWAhsT9/IPwZ+m1VqRbW7ZBVLCguAN4jLoH8OfAj8ihhAesXlkWS4Ul0bMCs9S4F5xHbhImB/VqmdBE5Uu0uXpsBalIhtU+luvy8XpGdFes/MBfZmeXEIKICL1Z7yqEsl+ctCqqsRF93Wrwc5SlSxfp9Val8AQ0SDfK1Fm95H0894J4Wski8J3cUMYvjo2hSqviKqWDuzvLgK3AJGbXqXDFdSKb0mpgOdxHH0OURP1lZi0vt+oFWrWFeAL4it0nXpA1T6U+pjTjqIOXJzgGXAK8BO4ABwgpgjJ8lwJf29eUQFaz3wA8a2Qo5mldolWm90wyXgd0R1bjj9vPWQ6Xah7qYT2JAC+Q+I0Q2Lgc4sL84AN4FbNr1LhisJxoYrdhLVq39AHEk/CnxNTLGuEtuJreA6Ubk6DXwCvAS8Smz/LPDloHu8T0gBfBnwdgpaP0mvp8+IStYNl0qaWr8U1EKySi0DeoB/lL5Fz3qI/+9HgLNEj8mviUnv54jhijdbpYqV5UUnUbV7C3g9VSaWENW8dl9lmoAB4Mv0JeQr4Nv0PrlR7Sm7XSi1MCtXatQ0oun9R0QVaz8xgPSjFLRaZTbWYPp5zqafbSvw50Q1axnRcyPdy6z0unk6vV++Ad4Ddmd5cd5tQql1WblqQY+4cvVdl4m7175OHx4Fsa12odpdaokj6VleTAPWENs924gTYmXiUuwOX3GagAHgGPB5ep8cIi6IPlPtKd9yeSTDlQxX490hjp33E/1XHxLbIJ8TWyA1mnx0Q5YXJWIrcDaxNbgR+AUxSHJ5Wt+S7yfdwyhxSGKQ2EbfTRye+CD9+yBQc3SD1BrcFtTDeA3VRzd0pRDyFHHCcB9wMH14NG2PSfrAuw3czvKij3RxL3HUfitxwe+zxEBJ6U8ZP7qhMwX1LqIiuo+xStZ1l0pqfn7TbkHfc+VqvFr6hj5A9Cp9BvwdcTH0GWJA53AzbxemKlYpfVjOIa5DeSf9WU7/WYdfXHSf90mNqGRdJubHfZKebxkb3eDVU1ITVx2khxnWpxEVnNXEEM5VRPVqN7FVeITYRmxKqYpVD5HXsrzYQczH+gJ4MYWsF4imd+lu75NSCuH1waPLiNOpe1LYOpC+oEhq0je5WsxjrFzdzdkUrt4jjqRXiWnoN6vdpZY4MZXlRTsxruFnKWBtIu5n7Eofor7XdC+jRMXqCNG3+HkKWlfSfz5kP5bUPKxc6fuwmBjGuQZ4lxht8Fn68LjaCj9gtac8nOXFceDfEycnnwN+CGwnThXO9GWge6hvM29I75etwN4UsnYCp4htdUlNwG/TLegJrFyNN5DCx1fE9se3RD9Wb7W71BJH0lMVa0UKVtuJ7cI1xNZPp+87TfB9cioFq50paBXE6AZDlmS4kuHqj9Qb3q+nUPUlcRz9q/RhQrNPef8Toxu2AW8Sc7LWpIDV5vtP93mf3CZOpfYSs7E+IA6InATuVHvKoy6T9GRyW1Dft/r2xxxgYQoai4lRBnuBY1mldrbaXWrae9jGj24gmt6HiO3PKtHsviGFrKUGLN3jfTIzPQvSn11E9fMAcCzLi2+rPeXLLpX05PEXewt6witX49WIuwqHiKnuu4E/ENuFx4lG3mGaeAhpqmK1EZWsuUQv1lvp2QzMJ05VTvf9qHu8T+pDSG8SM7E+Ig6IfE2cvr0DjNj0Lj0ZrFzpcYf76UQV6xliG205cX/fzhS2Dla7S007WDF92I3UQ2SWFyNAH3EqbBOxZbgp/fy+H3W398m09MxMr5e5RLV3e3qv7Ce22Q1X0hPyplWLaaLK1d1cInpMPiYuhT5O9J3crHaXmn6wYqpmzSIu9H2TqGL9IAXLuUQly4uhdS81ouJbJSpYHxKT3i8QNwjctidLenz8pqwn0UKiorMyfTPfRQzp/DwFr6aWqlkDWV5UifvljqSfb3sKWqtwdIPu/8V4FjHm45dENesQcTDkY6LpfdBlkh7fG1QtpgUqV+MNpg+NL4k+kwPp2/nVanepJT48sryYToxueImYjbWJmHC/HJjnK1oTMEIM691FVLH2E3dfnqv2lL2vUDJcyXD1R0ZTwOoDzhN9WL8hGnlPVLtLwy0QruqjGzpTmHoOeA34OTFM0gnvup/6XYX9xJiTw0Sl9zcpcDnhXfoeuS2oJ11bCh2dxOiCBemf1wAHskrtKHCqhUY3XM3yoi99QF4jtgzXEJWszJCle3xRnpGeBSmkdxGnUdcCR7O8OFHtKZ9zqSTDlfTdoLUyhaxXiO3C3wHvZ5XayRRIRqrdpWZv5L1OnAA7RIymeA348bgPzvrJMYOW7qaL6FvcCPwovY4+yPLiixTa7wCjVrMkw5VU3z5rJ6o4s4nTdRsZG91wIH14NK1qT3n86IZB4lTYOaKPZnN6Mpp7u1eP1vjRDR3pd/1q4lTqrvR+OUtsJUp6BB9WajEt1nN1L7X0DKQPiw+B94mttBvAQLW7dLvp/z6jJ6uDmGRf78Xalv5uO9P/zdENut975TZwOb1P/oYY3XCW6NO65egG6eGxcqVm/3JQIoaQvgAsAl4G9hCjDXYSR9KbWtq6Gcry4jwx9+s0sD4FrHeJyt0MXw66z3ulA3iKOJGaERdB129FOEhMepf0kN5wajFTqHL1p4ykD42Pgc+ILZDzwJVWGd0AkOXFYmJkwy+JrZ6niUui5xHbQdL99BJbzb8m5mOdJubIXUtb05IekJUrtZppjA1W/AFwFPg74MOsUjtZ7S4NtcjPeY2YYl8fRPo6MYD0VeKEmHQ/84AtKZj/hBjd8FEKWldcHslwJY03Kz3LieGcM4gThoezSq0Aimp3qa+Zf8BqT/kOcarwetou7EtVh1PEluGq9PN3+HLQPX7/z0vPcuKE4WJgVZYXR9Jr6Wy1p+x2odQgtwVb0BTfFhyvfmnyUAoix9M38/+XaHrvpwVGN2R50ZZC1Cxia/A14B2ikrWaaHYv+X7XPYwSDe+DKaR/Afyesat0RoCaoxukiX9zkVr5y8N0ouF9DjG2YTZRxdpFNL4fJXqymlY65TUIDGZ5cZ2YYXSF6D3bTPRmrSJOFkp/ShsxtmEmUcmaTsxUK6f3yX6iknXTpZIm9uGjFmPl6q5q6Rv6CLAXeC99M9+XwsggMFztLjXtt/M0tqF+MmwJ0VNT7z9bnQLmDGx6173VK1mXUrj6FdGLdYIYc3Ibh5BKd2XlSlPty0R9uOL69C19C3EP26dENatI4asppQ+7GlHFOjfuA/IL4EVgO1HN6vLloHuoV7KWE0N7FxGHJfYSl6h/U+0p97lM0t0/bNRirFw17Bwx6+fDFLDOEqfxBqvdpZY4kp7lxQLiQugfA28CzxKVrXolS7qfa8Q8rA+Iim+RgvuNak/5tssjjbFyJcUJqfowziJ9M/+A6Me61iI/Yx/RN3M+hcg3Ush6mThR6Rct3c9c4HlgGTGI9LMUsnZkeXHWCe/SGH+htiArVw+sRvRe7SG2Cb8htgzPAVdbqIpVIrYGX2Hsct9niOndNr1rovYAXxPV3oPEadwL1Z5yv0sjw5UMVxofruqjG24Ql0B/RtxXuJeoYjV1w/u4cDWTODlZHyT5S2IQ6Xqix8bfD7rfe2WIuNezLwWtv03vl8PAsM3umsrcFpT++MvG+NENHcRWyHLi7sKDwLdZpXa6mS+ETh96g+npzfJikLhX7mQKWuuI0Q0LDFi6x3ulPqx3UfpzBnEidTdwMMuL49WesqMbNGXfIGoxVq4emlFiZlQ9eNR7TL4ktgqHiEpWsw8hnZZC5TKi6f1HjFWxFhKVrDZ/X+geRtJ75QJR8f0tMbD3BDHA10qWphQrV9LdtaVv4zOIYYod6Zv5y0Q/1m6i6f1GM/+Q6ZLekSwvzqTA2Etsg24DthIjHJYarnQP9REnK4gt5/npdfMZMR9rHzDsMmmq8JdlC7Jy9UjdTuFjJ3Hq7osUsPpordENncRW6GvA28AG4lTl3PTh6e8O3U8f8Alxjc4fiEvG+4DbnixUq7NyJTVmRgoZrwIZMfl8RwpaB2mR0Q3VnnJ/lheHgMtEhe7F9DO/DKxlrOldupu56f3xFNHL93EKWlWiQiq1LL99tiArV9+rXuAQYwNIC+AMcLmFqljTgTXASylgbUn/Xh9CKt3LSHqffElcObU7vU8uVnvKhiy1JCtX0uTMI2ZGrQHeIeb+vAd8lFVqV5u92X3ch2MVuEr0mm0AfkYMIV1HnKyU7qaNOHn6FjGE9PP0HvkDMRtLMlxJ+k/eQ3PTszD9OZ8YZXA0q9ROAMer3aWm/YaeTnkNAUNZXvSmkHWLqNBtSmHr2fQB2uZLQt9RIraR56dnGlFNn5flxVfAvmpP+ZrLJMOVpD9lBjG+YBVR1ak3vf8uq9SOE6elRlugmtVLXA+0mzhF+UPg5+lnX5Q+SKf5ctBdrEwhq5xC+UiWF3tTgB9xZIMMV5LGa0tPO3GNTDvR/L6O2E77EjgGNO31IOmDbyQ957O8GEo/z3GiirWZGOGwypeD7vG5My+Fq/r75QPiZOE5HNkgw5WkewStlcRgzs3EWIM5QFdWqZ0kBisONHvTe7WnfC3Li93EHKNvgG+Jye+3iW3CTmI+mIdn9F2dxJbyU8ThiBFgV5YX54DBNH9NMlxJ+iP163Tmp4A1j5h+foDYLvwyhaymlqpZd7K8OEVs7ZwgGpe3E0fxn8NtQv1p7USv4mvpy8cH6TlA9PZJhitJdw1ZC9OzntgmnAvMzSq1Y8SVIVeq3aVbTR6yBolrgk5meXEUuEj0Z/USM8GWpGqFTe8arz7ZvV7pnAnMzvJiP3C52lO+7RLJcCXpXmYRvSYLiaPpXxG9Jh+lC6FbZSvkMlGd2w/8HfBjoul9HVHBk75rJmNXLa0ixjX8jujDkgxXku6qDZidnpWMjXBYDhxIoxtOV7tLTb1dWO0pD6eAdTnLi9NEH1YfsUW4Nj3eV6jxSkBXek/UG93vpHENx+3BkuFK0kTUiAn6y4A3iKbw94APs0ptL9EUPlrtLjX70fRB4oqgQ4xdGfSXxMT3eelDtM2gpXEyoso7O4Wtv87y4hIw6qgGGa4k3e+b+oz0dBGn6jpT4Pomha2jRM9S00qX9A4Cg1le9BOjG66nwPUCUc0q+/tI33lfLE1BfBqxZfgZMVvNHiwZriRN2GLg9RQ2XgZ+S/RiHQGuECfx7jR5JWuIGNdwjLgG5U2iH+sOsTU6O32w2vSu6USje2cKWnOAG+lU6qAVLBmuJE30G/t0ogfrufShspmoYO0AvgDOE9uJTSl9INaA0TTP6GPihOFnxOiG7cTso9m+HJRC9jxgIzBKVHj/AzHGxB4sGa4kNfyB8iJjoxvq3+APZJXaOWJbbbCZq1ip6b0KVLO82EecCrtOVOnWpJBZn3Qv3w9bUri6CfRneXG82lO+4fLIcCWpUR1ED9Z8YqtwFzFk8Utie+1Wi/ycN4mxFKfSz7cNeJfoyfJUoSD6rlYBf0HMxPo3WV7sSj19kuFKUkPqoxvqgxbnEicM96TRDeeAq01exRolKlZXsryoEtuffcS09w3AauKalBm+HKastvTafz59dvUCbVleHKz2lG+6PDJcSXpQy4iKzlbiJGH9wts9WaXWB9RaZHTDIaKK9VH6WX8K/JCoYs1M/z2rWVNTB/As8E+IreN/neXFIWDEJncZriQ9iHZii3BeejqJmUAbgMNAkVVql6rdpaY9rp6GRdZHN9wgtgyvAUeIBv/niErWHF8OU1Jb+rtfS4xl6CMmue8kTqNKhitJD2wBcbpuI9Gj9AVRydqfVWpn0gfPSLW71Mw9KcPE1mCVqNC9SVTu3iCa3uujG7wYemopEUNGN6Y/O4CrWV4cB25ZwZLhStKDfriU0rf4RURFax5xunB3+ha/mxhz0LRN7+lDciQ9l9NVKL3pZ9tMTHnfQGwXauq9BzpTyP5p+s/+ljjsMezyyHAlabIfMvVtwg3EtPNVRGXrmzS64SrQ3+z9WNWe8tksLy4QF0IfBi4QW4YvMLZNOgP7sabSa392+vvvJLaTr2R5cbLaUx5weWS4kvQwtBE9WJ2M9WF9SQzp3ElMQm9q1Z7ySJYX11PAukhcFbSZ2CLdAjyNpwqnmvqYhl+kz7W/Ag66LDJcSXpYZgEr05MBS4hTVQuzSu0UUe25Xu0uNW3QSqMbrgHXsrw4D5xOQessUcV4hrhOx5A1db5UzAU2pX8/neXFIHC22lP2LkIZriQ9VPWm93XEHX4fA+8RV+pcbJGfcYAYqHqOaOp/CXgb+BlRxWrDbcKpYi7Rd/gP0+fbX6fALRmuJD007enpIpq+ZxMN8M9lldpBYlbWhRYa3dCbwtZ1okK3kWh4XpOCplrbNKJK+xKxBX41HYI4mV4nkuFK0kM1k+hNWkeMMtgJ/ArYmVVq51NAGWmBIaT1LcKviWnePwR+QoyraE8fwFazWlcbsSW8nZh7NY3YPr7mVTkyXEl6FB86M9Kzlmh6X0rcWbgD2ENUspq5F6uW/vffAQayvBgmhkweI5rdtxJDSJf5cmhZpfTZtgR4HegHzhAHIC67PDJcSXpUZjG2XfYiMfF8ETAzjW64CQxWu0tNvZVS7SlfzvLiCnFybCfRh3WdaHxenAJmewqeai0d6fW9nei7up3lxU0cMirDlaRH/A0f4kLkt4j72t4GviLGN3xDVH2aWtoKupmmd/8NsJeoXr1KVDaeTh/Eas3X+Bqgm9giPENcCu4JQhmuJD1S7cCK9Gwk+lUWE6MbjqYPo75qd6mpp15Xe8r9wNEsL04ABWkkBTG6YTWxjdTpy6HldBG9hmfS8xFxc4H0yFgKlzTebKI36Z8C/x3wL4BXgMVZpdYqvy/uENtEvwf+J+B/JSpaBVY0WtlrwD8HXs7ywkqlHikrV5K++4WrKz0rgfnEltk64GiqZFWbfHRDjbhv8RZxX+FNYvvzPFHhKBPDV72vsLUsIA40/Azoy/Liq2pP+brLIsOVpO/TNKJfZTnRi3UA+I/A79PohiFgtAVGN1wktop2En1n76Sf9xViKOU0xi7KVnPrBP6MODHbm+XFHmDUBncZriR9X0qMjW7oBOYQ24brgV3ElPdjxMnCplXtKddHN/SnK1NuEz05O4kt0i3E6IZpviSaXjtRkX05BegR4BBuB8twJekxmJYCxlLgB8Q1Ou8Dn2eV2nHgBjDUzPcVJjeJU5KHgE+JKtYgMYx0WQqXM7CK1exfGJ4mBsvWt4YvppAtGa4kfe8fTNOI3pVXiO3Ct4gq1ie0wH2FaXuoRgwgPQP8AThFDF3dQlQ71hEVEDWvLqJ6dYMYnDuc5UWvE9xluJL0OC1Lz1aiL6uLGN1wAOglRhzcauZ+rGpPeRg4keXFSca2QG8BV4mtpYXEdqnbhc2nPX052JYC8wBxqOGWSyPDlaQn4XfIWuJU4WvEJPT3iSGk1Vb4sKr2lGtpyvvXRBXrD8CP08/7AtGL5jZhc1oF/EX6MnDIcCXDlaQnxZz0rCAqOnOJqtbe1I91rtpd6m/ygDVMVKyuZnlxgah0XCHuqttCjG4wYDV6/gaeAAAeCUlEQVSf+gGNN4DDWV58We0pX3BZZLiS9CT9PlkJ/JKxy6A/Bj7MKrVTRLN4K4xuuAF8TlSxviW2BTP/+pv6dbuNGC1yK8uL39l7JcOVpCdFG2OjG+amPxcRPVn7iG2XYzR/0/sIcVfhBWLwaL9/9U3/ul1GnILdD1SzvDiVrkuSDFeSnhgl4rj7slQV2EdUsT7OKrX9wDWiv+VOE1ey6kHShvbm10Fsa79K3Dk5mOXFgMNFZbiS9KSFq2np6QBeJJren0vVgR3pz+PE6APpcb9eZ6UvAv3AEeBslhfDBiwZriQ9qRYRowvWA5tSlWAR0Jmu0umjyUc3qCUCVga8lJ7zRF/dkEsjw5WkJ706sIq43+15YpzBZ8QQ0qofZHrMr0+IWwj+jLgS5//xNSnDlaRm+ACbnZ5ljFWwFgIHskrtBHC22l3qc6n0mMwhxmtcAr7I8qIfGHR7UIYrSc3y+2cFMI84qXWAuM/v16np/Va1u+SReD2O1+ViYgt7CzFg9CQw7NLIcCXpSVe/RHcGcV9hJ3GNziJgD1BkldqxanfptEul7/l12Q6sBn5ONLhfMFzJcCWpGS0gho8+D5wgqlh/yCq14VQ9GKY1hpCqOSwBfkpsD+5IoxlGXBYZriQ1k/rohplENWsWcXprK3Gv307gLOAHnL6v1+NCYnzI68CdFPolw5WkptQJbCSmu29LIWsW0fR+nriCZsgqlh6xEvAM8C5wOcuLc8Btm9tluJLUzDqIU4XvAmWgICpY7xGDHu2D0aO2DHiTuL5pL3F9022XRYYrSc2snahcZcAG4lqdDmB5VqmdTh921zxZqEekk6hebSVuFfiSJr8fU4YrSRpvATG2oQx8SzS9fwh8nVVqfW4T6hFpI8Yy9ALnDFcyXElqtd9Z89KziBj4uCSFrSNZpXYSuFDtLg24VHrI4Wol0f/3fpYXR4F+Tw/KcCWp1XQSWzUbiZ6sT4DfA+8Dhis9TKUU5FcTo0KOEP1//S6NDFeSWkkbMbZhZvrgq49yOAiccXn0CF5vC4C3iYvGLxmuZLiS1Oq/y54lTnEtdDn0iHQQPX99wEdZXvQCw45m0J9K4pLUKr/P2v29pkf8GqtvD24mTq5apJDhSlJLGwGsIuhRKaXPzSXAdmJ6e7vLIsOVJEmTsxB4izg92OFyyHAlSdLkzCQGi24EVmd5MTfLi5LLIsOVJEkP/tk5i+i9egVYQWwZSoYrSZIm8fm5GvgxsNblkOFKkqTJW0o0tq8HZro1KMOVJEmTMyMFrIwYyzDLJZHhSpKkB1dKgeoZ4EVigrtkuJIkaZKfoxuBd4jqlWS4kiRpEkrEacFtwIosL9rtvZLhSpKkyYWrOcAqYCUwj7hAXIYrSZL0gKYBXcSpwedS2JLhSpIkTcJ0YBPwKjDf5TBcSZKkyWknGtu3AJ0uh+FKkiRNznRgOTGt/aksL2ZmeeFnrOFKkiQ9oFJ6FhEzr9YQQ0ZluJIkSZMwl2hqLxuuDFeSJGnyZhFbg88QfVgyXEmSpEmYSVStysBsl8NwJUmSJqeDuAZnDbAgy4s2J7YbriRJ0oMrEScHFwHPAkv8rDVcSZKkyesiGtuf9rPWcCVJkiZvPrCBuNTZbUHDlSRJmqQuYmJ7hqcGDVeSJGnS5hCVq1V4atBwJUmSJm06sTX4FHEdziyXxHAlSZImZxRYQJwanO9yGK4kSdLklIhRDBuI0QwyXEmSpElaargyXEmSpIenPkx0gUthuJIkSZNTIk4NrgC6srzwM9dwJUmSJmk6UbWaC8xwOQxXkiRpckrATGJ7cEmWFw4UNVxJkqSH8Fn7FLAa6HQ5DFeSJGnyn7WLiN4rh4kariRJ0iSViCGiS4ktQhmuJEnSJD9rFxJbgx0uh+FKkiRN/rN2QQpXVq4MV5IkyXAlw5UkSU/WZ+0cYDHOujJcSZKkSSulUNVluDJcSZKkhxewOoDZWV7MyPKi5JIYriRJ0uQ/c+cRg0SnuRyGK0mSNDnTiK3BLj9/DVeSJOnhfObOTo+VK8OVJEl6SGougeFKkiQ9nM/cWemxod1wJUmSJqkdWJKedpfDcCVJkib/mTsHmIs9V4YrSZL0UD5zZxBVK7cFDVeSJOkhKPnZa7iSJEkPl6cFDVeSJEkyXEmSJBmuJEmSDFeSJEkyXEmSJBmuJEmSDFeSJEmGK0mSJBmuJEmSDFeSJEmGK0mSJBmuJEmSDFeSJEmGK0mSJMOVJEmSDFeSJEmGK0mSJMOVJEmSDFeSJEmGK0mSJMOVJEmS4UqSJEmGK0mSJMOVJEmS4UqSJEmGK0mSJMOVJEmS4UqSJEmGK0mSJMOVJEmS4UqSJMlwJUmSJMOVJEmS4UqSJMlwJUmSJMOVJEmS4UqSJMlwJUmSZLiSJEmS4UqSJMlwJUmSZLiSJEmS4UqSJMlwJUmSZLiSJEkyXEmSJMlwJUmSZLiSJEkyXEmSJMlwJUmSZLiSJEkyXEmSJBmuJEmSZLiSJEkyXEmSJBmuJEmSZLiSJEkyXEmSJBmuJEmSZLiSJEkyXEmSJBmuJEmSDFeSJEkyXEmSJBmuJEmSDFeSJEkyXEmSJBmuJEmSDFeSJEmGK0mSJBmuJEmSDFeSJEmGK0mSJBmuJEmSDFeSJEmGK0mSJMOVJEmSDFeSJEmGK0mSJMOVJEmSDFeSJEmGK0mSJMOVJEmS4UqSJEmGK0mSJMOVJEmS4UqSJEmGK0mSJMOVJEmS4UqSJEmGK0mSJMOVJEmS4UqSJMlwJUmSJMOVJEmS4UqSJMlwJUmSJMOVJEmS4UqSJMlwJUmSZLiSJEmS4UqSJMlwJUmSZLiSJEmS4UqSJMlwJUmSZLiSJEkyXEmSJMlwJUmSZLiSJEkyXEmSJMlwJUmSZLiSJEkyXEmSJMlwJUmSZLiSJEkyXEmSJBmuJEmSZLiSJEkyXEmSJBmuJEmSZLiSJEkyXEmSJBmuJEmSDFeSJEkyXEmSJBmuJEmSDFeSJEkyXEmSJBmuJEmSDFeSJEmGK0mSJBmuJEmSDFeSJEmGK0mSJBmuJEmSDFeSJEmGK0mSJMOVJEmSDFeSJEmGK0mSJMOVJEmSDFeSJEmGK0mSJMOVJEmSDFeSJEmGK0mSJMOVJEmS4UqSJEmGK0mSJMOVJEmS4UqSJEmGK0mSJMOVJEmS4UqSJMlwJUmSJMOVJEmS4UqSJMlwJUmSJMOVJEmS4UqSJMlwJUmSZLiSJEmS4UqSJMlwJUmSZLiSJEmS4UqSJMlwJUmSZLiSJEkyXEmSJMlwJUmSZLiSJEkyXEmSJMlwJUmSZLiSpKZRA0bTU3M5JBmuJGlyRoDb6U9JMlxJ0iQNA1eBI8A3wFngBlHJkjSFTXcJJOmBDAIngb8C9gJvAK8BW4BZLo9kuJIkNaDaUx4B+oD9WV6cAa4Al4BzQBl4GpgHTHO1JMOVJKkxN4AvgcPA74C3gH8IbAIWYwuGZLiSJE1cqmLdAG5keXERGEr//jywPv2ZYRVLMlxJkho2DBwEjgHLiR6svyB6shYR/VjTsJolGa4kSfdX7SnXUsAazvLiBNH43gd8nYLWZuA5bHqXDFeSpIaD1jBwOjW87yDGNlwgtg1XAXOB2UC7qyW1DsvSkvToQ1aNmIn1NfBvgH8F/O/AZ+k/19RScglam5UrSfp+AtYocBG4mOXFYeAM0AtcJk4VLgcWAB2uVsuqERP9R/DKJMOVJOmhuk2MbTgPfAy8SIxueBVYiduErRyubqXHcGW4kiQ9LGmbsB/oz/LiHFHBGgZOEc3ua4meLJveW8sdYhv4avpnGa4kSY/IOeBvgK+IKta76Xka6CT6Y+2RbY1w1Zsew5XhSpL0KKQq1h3gZpYXg8RJwmvErKxtxPiGdUQ/lppbjbjYe8SlMFxJkr6foDWS5cVZopL1ZQpY54g5WeuB+cRWoT1ZzetOeuy5MlxJkr6ngFVLH7wDWV7sJS6E/hx4AfghUcla5Uo1bbC6nB63BQ1XkqTHELR6gd4sL/YBR4kK1hWiL+spYqtwJvZjNYvbRDN7H7E9qBblG1KSnvyQNQqcBv4/4H8B/keiAf4Ycb2Onmz1LcDB9IymCqValJUrSWqOgDUEnM3y4kIKWteJoaSbgDKwGpiH07+f1HA1SFSthgxWhitJ0pNllOjZeR/YBWwA3gB+QczImpt+txuynqy/syvE0Nghl8NwJUl6gqSqx3B66uMb+oCzwOb0rCMmvRuwnpxwdRGoAgMuh+FKkvRkuwZ8A+xJoeqnxKnCrcBiYnTDdOyxfZxGgAvASWIyvwxXkqQnVWp2HwXI8uI48HfEfKy1wGvAy0RPlhdCPz6j48KVlSvDlSSpiYLWAHAIOJTlxU6ix+c6cIO4SqeLsUqWvj/D6e/CcGW4kiQ1savAJ8AJ4AvgJeB1YutwkcvzvRoEzqRwZUO74UqS1IyqPeUR4EKWF5eIK3TOEU3VW4CNwApgoZ8Dj9xAfe2rPeWbLofhSpLU/GrE6IYvgX3E6IbXgLeJi6EXAjPwZOGjWvsLwP70dyDDlSSp2X1ndMONNLrhZvrQP0zMxioTPVmzXLGHqkQMfP2KGJUhw5UkqQXdJCpYR4kLoV8D3kp/ZsRdhe04umGyasTlzCdSuDrnkhiuJEktKI1uuA3czvLiBFHROgPsJgaQbiGa3he4WpNyi+hxO47zrQxXkqQpE7RuAceyvKgSQ0gPEduFfcR24Rxiq7Ade7Ia1Uf0Wh0FrlZ7yndckqnDsq8kGbKGibvvdgH/DvjfgP8D+Iyovoy6Sg27CHyQApbBaoqxciVJIlVWeoHeLC/OAqdSQDgHPE80vC8ierJ0dyPE0NYjRK/VKcOp4UqSpD7iCp3TRPXqB0TT+xvEfCxPFd5df1q7r4Fvgeupz02GK0nSVJUGkPYD/Vle9KZ/7gWqRBVrLfAM0ZOlUEvPJeAj4FPgsr1WhitJkr7rDnCMmNP0FXGi8EfAT1LQmpaeqd7DO8rYduDvicqVV90YriRJ+mPjh5BmeXEz/fO1FLi2pGctsGSKL9UIsYX618DBak/Z0QtTmKcFJUmNBK3zxPDRfwf8n8CvgB3EsMzrxHynqdZjNERsmb4H/IY4CKApzMqVJKnRgHUHuJblxWHiYuJviC3CbcBWYBVTq+n9cApWnxPbp7d8pRiuJEl6kKDVB+zP8uIYMSzzNNHQ/SKwhrgUejatu0tSv6PxY+DXwNFqT9k+KxmuJEmTNkRc8XKVGES6mbE7C9cTpwpbbcL77RQof0tUrXYSIywkw5UkaXLSVuFgei5keXGdGN1wnrhGZzWwDFgMzGvyz576uIV9wCfA+8D+ak+511eCDFeSpEflInGicAewHHgZeImoaK0DniK2CkvjnmYIVcPEVuBu4N8SpwPPEn1nkuFKkvRopLsKh4khpH1ERatKbJ2tS08GrExBqxmu1LlMzLDaA3xJVK1OpcuvJcOVJOl7M0KMaTiVPnNWEH1YW4lK1nMpYM0CZqT/znQefxP8aAqItxk7Efkh0V91MP1nI/71ynAlSfpepX6sWgord7K8OE1srVWJCtBTxOiGZ4nerFXE1TqPe5TDMNGwvofYBjxMDE49lU5JSoYrSdITEbZuEz1ZF4kxDh1EX9YGYrtwffrn5SlgzQQ6iKpWe/r3h13Vuk2ceBxirDH/HFGt+jSFwPPpf7tkuJIkPdFh61aWF+eIe/kOEmMb5gALiGt11gBPA0vTkwFdD/F/wjBx+u8kUZk6CnxLzOy6TJx6vGqwkuFKktRUAYuYav734wyyvGhLIWcVUcVakp4VxEiHdsYqWuOf6cTpw1r6f1X/51FisvwgUaGqV6v6UriqjgtYxx2tIMOVJKnV1Ijq0YUUpKYD08aFqnlEdWseMH/cM+c74aquPkahviV5nRh6ei0Fu3rzev2RDFeSpNaRGuHrFa3/RJYX04FO4nqdznHPzLuEqxGiUnWNqFb1A/3VnrIn/mS4kiQphaUbRDVq/CDSew0krf2JRzJcSZI0bsSD9MRpcwkkSZIMV5IkSYYrSZIkw5UkSZIMV5IkSYYrSZIkw5UkSZIMV5IkSYYrSZIkw5UejxJ/fCWEJEkyXEmSJBmu9PjdAS6nZ9jlkCTp++PFza1pCDgK7AeWpr/ndmAabhNKkmS4UsMGgX0pZH0LbAVeBJ4F5rg8kiQZrtSAandpKKvUCuAE8DnwCvBLYABYB8wCZmAlS5Ikw5UmHLBGgVHgalap7QKuAV8DLwDbgU3ElqEkSTJcqcGgdQm4lFVqh4CDQC9wBVgPPAXMJypZkiTJcKUG3ASOpGD1BdGH9SbwQ2C5rwdJkgxXakDaKrwJ3MwqtTPA+RS0rgHPARlRyZrrakmSZLhSY+4Ap4gtwt3EicI3gTeI7cKZxBw0G94lSTJc6X6q3aUacAu4lVVq14mThFeIE4YvEJWsZ7DpXZIkw5UaNgqcBi4A3xCVq3eIStYWoItoeLeSJUmS4Ur3k6pYI8BIVqndAm4DN4DDxHbhSylkLTFcSZJkuFLjQesqMR/rWApYZ4lG+Prohi6gw9WSJMlwpcbcJK7PuQ7sJEY3bAfeBta4PJIkGa7UgPGjG4DjaXzDpfTvm4kqVn0IqSRJMlypQeeA94G9xBbh68CPiLsL3SaUJMlwpUZUu0u3iPENvVml1ksMH70AHCMuhF5DNL1Pc7UkSYYraYKySq2UgtVXwCHgQ+Bd4CdEX9bS9NpydIMkyXAl3c/40Q3EENIBYuJ7FXieGNvwKrDS1ZIkGa6kxsPWQFap7SdOFu5Kf94hqliLgDnEdTpWsSRJhitpggGrBgxlldppYIi4Rud5otl9O3GdTrsrJUkyXEmNhawh4iqd01mlVgDniaGkl4AMWAzMw6Z3SZLhSmpYL/ApcBD4DXFX4VvAD4AFLo8kyXAlNaDaXRpOAas3q9TqV+hcBs4AG4jRDYtwu1CSZLiSGjYE7AaOA18QfVi/IJrel+PoBkmS4UqauHSVzhDR9H4TGAAuAi8Am4jrdNZgFUuSZLiSGjYIHCZGNuwAtgFXiOnvy4jRDTOw6V2SZLiS7i+NbagBo+ky6FvEvYWfAK8BLxOjG+a6WpIkw5XUWNC6DZwFzmaV2j7irsJLRCP8s8TohrlEJUuSJMOV1IB+4r7CAvgtcYXOT4htw+UujyTJcCU1IDW9XwGuZJXaMeJy6H5iy3ATsIKoZM12tSRJhiupMTWi4f080fS+BXib6MdalQJWCUc3SJIMV9L91e8qJEY3DADXiV6sg8BWYCMxusGmd0mS4Upq0CBwDDhJVLH2Az8CfgisBrpwdIMkyXAlTUyqYo0AI1mldh74mhhAupcYPro1PQtdLUmS4UpqLGiNEGMbzgMHgCPEKIch4HlgHtGP1eFqSZIMV9LEQ9ZoVqndSAHrEvANUcV6m6hircJmd0mS4UpqKGDViEb361mldgqoAn3ECcPngaeBp3B0gyTJcCU1bBg4BfwH4Evi+pwfE5WsVcR9hZIkGa6kifjO6IarxDDSPqKa9TywAVhP9GRJkmS4khowSmwN9hLX6Wwixjb8eQpaM4F2HN0gSTJcSfc3fnQDUcnaC9wktg03E9PenwdWulqSJMOV1HjYuppVateJ6e7fAO8QjfAvAQuIhvcZeLpQkmS4kiYcsEaBwXQh9ACwh+jD+hHwOnGysN2VkiQZrqTGQlY/UGSV2nHgEFHB6iPuKsyI0Q2eLJQkPbA2l0BTNGSNEg3vvwP+Z+B/AP4KKIi7DGuukiTpQVi50lQOWMPAZeByuk7nGnCDmPC+npiPtciVkiQZrqQGZJVaidge3AHsA14AfkqMb3gR6CL6sUrY9C5JMlxJ9zZudMMg0fS+F7gNHCUmvW8jRjdkOBtLkmS4khrWR1SxdgPLiSrWdeAW0fDuEFJJkuFKmqjxQ0izSu0M8B5wjBjdsA14DViDpwolSYYrqeGgNQwczyq1KnAAOElUtrYAzwCLgblYxZIkGa6khkLWnaxS6wW+AL4F1hET3t8lThd24WgTSZLhSmooYA0Ts7F6s0rtAnCJGN1wFlhL3FW4FCe9S5LhSlLDbhJjG04CnxFX6LwJvEo0vTu6QZIMV5ImqtpdGiHuKBzIKrWbxBiHs8SVOi8Qze+rgE5XS5IMV5IaM0A0ux8DvgJeJnqxthPbhR1EJcueLEkyXEm6nzS64Q5wM6vUbgHDwAViTtY2YqtwHY5ukCTDlaSGg9YwcDqr1M4SE94L4s7Cq8Q2oaMbJKnFuU0hPZqQNUqcLNwJ/Gvgv09/fgH0u0KS1LqsXEmPLmANA1eAK1mldpLYKqxXsZ4lThXWr9ORJBmuJDXgFnGS8CzwCTF49E3gnRS0HNkgSYYrSROVtgnroxsuEVfo9Kaw9SKwHsiISe+SJMOVpAaMAqeIbcIdxFysXxKDSOunCqdjT6QkGa4k3d+40Q13skptgBjd0E9MfN9EjG7YgqMbJMlwJemBgtYl4FJWqe0H9hDbhXeI0Q0LiCnv3lcoSYYrSQ3qAw6nP78mBpBuJypZK1weSTJcSWpAanrvA/qySu0IcIaoal0FngOWA4twu1CSDFeSGg5ataxSOwZcBj4nerF+DLxBNMA74V2SDFeSGgxYA8T4hvNZpXYFuAmcB44DZWJ0wzyckSVJhitJE5dVaiVie/B94kThJ8BPgbeBtcB8opJVMmhJkuFK0n18Z3TDaWJswwDwLbFd+CKwGVjqakmS4UpSY0FrNG0RfkFUsdYRfVhDRNP7ImAWMAOrWJJkuJI0oYBVA2rAjaxSO0qcMNxP3Ff4OjHCYQ02vUuS4UpSw0HrBnAD+Dar1E4QA0gvE1uFTxOVrE68SkeSDFeSGnYO+A0xgHQN8C7wFtGX1enySJLhSlIDqt2lIWJUw/nU+D4EXAFOE6MbVhAnC71KR5IMV5Ia1E8MHz2a/txOjG54DlhG9GO5VShJhitJE1HtLo2kgNWfVWr9wDXgFDGyYTOwkahkWcWSJMOVpAZdBa4TJwp3E1Wsd4GXgCVEP5ajGyTJcCVpItKF0KPEENJjwCBwktgu3JpClvcVSpLhStIDBK1+YmzDceBACllXgFvENuE8YLZBS5IenA2t0tQMWSPEfYWfAf8X8K+A/5uY+t7nCknSg7NyJU3dgHUbuAhcTANILzPW+L4OWAksxKZ3STJcSWpYP7ALKIAPiSt0/iz9uQQb3iXJcCVp4tI24U3gZlapXScqWNeIE4bPE6MbnvV3hiQZriQ1bhA4AhwHPgFeBn5G9GguI6pY07FnU5IMV5Lu7zujG6rAHeJC6H3E6IYtRCVrjqslSYYrSY0FrRHgdFapnSUGkB4BLhA9WmuBLmCWv0skyXAlqbGQNZp6sXYC54BPiSrWT4EXgUWukiQZriQ1GLCIcQ2Xs0rtCDGyYQg4TzS7rwSW4ugGSYYrSWrYbWJsw78FPgCeA35O3Fm4xIAlyXAlSQ2odpdqwAAwkFVqF4lp7wPEluELRD/WSuIqHUkyXElSA0aAM4xdp/MWUcF6A1gNzMTRDZIMV5I0MamKdSc9A1ml9jkxumEXsBl4CVhPXKUjSYYrSWo0bxGVrM+JLcJLwA1i0vtcopLVjtfpSDJcSdIEklVUskaA/qxSO0TMxNqZwtVrxH2FK/z9I8lwJUmNB63rwPWsUiuAw8QohyvE6cKVwGKikmUVS5LhSpIaMETMxfqPwA5gE/A60fj+TApYkmS4kqSJSFuFg8BgVqmdJ/qwrgDXib6sNcRWoU3vkgxXkvQALgAfA/tTuHoLeJOoaM0FpuHoBkmGK0m6v1TFGv7/27tjloahKAzDb3BwEQcHQTG4ObhaUHBwdM8Pzd8QHUVB0SolUBFErVZQao3DuWI2k0FK4X0gW6c7lI+Tk++m5yUv63dignWbglazhNSAJclwJUkd/bwiPAdOgANikrVDXKWzmP6rXHqXZLiSpL+kC6G/gKe8rCfEbtYVsfjeS8863lcoyXAlSZ2D1hi4zMt6AFwTZaSv/FY3rOB9hZIMV5LU2QfR9D4GTokC0l2iumGbWHiXJMOVJLXRrG4Ahqm+4YGYYlXEFGsNWPW0JBmuJKm7R+AYuCA6sfaIxfd9YDn9xoV3SYYrSWqjKrJmdcMzMcG6B/rEPtYWsEEsvVvfIMlwJUkdvAFnKVgdEdOrQ+I6nRHw6RFJMlxJUkuN6oZJKiCdAnfE4jvEF4aSNDPuKEiae3lZLwCbwBIwqIps5KlImhV3EyTNvarIpsAQuCFeG0qSJEmSJEmSJEmSJP2Xb2xuK9zmrJYsAAAAAElFTkSuQmCC;" parent="1" vertex="1">
          <mxGeometry x="564.5" y="307.5" width="66" height="66" as="geometry" />
        </mxCell>
        <mxCell id="AcxdMaKK0mU5kZiv2lnr-35" value="Azure Managed&#xa;Disks" style="shape=image;verticalLabelPosition=bottom;labelBackgroundColor=#ffffff;verticalAlign=top;aspect=fixed;imageAspect=0;image=data:image/svg+xml,PHN2ZyB4bWxuczpkYz0iaHR0cDovL3B1cmwub3JnL2RjL2VsZW1lbnRzLzEuMS8iIHhtbG5zOmNjPSJodHRwOi8vY3JlYXRpdmVjb21tb25zLm9yZy9ucyMiIHhtbG5zOnJkZj0iaHR0cDovL3d3dy53My5vcmcvMTk5OS8wMi8yMi1yZGYtc3ludGF4LW5zIyIgeG1sbnM6c3ZnPSJodHRwOi8vd3d3LnczLm9yZy8yMDAwL3N2ZyIgeG1sbnM9Imh0dHA6Ly93d3cudzMub3JnLzIwMDAvc3ZnIiB4bWxuczp4bGluaz0iaHR0cDovL3d3dy53My5vcmcvMTk5OS94bGluayIgeG1sbnM6c29kaXBvZGk9Imh0dHA6Ly9zb2RpcG9kaS5zb3VyY2Vmb3JnZS5uZXQvRFREL3NvZGlwb2RpLTAuZHRkIiB4bWxuczppbmtzY2FwZT0iaHR0cDovL3d3dy5pbmtzY2FwZS5vcmcvbmFtZXNwYWNlcy9pbmtzY2FwZSIgdmVyc2lvbj0iMS4xIiBpZD0iTGF5ZXJfMSIgeD0iMHB4IiB5PSIwcHgiIHZpZXdCb3g9IjAgMCAxNy45Mzk5OTkgMTYuNDM5OTk5IiB4bWw6c3BhY2U9InByZXNlcnZlIiBzb2RpcG9kaTpkb2NuYW1lPSJkaXNrc19zdG9yYWdlLnN2ZyIgd2lkdGg9IjE3LjkzOTk5OSIgaGVpZ2h0PSIxNi40Mzk5OTkiIGlua3NjYXBlOnZlcnNpb249IjAuOTIuMyAoMjQwNTU0NiwgMjAxOC0wMy0xMSkiPjxtZXRhZGF0YSBpZD0ibWV0YWRhdGEzMTA3NSI+PHJkZjpSREY+PGNjOldvcmsgcmRmOmFib3V0PSIiPjxkYzpmb3JtYXQ+aW1hZ2Uvc3ZnK3htbDwvZGM6Zm9ybWF0PjxkYzp0eXBlIHJkZjpyZXNvdXJjZT0iaHR0cDovL3B1cmwub3JnL2RjL2RjbWl0eXBlL1N0aWxsSW1hZ2UiLz48ZGM6dGl0bGUvPjwvY2M6V29yaz48L3JkZjpSREY+PC9tZXRhZGF0YT48ZGVmcyBpZD0iZGVmczMxMDczIi8+PHNvZGlwb2RpOm5hbWVkdmlldyBwYWdlY29sb3I9IiNmZmZmZmYiIGJvcmRlcmNvbG9yPSIjNjY2NjY2IiBib3JkZXJvcGFjaXR5PSIxIiBvYmplY3R0b2xlcmFuY2U9IjEwIiBncmlkdG9sZXJhbmNlPSIxMCIgZ3VpZGV0b2xlcmFuY2U9IjEwIiBpbmtzY2FwZTpwYWdlb3BhY2l0eT0iMCIgaW5rc2NhcGU6cGFnZXNoYWRvdz0iMiIgaW5rc2NhcGU6d2luZG93LXdpZHRoPSIxOTIwIiBpbmtzY2FwZTp3aW5kb3ctaGVpZ2h0PSIxMDE3IiBpZD0ibmFtZWR2aWV3MzEwNzEiIHNob3dncmlkPSJmYWxzZSIgZml0LW1hcmdpbi10b3A9IjAiIGZpdC1tYXJnaW4tbGVmdD0iMCIgZml0LW1hcmdpbi1yaWdodD0iMCIgZml0LW1hcmdpbi1ib3R0b209IjAiIGlua3NjYXBlOnpvb209IjguMjQyNDI0MiIgaW5rc2NhcGU6Y3g9IjM0LjkzMjczNCIgaW5rc2NhcGU6Y3k9Ii01Ljg3NTA0NTgiIGlua3NjYXBlOndpbmRvdy14PSItOCIgaW5rc2NhcGU6d2luZG93LXk9Ii04IiBpbmtzY2FwZTp3aW5kb3ctbWF4aW1pemVkPSIxIiBpbmtzY2FwZTpjdXJyZW50LWxheWVyPSJMYXllcl8xIi8+JiN4YTsmI3hhOzxnIGlkPSJnMzEwNjgiIHRyYW5zZm9ybT0idHJhbnNsYXRlKC01NS44NjAwMDEsLTIwNi4xMSkiPiYjeGE7CTxkZWZzIGlkPSJkZWZzMzEwMzUiPiYjeGE7CQk8cmVjdCBpZD0iU1ZHSURfM18iIHg9IjU1Ljg2MDAwMSIgeT0iMjA2LjExIiB3aWR0aD0iMTkuODA5OTk5IiBoZWlnaHQ9IjE2Ljk4Ii8+JiN4YTsJPC9kZWZzPiYjeGE7CTxjbGlwUGF0aCBpZD0iU1ZHSURfNF8iPiYjeGE7CQk8dXNlIHhsaW5rOmhyZWY9IiNTVkdJRF8zXyIgc3R5bGU9Im92ZXJmbG93OnZpc2libGUiIGlkPSJ1c2UzMTAzNyIgeD0iMCIgeT0iMCIgd2lkdGg9IjEwMCUiIGhlaWdodD0iMTAwJSIvPiYjeGE7CTwvY2xpcFBhdGg+JiN4YTsJPGcgY2xpcC1wYXRoPSJ1cmwoI1NWR0lEXzRfKSIgaWQ9ImczMTA2NiI+JiN4YTsJCTxkZWZzIGlkPSJkZWZzMzEwNDEiPiYjeGE7CQkJPHJlY3QgaWQ9IlNWR0lEXzVfIiB4PSI1NS44NjAwMDEiIHk9IjIwNi4xMSIgd2lkdGg9IjE5LjgwOTk5OSIgaGVpZ2h0PSIxNi45OCIvPiYjeGE7CQk8L2RlZnM+JiN4YTsJCTxjbGlwUGF0aCBpZD0iU1ZHSURfNl8iPiYjeGE7CQkJPHVzZSB4bGluazpocmVmPSIjU1ZHSURfNV8iIHN0eWxlPSJvdmVyZmxvdzp2aXNpYmxlIiBpZD0idXNlMzEwNDMiIHg9IjAiIHk9IjAiIHdpZHRoPSIxMDAlIiBoZWlnaHQ9IjEwMCUiLz4mI3hhOwkJPC9jbGlwUGF0aD4mI3hhOwkJPHBhdGggc3R5bGU9ImZpbGw6IzRhOWY0OSIgZD0ibSA3My44LDIxOS4yIGMgMCwxLjg1IC00LjAxLDMuMzUgLTguOTcsMy4zNSAtNC45NiwwIC04Ljk3LC0xLjQ5IC04Ljk3LC0zLjM1IHYgLTIuMjcgSCA3My44IFoiIGNsaXAtcGF0aD0idXJsKCNTVkdJRF82XykiIGlkPSJwYXRoMzEwNDYiIGlua3NjYXBlOmNvbm5lY3Rvci1jdXJ2YXR1cmU9IjAiLz4mI3hhOwkJPHBhdGggc3R5bGU9ImZpbGw6I2FkYzgwYiIgZD0ibSA3My44LDIxNi45MyBjIDAsMS44NSAtNC4wMSwzLjQxIC04Ljk3LDMuNDEgLTQuOTYsMCAtOC45NywtMS41NSAtOC45NywtMy40MSAwLC0xLjg1IDQuMDEsLTMuMzUgOC45NywtMy4zNSA0Ljk2LDAgOC45NywxLjUgOC45NywzLjM1IHoiIGNsaXAtcGF0aD0idXJsKCNTVkdJRF82XykiIGlkPSJwYXRoMzEwNDgiIGlua3NjYXBlOmNvbm5lY3Rvci1jdXJ2YXR1cmU9IjAiLz4mI3hhOwkJPHBhdGggc3R5bGU9ImZpbGw6I2NiZTIzOCIgZD0ibSA2My42MywyMTMuNTggYyAtMS41LDAuMDYgLTIuOTksMC4zIC00LjQzLDAuNzggbCA0LjA3LDEuODUgYyAwLjQyLC0wLjEyIDAuNzgsLTAuMTggMS4yLC0wLjE4IHoiIGNsaXAtcGF0aD0idXJsKCNTVkdJRF82XykiIGlkPSJwYXRoMzEwNTAiIGlua3NjYXBlOmNvbm5lY3Rvci1jdXJ2YXR1cmU9IjAiLz4mI3hhOwkJPHBhdGggc3R5bGU9ImZpbGw6I2NiZTIzOCIgZD0ibSA3MC40NSwyMTkuNTYgLTQuMDcsLTEuOTEgYyAtMC40MiwwLjEyIC0wLjg0LDAuMTggLTEuMiwwLjI0IGwgMC44NCwyLjQ1IGMgMS41LC0wLjEyIDMsLTAuMzYgNC40MywtMC43OCB6IiBjbGlwLXBhdGg9InVybCgjU1ZHSURfNl8pIiBpZD0icGF0aDMxMDUyIiBpbmtzY2FwZTpjb25uZWN0b3ItY3VydmF0dXJlPSIwIi8+JiN4YTsJCTxwYXRoIHN0eWxlPSJmaWxsOiMwODdlMDYiIGQ9Im0gNjcuMjgsMjE2LjkzIGMgMCwwLjU0IC0xLjE0LDAuOTYgLTIuNDUsMC45NiAtMS4zMSwwIC0yLjQ1LC0wLjQyIC0yLjQ1LC0wLjk2IDAsLTAuNDggMS4xNCwtMC45IDIuNDUsLTAuOSAxLjMxLDAgMi40NSwwLjQyIDIuNDUsMC45IHoiIGNsaXAtcGF0aD0idXJsKCNTVkdJRF82XykiIGlkPSJwYXRoMzEwNTQiIGlua3NjYXBlOmNvbm5lY3Rvci1jdXJ2YXR1cmU9IjAiLz4mI3hhOwkJPHBhdGggc3R5bGU9ImZpbGw6IzA4NzlkYSIgZD0ibSA3My44LDIxMS43MyBjIDAsMS44NSAtNC4wMSwzLjM1IC04Ljk3LDMuMzUgLTQuOTYsMCAtOC45NywtMS40OSAtOC45NywtMy4zNSB2IC0yLjI3IEggNzMuOCBaIiBjbGlwLXBhdGg9InVybCgjU1ZHSURfNl8pIiBpZD0icGF0aDMxMDU2IiBpbmtzY2FwZTpjb25uZWN0b3ItY3VydmF0dXJlPSIwIi8+JiN4YTsJCTxwYXRoIHN0eWxlPSJmaWxsOiMxMWJkZjUiIGQ9Im0gNzMuOCwyMDkuNDYgYyAwLDEuODUgLTQuMDEsMy40MSAtOC45NywzLjQxIC00Ljk2LDAgLTguOTcsLTEuNTUgLTguOTcsLTMuNDEgMCwtMS44NSA0LjAxLC0zLjM1IDguOTcsLTMuMzUgNC45NiwwIDguOTcsMS41IDguOTcsMy4zNSB6IiBjbGlwLXBhdGg9InVybCgjU1ZHSURfNl8pIiBpZD0icGF0aDMxMDU4IiBpbmtzY2FwZTpjb25uZWN0b3ItY3VydmF0dXJlPSIwIi8+JiN4YTsJCTxwYXRoIHN0eWxlPSJmaWxsOiMzOWNlZjciIGQ9Im0gNjMuNjMsMjA2LjExIGMgLTEuNSwwLjA2IC0yLjk5LDAuMyAtNC40MywwLjc4IGwgNC4wNywxLjg1IGMgMC40MiwtMC4xMiAwLjg0LC0wLjE4IDEuMiwtMC4xOCB6IiBjbGlwLXBhdGg9InVybCgjU1ZHSURfNl8pIiBpZD0icGF0aDMxMDYwIiBpbmtzY2FwZTpjb25uZWN0b3ItY3VydmF0dXJlPSIwIi8+JiN4YTsJCTxwYXRoIHN0eWxlPSJmaWxsOiMzOWNlZjciIGQ9Im0gNzAuNDUsMjEyLjA5IC00LjA3LC0xLjkxIGMgLTAuNDIsMC4xMiAtMC44NCwwLjE4IC0xLjIsMC4yNCBsIDAuODQsMi40NSBjIDEuNSwtMC4xMiAzLC0wLjM2IDQuNDMsLTAuNzggeiIgY2xpcC1wYXRoPSJ1cmwoI1NWR0lEXzZfKSIgaWQ9InBhdGgzMTA2MiIgaW5rc2NhcGU6Y29ubmVjdG9yLWN1cnZhdHVyZT0iMCIvPiYjeGE7CQk8cGF0aCBzdHlsZT0iZmlsbDojMDM1MjkzIiBkPSJtIDY3LjI4LDIwOS40NiBjIDAsMC41NCAtMS4xNCwwLjk2IC0yLjQ1LDAuOTYgLTEuMzEsMCAtMi40NSwtMC40MiAtMi40NSwtMC45NiAwLC0wLjQ4IDEuMTQsLTAuOSAyLjQ1LC0wLjkgMS4zMSwwIDIuNDUsMC40MiAyLjQ1LDAuOSB6IiBjbGlwLXBhdGg9InVybCgjU1ZHSURfNl8pIiBpZD0icGF0aDMxMDY0IiBpbmtzY2FwZTpjb25uZWN0b3ItY3VydmF0dXJlPSIwIi8+JiN4YTsJPC9nPiYjeGE7PC9nPiYjeGE7PC9zdmc+;spacingTop=4;" parent="1" vertex="1">
          <mxGeometry x="864.5" y="297" width="61" height="54" as="geometry" />
        </mxCell>
        <mxCell id="AcxdMaKK0mU5kZiv2lnr-36" value="Azure Virtual&lt;br&gt;Machine Scale Sets" style="aspect=fixed;html=1;perimeter=none;align=center;shadow=0;dashed=0;image;fontSize=12;image=img/lib/mscae/VM_Scale_Set.svg;labelBackgroundColor=#ffffff;spacingTop=4;" parent="1" vertex="1">
          <mxGeometry x="870" y="547.5" width="50" height="50" as="geometry" />
        </mxCell>
        <mxCell id="AcxdMaKK0mU5kZiv2lnr-37" value="Visual Studio&#xa;Code" style="shape=image;verticalLabelPosition=bottom;labelBackgroundColor=none;verticalAlign=top;aspect=fixed;imageAspect=0;image=data:image/svg+xml,PHN2ZyB4bWxuczpkYz0iaHR0cDovL3B1cmwub3JnL2RjL2VsZW1lbnRzLzEuMS8iIHhtbG5zOmNjPSJodHRwOi8vY3JlYXRpdmVjb21tb25zLm9yZy9ucyMiIHhtbG5zOnJkZj0iaHR0cDovL3d3dy53My5vcmcvMTk5OS8wMi8yMi1yZGYtc3ludGF4LW5zIyIgeG1sbnM6c3ZnPSJodHRwOi8vd3d3LnczLm9yZy8yMDAwL3N2ZyIgeG1sbnM9Imh0dHA6Ly93d3cudzMub3JnLzIwMDAvc3ZnIiB4bWxuczp4bGluaz0iaHR0cDovL3d3dy53My5vcmcvMTk5OS94bGluayIgeG1sbnM6c29kaXBvZGk9Imh0dHA6Ly9zb2RpcG9kaS5zb3VyY2Vmb3JnZS5uZXQvRFREL3NvZGlwb2RpLTAuZHRkIiB4bWxuczppbmtzY2FwZT0iaHR0cDovL3d3dy5pbmtzY2FwZS5vcmcvbmFtZXNwYWNlcy9pbmtzY2FwZSIgdmVyc2lvbj0iMS4xIiBpZD0iTGF5ZXJfMSIgeD0iMHB4IiB5PSIwcHgiIHZpZXdCb3g9IjAgMCA1MC44NDk5OTggNTEuMDkiIHhtbDpzcGFjZT0icHJlc2VydmUiIHNvZGlwb2RpOmRvY25hbWU9InZpc3VhbF9zdHVkaW9fY29kZS5zdmciIHdpZHRoPSI1MC44NDk5OTgiIGhlaWdodD0iNTEuMDkiIGlua3NjYXBlOnZlcnNpb249IjAuOTIuMyAoMjQwNTU0NiwgMjAxOC0wMy0xMSkiPjxtZXRhZGF0YSBpZD0ibWV0YWRhdGE0MzE4OSI+PHJkZjpSREY+PGNjOldvcmsgcmRmOmFib3V0PSIiPjxkYzpmb3JtYXQ+aW1hZ2Uvc3ZnK3htbDwvZGM6Zm9ybWF0PjxkYzp0eXBlIHJkZjpyZXNvdXJjZT0iaHR0cDovL3B1cmwub3JnL2RjL2RjbWl0eXBlL1N0aWxsSW1hZ2UiLz48ZGM6dGl0bGUvPjwvY2M6V29yaz48L3JkZjpSREY+PC9tZXRhZGF0YT48ZGVmcyBpZD0iZGVmczQzMTg3Ii8+PHNvZGlwb2RpOm5hbWVkdmlldyBwYWdlY29sb3I9IiNmZmZmZmYiIGJvcmRlcmNvbG9yPSIjNjY2NjY2IiBib3JkZXJvcGFjaXR5PSIxIiBvYmplY3R0b2xlcmFuY2U9IjEwIiBncmlkdG9sZXJhbmNlPSIxMCIgZ3VpZGV0b2xlcmFuY2U9IjEwIiBpbmtzY2FwZTpwYWdlb3BhY2l0eT0iMCIgaW5rc2NhcGU6cGFnZXNoYWRvdz0iMiIgaW5rc2NhcGU6d2luZG93LXdpZHRoPSIxOTIwIiBpbmtzY2FwZTp3aW5kb3ctaGVpZ2h0PSIxMDE3IiBpZD0ibmFtZWR2aWV3NDMxODUiIHNob3dncmlkPSJmYWxzZSIgZml0LW1hcmdpbi10b3A9IjAiIGZpdC1tYXJnaW4tbGVmdD0iMCIgZml0LW1hcmdpbi1yaWdodD0iMCIgZml0LW1hcmdpbi1ib3R0b209IjAiIGlua3NjYXBlOnpvb209IjEuMDMwMzAzIiBpbmtzY2FwZTpjeD0iLTYuNTU1IiBpbmtzY2FwZTpjeT0iLTI5Ni4wNyIgaW5rc2NhcGU6d2luZG93LXg9Ii04IiBpbmtzY2FwZTp3aW5kb3cteT0iLTgiIGlua3NjYXBlOndpbmRvdy1tYXhpbWl6ZWQ9IjEiIGlua3NjYXBlOmN1cnJlbnQtbGF5ZXI9IkxheWVyXzEiLz4mI3hhOyYjeGE7PGcgaWQ9Imc0MzE4MiIgdHJhbnNmb3JtPSJ0cmFuc2xhdGUoLTMwMy45MywtNzMuNTkpIj4mI3hhOwk8ZGVmcyBpZD0iZGVmczQzMTY3Ij4mI3hhOwkJPHJlY3QgaWQ9IlNWR0lEXzNfIiB4PSIzMDMuOTI5OTkiIHk9IjczLjU4OTk5NiIgd2lkdGg9IjUxLjI1IiBoZWlnaHQ9IjUxLjI1Ii8+JiN4YTsJPC9kZWZzPiYjeGE7CTxjbGlwUGF0aCBpZD0iU1ZHSURfNF8iPiYjeGE7CQk8dXNlIHhsaW5rOmhyZWY9IiNTVkdJRF8zXyIgc3R5bGU9Im92ZXJmbG93OnZpc2libGUiIGlkPSJ1c2U0MzE2OSIgeD0iMCIgeT0iMCIgd2lkdGg9IjEwMCUiIGhlaWdodD0iMTAwJSIvPiYjeGE7CTwvY2xpcFBhdGg+JiN4YTsJPGcgY2xpcC1wYXRoPSJ1cmwoI1NWR0lEXzRfKSIgaWQ9Imc0MzE4MCI+JiN4YTsJCTxkZWZzIGlkPSJkZWZzNDMxNzMiPiYjeGE7CQkJPHJlY3QgaWQ9IlNWR0lEXzVfIiB4PSIzMDMuOTI5OTkiIHk9IjczLjU4OTk5NiIgd2lkdGg9IjUxLjI1IiBoZWlnaHQ9IjUxLjI1Ii8+JiN4YTsJCTwvZGVmcz4mI3hhOwkJPGNsaXBQYXRoIGlkPSJTVkdJRF82XyI+JiN4YTsJCQk8dXNlIHhsaW5rOmhyZWY9IiNTVkdJRF81XyIgc3R5bGU9Im92ZXJmbG93OnZpc2libGUiIGlkPSJ1c2U0MzE3NSIgeD0iMCIgeT0iMCIgd2lkdGg9IjEwMCUiIGhlaWdodD0iMTAwJSIvPiYjeGE7CQk8L2NsaXBQYXRoPiYjeGE7CQk8cGF0aCBzdHlsZT0iZmlsbDojMDE3OWNiIiBkPSJtIDMwOS44NywxMDUuMDIgNi4yMywtNS42NiAtNi4yMywtNi4yMyBWIDEwNSBaIG0gMzEuNTEsMy4zIFYgODkuOTUgbCAtMTEuODksOS4xOSAxMS44Nyw5LjE3IGggMC4wMiB6IG0gLTE5LjM1LC0zLjQ0IC0xMi42LDkuNzggLTUuNSwtMi43IFYgODYuMzUgbCA1LjQ4LC0yLjc2IDEyLjUyLDkuODQgMTkuODIsLTE5Ljg0IDEzLjAzLDUuMjMgdiA0MC41OSBsIC0xMi45OCw1LjI3IHoiIGNsaXAtcGF0aD0idXJsKCNTVkdJRF82XykiIGlkPSJwYXRoNDMxNzgiIGlua3NjYXBlOmNvbm5lY3Rvci1jdXJ2YXR1cmU9IjAiLz4mI3hhOwk8L2c+JiN4YTs8L2c+JiN4YTs8L3N2Zz4=;" parent="1" vertex="1">
          <mxGeometry x="119" y="759" width="51" height="51" as="geometry" />
        </mxCell>
        <mxCell id="AcxdMaKK0mU5kZiv2lnr-38" value="Engineer" style="shape=image;verticalLabelPosition=bottom;labelBackgroundColor=none;verticalAlign=top;aspect=fixed;imageAspect=0;image=data:image/svg+xml,PHN2ZyB4bWxuczpjYz0iaHR0cDovL2NyZWF0aXZlY29tbW9ucy5vcmcvbnMjIiB4bWxuczpkYz0iaHR0cDovL3B1cmwub3JnL2RjL2VsZW1lbnRzLzEuMS8iIHhtbG5zOmlua3NjYXBlPSJodHRwOi8vd3d3Lmlua3NjYXBlLm9yZy9uYW1lc3BhY2VzL2lua3NjYXBlIiB4bWxuczpyZGY9Imh0dHA6Ly93d3cudzMub3JnLzE5OTkvMDIvMjItcmRmLXN5bnRheC1ucyMiIHhtbG5zOnNvZGlwb2RpPSJodHRwOi8vc29kaXBvZGkuc291cmNlZm9yZ2UubmV0L0RURC9zb2RpcG9kaS0wLmR0ZCIgeG1sbnM6c3ZnPSJodHRwOi8vd3d3LnczLm9yZy8yMDAwL3N2ZyIgeG1sbnM9Imh0dHA6Ly93d3cudzMub3JnLzIwMDAvc3ZnIiB4bWxuczp4bGluaz0iaHR0cDovL3d3dy53My5vcmcvMTk5OS94bGluayIgdmVyc2lvbj0iMS4xIiBpZD0ic3ZnMzExODM2IiBpbmtzY2FwZTp2ZXJzaW9uPSIwLjkyLjMgKDI0MDU1NDYsIDIwMTgtMDMtMTEpIiBzb2RpcG9kaTpkb2NuYW1lPSJkZXZlbG9wZXJfNS5zdmciIHg9IjBweCIgeT0iMHB4IiB2aWV3Qm94PSIwIDAgMTkuMjkgNDguMDciIHN0eWxlPSJlbmFibGUtYmFja2dyb3VuZDpuZXcgMCAwIDE5LjI5IDQ4LjA3OyIgeG1sOnNwYWNlPSJwcmVzZXJ2ZSI+JiN4YTs8c29kaXBvZGk6bmFtZWR2aWV3IGJvcmRlcmNvbG9yPSIjNjY2NjY2IiBib3JkZXJvcGFjaXR5PSIxIiBmaXQtbWFyZ2luLWJvdHRvbT0iMCIgZml0LW1hcmdpbi1sZWZ0PSIwIiBmaXQtbWFyZ2luLXJpZ2h0PSIwIiBmaXQtbWFyZ2luLXRvcD0iMCIgZ3JpZHRvbGVyYW5jZT0iMTAiIGd1aWRldG9sZXJhbmNlPSIxMCIgaWQ9Im5hbWVkdmlldzMxMTgzOCIgaW5rc2NhcGU6Y3VycmVudC1sYXllcj0ic3ZnMzExODM2IiBpbmtzY2FwZTpjeD0iMTIuODYzMjIyIiBpbmtzY2FwZTpjeT0iMzIuMDQ4MDkyIiBpbmtzY2FwZTpwYWdlb3BhY2l0eT0iMCIgaW5rc2NhcGU6cGFnZXNoYWRvdz0iMiIgaW5rc2NhcGU6d2luZG93LWhlaWdodD0iMTAxNyIgaW5rc2NhcGU6d2luZG93LW1heGltaXplZD0iMSIgaW5rc2NhcGU6d2luZG93LXdpZHRoPSIxOTIwIiBpbmtzY2FwZTp3aW5kb3cteD0iLTgiIGlua3NjYXBlOndpbmRvdy15PSItOCIgaW5rc2NhcGU6em9vbT0iMTMuNTI3NzczIiBvYmplY3R0b2xlcmFuY2U9IjEwIiBwYWdlY29sb3I9IiNmZmZmZmYiIHNob3dncmlkPSJmYWxzZSI+JiN4YTsJPC9zb2RpcG9kaTpuYW1lZHZpZXc+JiN4YTs8ZyBpZD0iZzMxMTgzNCIgdHJhbnNmb3JtPSJ0cmFuc2xhdGUoLTAuMDAxNzcxNzcsMC4wMDM0KSI+JiN4YTsJPHRpdGxlIGlkPSJ0aXRsZTMxMTYyOSI+UGFnZS0xPC90aXRsZT4mI3hhOwk8ZyBpZD0iZ3JvdXA3MDY1LTEiPiYjeGE7CQk8dGl0bGUgaWQ9InRpdGxlMzExNjMxIj5EZXZlbG9wZXIgIzU8L3RpdGxlPiYjeGE7CQk8ZyBpZD0ic2hhcGU3MDY2LTIiIHRyYW5zZm9ybT0idHJhbnNsYXRlKDExLjQ3MzcsLTEuMzYyMjQpIj4mI3hhOwkJCTx0aXRsZSBpZD0idGl0bGUzMTE2MzMiPlNoZWV0LjcwNjY8L3RpdGxlPiYjeGE7CQkJPHBhdGggaWQ9InBhdGgzMTE2MzUiIGlua3NjYXBlOmNvbm5lY3Rvci1jdXJ2YXR1cmU9IjAiIGQ9Ik0wLDQ3Ljk3bDIuMzEsMC4xbDAuMDItMi45MmgtMi4xTDAsNDcuOTd6Ii8+JiN4YTsJCTwvZz4mI3hhOwkJPGcgaWQ9InNoYXBlNzA2Ny00IiB0cmFuc2Zvcm09InRyYW5zbGF0ZSgxMC44OTA0KSI+JiN4YTsJCQk8dGl0bGUgaWQ9InRpdGxlMzExNjM4Ij5TaGVldC43MDY3PC90aXRsZT4mI3hhOwkJCTxwYXRoIGlkPSJwYXRoMzExNjQwIiBpbmtzY2FwZTpjb25uZWN0b3ItY3VydmF0dXJlPSIwIiBzdHlsZT0iZmlsbDojNUMyRDkxOyIgZD0iTTAsNDcuODZjMi4xNiwwLjExLDIuMTYsMC4xMSwyLjE2LDAuMTEgICAgIGMwLjEyLTAuMzMsMC4xMi0wLjMzLDAuMTItMC4zM2MwLjcxLDAuMTEsMi4xNiwwLjMzLDIuOTgsMC40M2MwLjU2LDAsMS4zNCwwLDEuNzktMC4yMWMwLDAsMC4xNC0wLjExLDAuMTQtMC4yMiAgICAgYzAtMC44Ni0zLjQyLTEuMzItNC4zMS0yLjNjLTAuMTIsMC0wLjEyLDAtMC4xMiwwQzIuNSw0NS41NiwyLjI4LDQ2LDEuNzMsNDZjLTAuNTYsMC0xLjAxLTAuNTUtMS4yNC0wLjY2ICAgICBDMC4xMiw0NS41NiwwLDQ3Ljc1LDAsNDcuODZ6Ii8+JiN4YTsJCTwvZz4mI3hhOwkJPGcgaWQ9InNoYXBlNzA2OC02IiB0cmFuc2Zvcm09InRyYW5zbGF0ZSgzLjExMjg1LC0wLjM4OTIxMykiPiYjeGE7CQkJPHRpdGxlIGlkPSJ0aXRsZTMxMTY0MyI+U2hlZXQuNzA2ODwvdGl0bGU+JiN4YTsJCQk8cGF0aCBpZD0icGF0aDMxMTY0NSIgaW5rc2NhcGU6Y29ubmVjdG9yLWN1cnZhdHVyZT0iMCIgc3R5bGU9ImZpbGw6IzVDMkQ5MTsiIGQ9Ik0xLjE1LDQ1LjM0YzAsMC40OCwwLDAuNDgsMCwwLjQ4ICAgICBDMCw0Ny4zNSwwLDQ3LjM1LDAsNDcuMzVjMCwwLjUxLDAsMC41MSwwLDAuNTFjMCwwLjExLDAuMTEsMC4yMSwwLjIyLDAuMjFjMi40NywwLDIuNDcsMCwyLjQ3LDBjMC4yNSwwLDAuNDItMC4yMSwwLjQyLTAuNDMgICAgIGMwLTEuNDksMC0xLjQ5LDAtMS40OWMwLTAuNDgsMC0wLjQ4LDAtMC40OGMwLTAuMzMsMC0wLjMzLDAtMC4zM0wxLjE1LDQ1LjM0eiIvPiYjeGE7CQk8L2c+JiN4YTsJCTxnIGlkPSJzaGFwZTcwNjktOCIgdHJhbnNmb3JtPSJ0cmFuc2xhdGUoNC4yNzk0OCwtMy4xMTM3KSI+JiN4YTsJCQk8dGl0bGUgaWQ9InRpdGxlMzExNjQ4Ij5TaGVldC43MDY5PC90aXRsZT4mI3hhOwkJCTxwYXRoIGlkPSJwYXRoMzExNjUwIiBpbmtzY2FwZTpjb25uZWN0b3ItY3VydmF0dXJlPSIwIiBzdHlsZT0iZmlsbDojMDA3OEQ3OyIgZD0iTTcuMyw0OC4wN2MtMC4xOC0xLjE3LDAuMjMtNi45NC0wLjAzLTExLjA4ICAgICBjLTAuMjYtNC4wNC0xLjI1LTUuNjktMS4yNS01LjY5cy0wLjMzLTAuMjItMC40MSwwLjFjLTAuMDMsMC4xNS0xLjg4LDUuMy0xLjg4LDUuM3MtMS4yMSw5LjM1LTEuNywxMS4zN2MtMi4wMywwLTIuMDMsMC0yLjAzLDAgICAgIGMwLjUyLTEyLjAxLDAuNTItMTIuMDEsMC41Mi0xMi4wMWMwLjg5LTguNjIsMC44OS04LjYyLDAuODktOC42MmM4LjM3LTMuMzEsOC4zNy0zLjMxLDguMzctMy4zMWMtMC4yMywxLjE4LDAuOTEsNy4yLDAuODgsMTIuNzUgICAgIGMtMC4wOCw0LjY5LTEuMTQsMTAuMzEtMS4xMSwxMS4xOUw3LjMsNDguMDd6Ii8+JiN4YTsJCTwvZz4mI3hhOwkJPGcgaWQ9InNoYXBlNzA3MC0xMCIgdHJhbnNmb3JtPSJ0cmFuc2xhdGUoMy44OTA2LC0yLjkxOTA5KSI+JiN4YTsJCQk8dGl0bGUgaWQ9InRpdGxlMzExNjUzIj5TaGVldC43MDcwPC90aXRsZT4mI3hhOwkJCTxwYXRoIGlkPSJwYXRoMzExNjU1IiBpbmtzY2FwZTpjb25uZWN0b3ItY3VydmF0dXJlPSIwIiBzdHlsZT0iZmlsbDojMDA3OEQ3OyIgZD0iTTIuNjEsNDguMDdjLTIuNjEsMC0yLjYxLDAtMi42MSwwICAgICBjMC41Ni0xMi4zNCwwLjU2LTEyLjM0LDAuNTYtMTIuMzRjMC44Ny04Ljc5LDAuODctOC43OSwwLjg3LTguNzljOS4wNS0zLjU5LDkuMDUtMy41OSw5LjA1LTMuNTljLTAuMTEsMC41Ni0wLjExLDAuNTYtMC4xMSwwLjU2ICAgICBjLTAuMDgsMC40OCwwLjA3LDEuOTQsMC4yNSwzLjYzYzAuMjksMi40NCwwLjY2LDUuODEsMC42Miw5LjAzYy0wLjA0LDMuMDgtMC41MSw2LjU2LTAuODQsOC44M2MtMC4xNCwxLjE3LTAuMjUsMi4wNS0wLjI1LDIuMzQgICAgIGMwLjAzLDAuMzMsMC4wMywwLjMzLDAuMDMsMC4zM2MtMi44MywwLTIuODMsMC0yLjgzLDBjLTAuMDctMC4yNi0wLjA3LTAuMjYtMC4wNy0wLjI2Yy0wLjA3LTAuNTQtMC4wNC0xLjkzLDAtMy43ICAgICBjMC4wNy0yLjI2LDAuMTEtNS4wOC0wLjA0LTcuNDNjLTAuMTgtMy4xOC0wLjg1LTQuODMtMS4wNy01LjM0Yy0wLjI5LDAuODEtMS41NCw0LjI5LTEuODMsNS4xMmMtMC4wNywwLjctMS4yMiw5LjM4LTEuNjksMTEuMzUgICAgIEwyLjYxLDQ4LjA3eiBNMC42Nyw0Ny40NWMxLjQzLDAsMS40MywwLDEuNDMsMGMwLjUxLTIuNDEsMS42Mi0xMS4wMiwxLjY2LTExLjFjMC0wLjA3LDAtMC4wNywwLTAuMDdjMC43Mi0yLDEuODMtNS4xMiwxLjg3LTUuMjYgICAgIGMwLjA3LTAuMjIsMC4yMi0wLjMsMC4yOS0wLjMzYzAuMjktMC4xMSwwLjU1LDAuMDMsMC41OSwwLjA3YzAuMDgsMC4wNCwwLjA4LDAuMDQsMC4wOCwwLjA0YzAuMDMsMC4wNywwLjAzLDAuMDcsMC4wMywwLjA3ICAgICBjMC4wNCwwLjA3LDAuOTksMS43NSwxLjI0LDUuNzhjMC4xNSwyLjM4LDAuMDgsNS4yLDAuMDQsNy40NmMtMC4wNCwxLjQ0LTAuMDcsMi43Mi0wLjA0LDMuMzRjMS42OSwwLDEuNjksMCwxLjY5LDAgICAgIGMwLTAuNDQsMC4xMS0xLjEzLDAuMjctMi4xMmMwLjI5LTIuMjcsMC43Ni01LjcyLDAuOC04Ljc2YzAuMDQtMy4xOC0wLjMzLTYuNTItMC41OC04Ljk2Yy0wLjE4LTEuNTEtMC4yOS0yLjYtMC4yOS0zLjMgICAgIGMtNy43MiwzLjA4LTcuNzIsMy4wOC03LjcyLDMuMDhjLTAuODUsOC4zOC0wLjg1LDguMzgtMC44NSw4LjM4TDAuNjcsNDcuNDV6Ii8+JiN4YTsJCTwvZz4mI3hhOwkJPGcgaWQ9InNoYXBlNzA3MS0xMiIgdHJhbnNmb3JtPSJ0cmFuc2xhdGUoNC44NjI3OSwtMjMuNzQyKSI+JiN4YTsJCQk8dGl0bGUgaWQ9InRpdGxlMzExNjU4Ij5TaGVldC43MDcxPC90aXRsZT4mI3hhOwkJCTxwYXRoIGlkPSJwYXRoMzExNjYwIiBpbmtzY2FwZTpjb25uZWN0b3ItY3VydmF0dXJlPSIwIiBzdHlsZT0iZmlsbDojRTZFN0U4OyIgZD0iTTcuNTgsNDguMDdIMC4zNmwtMC4xMy04Ljg4TDAsMzQuNTRsNi44OS0wLjQ4ICAgICBMNy41OCw0OC4wN3oiLz4mI3hhOwkJPC9nPiYjeGE7CQk8ZyBpZD0ic2hhcGU3MDcyLTE0IiB0cmFuc2Zvcm09InRyYW5zbGF0ZSg0Ljg2Mjc5LC0zNS44MDc2KSI+JiN4YTsJCQk8dGl0bGUgaWQ9InRpdGxlMzExNjYzIj5TaGVldC43MDcyPC90aXRsZT4mI3hhOwkJCTxwYXRoIGlkPSJwYXRoMzExNjY1IiBpbmtzY2FwZTpjb25uZWN0b3ItY3VydmF0dXJlPSIwIiBzdHlsZT0iZmlsbDojRTZFN0U4OyIgZD0iTTAuNjYsNDguMDdMMCw0NS4ybDQuNjQtMS4wMmwwLjYxLDIuODQgICAgIEwwLjY2LDQ4LjA3eiIvPiYjeGE7CQk8L2c+JiN4YTsJCTxnIGlkPSJzaGFwZTcwNzMtMTYiIHRyYW5zZm9ybT0idHJhbnNsYXRlKDkuOTE4MTgsLTIzLjc0MikiPiYjeGE7CQkJPHRpdGxlIGlkPSJ0aXRsZTMxMTY2OCI+U2hlZXQuNzA3MzwvdGl0bGU+JiN4YTsJCQk8cGF0aCBpZD0icGF0aDMxMTY3MCIgaW5rc2NhcGU6Y29ubmVjdG9yLWN1cnZhdHVyZT0iMCIgc3R5bGU9ImZpbGw6I0U2RTdFODsiIGQ9Ik0wLDQ4LjA3aDQuNjdsMC4xNy04Ljg0bDAuMjItNC42M0wwLDM0LjI1ICAgICBWNDguMDd6Ii8+JiN4YTsJCTwvZz4mI3hhOwkJPGcgaWQ9InNoYXBlNzA3NC0xOCIgdHJhbnNmb3JtPSJ0cmFuc2xhdGUoOS41MjkzMSwtMzUuODA3NikiPiYjeGE7CQkJPHRpdGxlIGlkPSJ0aXRsZTMxMTY3MyI+U2hlZXQuNzA3NDwvdGl0bGU+JiN4YTsJCQk8cGF0aCBpZD0icGF0aDMxMTY3NSIgaW5rc2NhcGU6Y29ubmVjdG9yLWN1cnZhdHVyZT0iMCIgc3R5bGU9ImZpbGw6I0U2RTdFODsiIGQ9Ik01LjA2LDQ4LjA3bC01LjA2LTFsMC42LTIuODlsNS4wNCwxLjA0ICAgICBMNS4wNiw0OC4wN3oiLz4mI3hhOwkJPC9nPiYjeGE7CQk8ZyBpZD0ic2hhcGU3MDc1LTIwIiB0cmFuc2Zvcm09InRyYW5zbGF0ZSg3LjE5NjA1LC0zMi4zMDQ2KSI+JiN4YTsJCQk8dGl0bGUgaWQ9InRpdGxlMzExNjc4Ij5TaGVldC43MDc1PC90aXRsZT4mI3hhOwkJCTxwYXRoIGlkPSJwYXRoMzExNjgwIiBpbmtzY2FwZTpjb25uZWN0b3ItY3VydmF0dXJlPSIwIiBzdHlsZT0iZmlsbDojMDBCMjk0OyIgZD0iTTQuNDEsNDYuMDJjLTAuMTgsMC0wLjM2LDAuMDQtMC41MiwwLjE1ICAgICBjMC0wLjExLTAuMDQtMC4xOC0wLjA3LTAuMjZjLTAuMDgtMC4xOC0wLjA4LTAuMTgtMC4wOC0wLjE4Yy0wLjAzLTAuMTgtMC4xMS0wLjMzLTAuMTEtMC40YzAuMDgtMC4xNCwwLjA4LTAuMTQsMC4wOC0wLjE0ICAgICBjMC0wLjA0LDAtMC4wNC0wLjA0LTAuMDhjLTAuMTEtMC4xMi0wLjExLTAuMTItMC4xMS0wLjEyYzAtMC4wNC0wLjA0LTAuMDQtMC4wNC0wLjA0Yy0wLjQxLDAtMC40MSwwLTAuNDEsMCAgICAgYy0wLjA0LDAtMC4wNywwLjA0LTAuMDcsMC4wOGMwLDAuMDUsMC4wMywwLjA4LDAuMDcsMC4wOGMwLjM4LDAsMC4zOCwwLDAuMzgsMGMwLjA3LDAuMDgsMC4wNywwLjA4LDAuMDcsMC4wOCAgICAgYy0wLjA3LDAuMTQtMC4wNywwLjE0LTAuMDcsMC4xNHMwLDAsMCwwLjA0YzAuMDMsMCwwLjA3LDAuMTQsMC4xNCwwLjMzYy0xLjUyLDAtMS41MiwwLTEuNTIsMGMtMC4wMy0wLjExLTAuMDMtMC4xMS0wLjAzLTAuMTEgICAgIGMwLjE0LTAuMDQsMC4zNC0wLjExLDAuNDEtMC4yMmMtMC45MywwLTAuOTMsMC0wLjkzLDBjMCwwLjE0LDAuMTUsMC4yNSwwLjM0LDAuMjVjMC4wMywwLDAuMDMsMCwwLjA3LDBsMCwwICAgICBjMC4wNCwwLjE1LDAuMDQsMC4xNSwwLjA0LDAuMTVjLTAuMzcsMC40NC0wLjM3LDAuNDQtMC4zNywwLjQ0Yy0wLjE5LTAuMTEtMC4zOC0wLjE5LTAuNTktMC4xOUMwLjQ5LDQ2LjAyLDAsNDYuNDYsMCw0Ny4wNSAgICAgYzAsMC41NCwwLjQ5LDEuMDIsMS4wNSwxLjAyYzAuNDcsMCwwLjg4LTAuMzMsMC45OS0wLjc3YzAuMjIsMC4wNCwwLjIyLDAuMDQsMC4yMiwwLjA0YzAsMC4wNywwLjA3LDAuMTgsMC4xNiwwLjIyICAgICBjLTAuMDQsMC4yMi0wLjA0LDAuMjItMC4wNCwwLjIyYy0wLjEyLDAtMC4xMiwwLTAuMTIsMGMtMC4wNCwwLTAuMDcsMC0wLjA3LDAuMDNjMCwwLjA0LDAuMDMsMC4wOCwwLjA3LDAuMDhjMC4zLDAsMC4zLDAsMC4zLDAgICAgIGMwLjA0LDAsMC4wNC0wLjA0LDAuMDQtMC4wOGMwLTAuMDMsMC0wLjAzLTAuMDQtMC4wM2MtMC4wNywwLTAuMDcsMC0wLjA3LDBjMC4wNC0wLjIyLDAuMDQtMC4yMiwwLjA0LTAuMjIgICAgIGMwLjE0LDAsMC4yNS0wLjExLDAuMjUtMC4yNmMwLTAuMDMtMC4wMy0wLjA3LTAuMDctMC4xMWMxLjAzLTEuMTMsMS4wMy0xLjEzLDEuMDMtMS4xM2MwLjA0LDAuMDQsMC4wNCwwLjExLDAuMDgsMC4xNSAgICAgYy0wLjI2LDAuMjItMC40NCwwLjQ3LTAuNDQsMC44NGMwLDAuNTQsMC40NCwxLjAyLDEuMDMsMS4wMmMwLjYsMCwxLjAzLTAuNDgsMS4wMy0xLjAyQzUuNDQsNDYuNDYsNS4wMSw0Ni4wMiw0LjQxLDQ2LjAyeiAgICAgIE0xLjA1LDQ3LjkyYy0wLjQ5LDAtMC44OS0wLjQtMC44OS0wLjg3YzAtMC40OCwwLjQtMC44OCwwLjg5LTAuODhjMC4xOCwwLDAuMzIsMC4wNywwLjQ3LDAuMTVjLTAuNDcsMC42Mi0wLjQ3LDAuNjItMC40NywwLjYyICAgICBsMCwwYy0wLjA0LDAtMC4xMSwwLjAzLTAuMTEsMC4xMWgwLjAzYy0wLjAzLDAuMDMtMC4wMywwLjAzLTAuMDMsMC4wM2MwLjA3LDAsMC4wNywwLDAuMDcsMGMwLDAuMDQsMCwwLjA4LDAuMDQsMC4wOCAgICAgYzAuMDMsMCwwLjAzLTAuMDQsMC4wMy0wLjA0YzAuODIsMC4xNSwwLjgyLDAuMTUsMC44MiwwLjE1QzEuNzksNDcuNjMsMS40NSw0Ny45MiwxLjA1LDQ3LjkyeiBNMS45Myw0Ny4wNWMwLDAuMDMsMCwwLjA3LDAsMC4xMSAgICAgYy0wLjc4LTAuMTUtMC43OC0wLjE1LTAuNzgtMC4xNWMwLjQ5LTAuNjIsMC40OS0wLjYyLDAuNDktMC42MkMxLjgyLDQ2LjU3LDEuOTMsNDYuNzksMS45Myw0Ny4wNXogTTEuNzUsNDYuMjggICAgIGMwLjI5LTAuNCwwLjI5LTAuNCwwLjI5LTAuNGMwLjM4LDEuMjQsMC4zOCwxLjI0LDAuMzgsMS4yNGMtMC4wOSwwLjA0LTAuMDksMC4wNC0wLjEyLDAuMTFjLTAuMjItMC4wNy0wLjIyLTAuMDctMC4yMi0wLjA3ICAgICBjMC0wLjA0LDAtMC4wOCwwLTAuMTFDMi4wOCw0Ni43MiwxLjk3LDQ2LjQ2LDEuNzUsNDYuMjh6IE0yLjY3LDQ3LjA1YzAuMDgtMC4yMiwwLjA4LTAuMjIsMC4wOC0wLjIyYzAuMDcsMCwwLjA3LDAsMC4wNywwICAgICBjMC4wNCwwLDAuMDctMC4wNCwwLjA3LTAuMDRjMC0wLjA0LTAuMDMtMC4wNy0wLjA3LTAuMDdjLTAuMjYsMC0wLjI2LDAtMC4yNiwwYy0wLjAzLDAtMC4wNywwLjAzLTAuMDcsMC4wNyAgICAgYzAsMCwwLjA0LDAuMDQsMC4wNywwLjA0YzAuMDQsMCwwLjA0LDAsMC4wNCwwYy0wLjA0LDAuMjUtMC4wNCwwLjI1LTAuMDQsMC4yNWMtMC4wMywwLTAuMDMsMC0wLjAzLDBsMCwwICAgICBjLTAuMzgtMS4yNy0wLjM4LTEuMjctMC4zOC0xLjI3YzEuNTIsMCwxLjUyLDAsMS41MiwwYzAsMC4wMywwLDAuMDcsMC4wNCwwLjFMMi42Nyw0Ny4wNXogTTQuNDEsNDcuOTIgICAgIGMtMC40NywwLTAuODktMC40LTAuODktMC44N2MwLTAuMywwLjE1LTAuNTEsMC4zMy0wLjY2YzAuMDQsMC4wNywwLjA5LDAuMTUsMC4wOSwwLjIyYzAuMTEsMC4xOCwwLjI5LDAuMzMsMC4zNiwwLjQ0bDAsMCAgICAgYzAsMC4wMywwLjA0LDAuMTEsMC4xMSwwLjExczAuMTEtMC4wOCwwLjExLTAuMTFjMC0wLjA4LTAuMDQtMC4xMS0wLjExLTAuMTFsMCwwYy0wLjExLTAuMDgtMC4yOS0wLjIyLTAuMzYtMC40ICAgICBjMC0wLjA0LTAuMDQtMC4xMS0wLjA4LTAuMjJjMC4xMS0wLjA4LDAuMjYtMC4xNSwwLjQ0LTAuMTVjMC40OSwwLDAuODksMC40LDAuODksMC44OEM1LjMsNDcuNTIsNC45LDQ3LjkyLDQuNDEsNDcuOTJ6Ii8+JiN4YTsJCTwvZz4mI3hhOwkJPGcgaWQ9InNoYXBlNzA3Ni0yMiIgdHJhbnNmb3JtPSJ0cmFuc2xhdGUoOS45MTgxOCwtMzguMzM3NCkiPiYjeGE7CQkJPHRpdGxlIGlkPSJ0aXRsZTMxMTY4MyI+U2hlZXQuNzA3NjwvdGl0bGU+JiN4YTsJCQk8cGF0aCBpZD0icGF0aDMxMTY4NSIgaW5rc2NhcGU6Y29ubmVjdG9yLWN1cnZhdHVyZT0iMCIgc3R5bGU9ImZpbGw6I0YyN0FCNDsiIGQ9Ik0wLjE5LDQ3Ljg3YzAsMC4xNC0wLjA5LDAuMi0wLjE0LDAuMiAgICAgYzAsMCwwLDAtMC4wNS0wLjA2QzAuMTksNDcuODcsMC4xOSw0Ny44NywwLjE5LDQ3Ljg3TDAuMTksNDcuODd6Ii8+JiN4YTsJCTwvZz4mI3hhOwkJPGcgaWQ9InNoYXBlNzA3Ny0yNCIgdHJhbnNmb3JtPSJ0cmFuc2xhdGUoOC4xNjgyNCwtMzcuNzUzNikiPiYjeGE7CQkJPHRpdGxlIGlkPSJ0aXRsZTMxMTY4OCI+U2hlZXQuNzA3NzwvdGl0bGU+JiN4YTsJCQk8cGF0aCBpZD0icGF0aDMxMTY5MCIgaW5rc2NhcGU6Y29ubmVjdG9yLWN1cnZhdHVyZT0iMCIgc3R5bGU9ImZpbGw6I0NFOUM1RTsiIGQ9Ik0xLjg1LDQ4LjA3QzAuODQsNDguMDcsMCw0Ny4zOSwwLDQ2LjMzICAgICBjMC0xLjM4LDAtMS4zOCwwLTEuMzhjMy42OSwwLDMuNjksMCwzLjY5LDBjMCwxLjM4LDAsMS4zOCwwLDEuMzhDMy42OSw0Ny4zOSwyLjg3LDQ4LjA3LDEuODUsNDguMDd6Ii8+JiN4YTsJCTwvZz4mI3hhOwkJPGcgaWQ9InNoYXBlNzA3OC0yNiIgdHJhbnNmb3JtPSJ0cmFuc2xhdGUoNy4wMDE2MSwtMzkuNjk5NykiPiYjeGE7CQkJPHRpdGxlIGlkPSJ0aXRsZTMxMTY5MyI+U2hlZXQuNzA3ODwvdGl0bGU+JiN4YTsJCQk8cGF0aCBpZD0icGF0aDMxMTY5NSIgaW5rc2NhcGU6Y29ubmVjdG9yLWN1cnZhdHVyZT0iMCIgc3R5bGU9ImZpbGw6I0NFOUM1RTsiIGQ9Ik01LjgzLDQ0LjE0YzAsMi4zMy0xLjI2LDMuOTMtMi45MywzLjkzICAgICBjLTEuNjYsMC0yLjktMS42LTIuOS0zLjkzYzAtMi4zNSwxLjI0LTQuMjUsMi45LTQuMjVDNS4wMSwzOS44OSw1LjgzLDQxLjc5LDUuODMsNDQuMTR6Ii8+JiN4YTsJCTwvZz4mI3hhOwkJPGcgaWQ9InNoYXBlNzA3OS0yOCIgdHJhbnNmb3JtPSJ0cmFuc2xhdGUoNi42MTI3MywtNDIuNDI0MikiPiYjeGE7CQkJPHRpdGxlIGlkPSJ0aXRsZTMxMTY5OCI+U2hlZXQuNzA3OTwvdGl0bGU+JiN4YTsJCQk8cGF0aCBpZD0icGF0aDMxMTcwMCIgaW5rc2NhcGU6Y29ubmVjdG9yLWN1cnZhdHVyZT0iMCIgc3R5bGU9ImZpbGw6I0NFOUM1RTsiIGQ9Ik0wLjU4LDQ2LjMyYy0wLjMyLDAtMC4zMiwwLTAuMzIsMCAgICAgQzAuMSw0Ni4zMiwwLDQ2LjQ2LDAsNDYuNjNjMCwxLjEzLDAsMS4xMywwLDEuMTNjMCwwLjE3LDAuMSwwLjMxLDAuMjYsMC4zMWMwLjIsMCwwLjIsMCwwLjIsMEwwLjU4LDQ2LjMyeiIvPiYjeGE7CQk8L2c+JiN4YTsJCTxnIGlkPSJzaGFwZTcwODAtMzAiIHRyYW5zZm9ybT0idHJhbnNsYXRlKDEyLjY0MDMsLTQyLjQyNDIpIj4mI3hhOwkJCTx0aXRsZSBpZD0idGl0bGUzMTE3MDMiPlNoZWV0LjcwODA8L3RpdGxlPiYjeGE7CQkJPHBhdGggaWQ9InBhdGgzMTE3MDUiIGlua3NjYXBlOmNvbm5lY3Rvci1jdXJ2YXR1cmU9IjAiIHN0eWxlPSJmaWxsOiNDRTlDNUU7IiBkPSJNMCw0Ni4zMmMwLjQ2LDAsMC40NiwwLDAuNDYsMCAgICAgYzAuMiwwLDAuMzIsMC4xNCwwLjMyLDAuMzFjMCwxLjEzLDAsMS4xMywwLDEuMTNjMCwwLjE3LTAuMTIsMC4zMS0wLjMyLDAuMzFjLTAuMjksMC0wLjI5LDAtMC4yOSwwTDAsNDYuMzJ6Ii8+JiN4YTsJCTwvZz4mI3hhOwkJPGcgaWQ9InNoYXBlNzA4MS0zMiIgdHJhbnNmb3JtPSJ0cmFuc2xhdGUoOC41NTcxMSwtNDMuNTkxOCkiPiYjeGE7CQkJPHRpdGxlIGlkPSJ0aXRsZTMxMTcwOCI+U2hlZXQuNzA4MTwvdGl0bGU+JiN4YTsJCQk8cGF0aCBpZD0icGF0aDMxMTcxMCIgaW5rc2NhcGU6Y29ubmVjdG9yLWN1cnZhdHVyZT0iMCIgc3R5bGU9ImZpbGw6IzIzMUYyMDsiIGQ9Ik0wLjE5LDQ4LjA3YzAuMSwwLDAuMi0wLjA5LDAuMi0wLjIxICAgICBjMC0wLjA4LTAuMS0wLjE4LTAuMi0wLjE4QzAuMDcsNDcuNjgsMCw0Ny43OCwwLDQ3LjlDMCw0Ny45OCwwLjEsNDguMDcsMC4xOSw0OC4wN3oiLz4mI3hhOwkJPC9nPiYjeGE7CQk8ZyBpZD0ic2hhcGU3MDgyLTM0IiB0cmFuc2Zvcm09InRyYW5zbGF0ZSgxMS4wODQ4LC00My4zOTcyKSI+JiN4YTsJCQk8dGl0bGUgaWQ9InRpdGxlMzExNzEzIj5TaGVldC43MDgyPC90aXRsZT4mI3hhOwkJCTxwYXRoIGlkPSJwYXRoMzExNzE1IiBpbmtzY2FwZTpjb25uZWN0b3ItY3VydmF0dXJlPSIwIiBzdHlsZT0iZmlsbDojMjMxRjIwOyIgZD0iTTAuMTksNDguMDdjMC4xLDAsMC4yLTAuMTQsMC4yLTAuMzEgICAgIGMwLTAuMTMtMC4xLTAuMjgtMC4yLTAuMjhDMC4xLDQ3LjQ4LDAsNDcuNjMsMCw0Ny44QzAsNDcuOTMsMC4xLDQ4LjA3LDAuMTksNDguMDd6Ii8+JiN4YTsJCTwvZz4mI3hhOwkJPGcgaWQ9InNoYXBlNzA4My0zNiIgdHJhbnNmb3JtPSJ0cmFuc2xhdGUoOC4xNjgyNCwtMzkuNTA1MSkiPiYjeGE7CQkJPHRpdGxlIGlkPSJ0aXRsZTMxMTcxOCI+U2hlZXQuNzA4MzwvdGl0bGU+JiN4YTsJCQk8cGF0aCBpZD0icGF0aDMxMTcyMCIgaW5rc2NhcGU6Y29ubmVjdG9yLWN1cnZhdHVyZT0iMCIgc3R5bGU9ImZpbGw6I0NFOUM1RTsiIGQ9Ik0wLDQ2LjcxYzMuNSwwLDMuNSwwLDMuNSwwICAgICBjLTAuNDQsMC44My0xLjAzLDEuMzYtMS43NSwxLjM2QzEuMDUsNDguMDcsMC40NSw0Ny41NCwwLDQ2LjcxeiIvPiYjeGE7CQk8L2c+JiN4YTsJCTxnIGlkPSJzaGFwZTcwODQtMzgiIHRyYW5zZm9ybT0idHJhbnNsYXRlKDguMTY4MjQsLTM5LjMxMDUpIj4mI3hhOwkJCTx0aXRsZSBpZD0idGl0bGUzMTE3MjMiPlNoZWV0LjcwODQ8L3RpdGxlPiYjeGE7CQkJPHBhdGggaWQ9InBhdGgzMTE3MjUiIGlua3NjYXBlOmNvbm5lY3Rvci1jdXJ2YXR1cmU9IjAiIHN0eWxlPSJmaWxsOiNCQThENTc7IiBkPSJNMy42OSw0Ni45YzAsMC4yOSwwLDAuMjksMCwwLjI5ICAgICBjMCwwLjI4LTEuMTksMC44OC0xLjg0LDAuODhDMS4yNCw0OC4wNywwLDQ3LjYyLDAsNDcuMTljMC0wLjI5LDAtMC4yOSwwLTAuMjljMC4yNiwwLjI2LDAuNTUsMC40NiwwLjg3LDAuNjEgICAgIGMwLjMsMC4yNCwwLjYyLDAuMzUsMC45OCwwLjM1czAuNjktMC4xMSwwLjk4LTAuMzVDMy4xNiw0Ny4zNiwzLjQ1LDQ3LjE2LDMuNjksNDYuOXoiLz4mI3hhOwkJPC9nPiYjeGE7CQk8ZyBpZD0ic2hhcGU3MDg1LTQwIiB0cmFuc2Zvcm09InRyYW5zbGF0ZSg4Ljc1MTU1LC00MS4wNjE5KSI+JiN4YTsJCQk8dGl0bGUgaWQ9InRpdGxlMzExNzI4Ij5TaGVldC43MDg1PC90aXRsZT4mI3hhOwkJCTxwYXRoIGlkPSJwYXRoMzExNzMwIiBpbmtzY2FwZTpjb25uZWN0b3ItY3VydmF0dXJlPSIwIiBzdHlsZT0iZmlsbDojRkZGRkZGOyIgZD0iTTEuMTcsNDguMDdjMC41NCwwLDAuOC0wLjEyLDEuMTYtMC4yICAgICBjLTAuMTgsMC4wNC0wLjYyLDAuMDgtMS4xNiwwLjA4Yy0wLjU5LDAtMC45OS0wLjA0LTEuMTctMC4wOEMwLjM2LDQ3Ljk1LDAuNjIsNDguMDcsMS4xNyw0OC4wN3oiLz4mI3hhOwkJPC9nPiYjeGE7CQk8ZyBpZD0ic2hhcGU3MDg2LTQyIiB0cmFuc2Zvcm09InRyYW5zbGF0ZSg4Ljc1MTU1LC00MC44NjczKSI+JiN4YTsJCQk8dGl0bGUgaWQ9InRpdGxlMzExNzMzIj5TaGVldC43MDg2PC90aXRsZT4mI3hhOwkJCTxwYXRoIGlkPSJwYXRoMzExNzM1IiBpbmtzY2FwZTpjb25uZWN0b3ItY3VydmF0dXJlPSIwIiBzdHlsZT0iZmlsbDojQkIxNDFBOyIgZD0iTTEuMjksNDguMDdjLTAuMzgsMC0wLjYxLTAuMS0wLjg2LTAuMTUgICAgIGMtMC4wOS0wLjA1LTAuMi0wLjEtMC4zMS0wLjE0Yy0wLjAzLDAtMC4wMywwLTAuMDcsMEwwLDQ3LjczYzAuMDUtMC4wNSwwLjA1LTAuMDUsMC4wOS0wLjA1YzAsMCwwLjAzLDAsMC4wNywwICAgICBjMC4xOCwwLjA1LDAuNjEsMC4xLDEuMTMsMC4xYzAuNDgsMCwwLjkxLTAuMDUsMS4xMy0wLjFjMC4wMywwLDAuMDMsMCwwLjA3LDBzMC4wNCwwLDAuMDQsMC4wNWMwLDAsMCwwLjA1LTAuMDQsMC4wNSAgICAgYzAsMC0wLjA0LDAtMC4wNywwYy0wLjA3LDAuMDQtMC4xOCwwLjA5LTAuMzEsMC4xNEMxLjksNDcuOTcsMS42Myw0OC4wNywxLjI5LDQ4LjA3eiBNMC42MSw0Ny44N2MwLjE5LDAuMDUsMC40MSwwLjEsMC42OCwwLjEgICAgIHMwLjQ4LTAuMDUsMC42OC0wLjFjLTAuMjMsMC0wLjQ1LDAtMC42OCwwQzEuMDIsNDcuODcsMC44LDQ3Ljg3LDAuNjEsNDcuODd6Ii8+JiN4YTsJCTwvZz4mI3hhOwkJPGcgaWQ9InNoYXBlNzA4Ny00NCIgdHJhbnNmb3JtPSJ0cmFuc2xhdGUoOS4zMzQ4NywtNDEuODQwNCkiPiYjeGE7CQkJPHRpdGxlIGlkPSJ0aXRsZTMxMTczOCI+U2hlZXQuNzA4NzwvdGl0bGU+JiN4YTsJCQk8cGF0aCBpZD0icGF0aDMxMTc0MCIgaW5rc2NhcGU6Y29ubmVjdG9yLWN1cnZhdHVyZT0iMCIgc3R5bGU9ImZpbGw6I0JBOEQ1NzsiIGQ9Ik0xLjE3LDQ3LjQ4YzAsMC4xNS0wLjEsMC4zLTAuMjEsMC4yNSAgICAgYy0wLjA0LDAtMC4wNywwLjA5LTAuMTUsMC4xNGMtMC4wNiwwLjEtMC4xMywwLjItMC4yNCwwLjJjLTAuMDcsMC0wLjE4LTAuMS0wLjI0LTAuMmMtMC4wNy0wLjA1LTAuMTEtMC4xNC0wLjExLTAuMTQgICAgIEMwLjA3LDQ3Ljc4LDAsNDcuNjMsMCw0Ny40OGwwLDBDMS4xNyw0Ny40OCwxLjE3LDQ3LjQ4LDEuMTcsNDcuNDhMMS4xNyw0Ny40OHoiLz4mI3hhOwkJPC9nPiYjeGE7CQk8ZyBpZD0ic2hhcGU3MDg4LTQ2IiB0cmFuc2Zvcm09InRyYW5zbGF0ZSg3LjAwMTYxLC00Mi44MTM0KSI+JiN4YTsJCQk8dGl0bGUgaWQ9InRpdGxlMzExNzQzIj5TaGVldC43MDg4PC90aXRsZT4mI3hhOwkJCTxwYXRoIGlkPSJwYXRoMzExNzQ1IiBpbmtzY2FwZTpjb25uZWN0b3ItY3VydmF0dXJlPSIwIiBzdHlsZT0iZmlsbDojRkZCOTAwOyIgZD0iTTYuMDMsNDUuNTRjMCwyLjUzLDAsMi41MywwLDIuNTMgICAgIGMtMC4yNiwwLTAuMjYsMC0wLjI2LDBjLTAuMTQtMy4wNC0wLjE0LTMuMDQtMC4xNC0zLjA0QzQuOCw0NS4xNyw0LjgsNDUuMTcsNC44LDQ1LjE3Yy0xLjE5LDAuMTUtMi4zOCwwLjE1LTMuNTYsMCAgICAgYy0wLjgzLTAuMTQtMC44My0wLjE0LTAuODMtMC4xNGMtMC4xOCwzLTAuMTgsMy0wLjE4LDNjLTAuMjMsMC0wLjIzLDAtMC4yMywwYzAtMi40OSwwLTIuNDksMC0yLjQ5YzAtMS41MSwxLjA1LTIuNzMsMi4zMS0yLjczICAgICBjMS4zOCwwLDEuMzgsMCwxLjM4LDBDNC45OSw0Mi44MSw2LjAzLDQ0LjAzLDYuMDMsNDUuNTR6Ii8+JiN4YTsJCTwvZz4mI3hhOwkJPGcgaWQ9InNoYXBlNzA4OS00OCIgdHJhbnNmb3JtPSJ0cmFuc2xhdGUoMTAuODkwNCwtNDQuMTc1NikiPiYjeGE7CQkJPHRpdGxlIGlkPSJ0aXRsZTMxMTc0OCI+U2hlZXQuNzA4OTwvdGl0bGU+JiN4YTsJCQk8cGF0aCBpZD0icGF0aDMxMTc1MCIgaW5rc2NhcGU6Y29ubmVjdG9yLWN1cnZhdHVyZT0iMCIgc3R5bGU9ImZpbGw6I0ZGQjkwMDsiIGQ9Ik0wLjk3LDQ4LjA3YzAsMC0wLjA2LTAuMDMtMC4xNi0wLjEgICAgIGMtMC4wMywwLTAuMDYtMC4wMi0wLjEzLTAuMDZjLTAuMDItMC4wNC0wLjA2LTAuMDQtMC4wNi0wLjA0cy0wLjA0LTAuMDItMC4wNi0wLjAyYzAsMCwwLDAtMC4wNCwwYy0wLjEzLTAuMDQtMC4yNSwwLTAuMzUsMCAgICAgYy0wLjA0LDAtMC4wNywwLTAuMSwwcy0wLjA3LDAtMC4wNywwbDAsMGMwLTAuMDQsMC0wLjA0LDAtMC4wNHMwLjA3LTAuMDMsMC4xNy0wLjA2YzAuMS0wLjAzLDAuMjItMC4wNywwLjM5LTAuMDMgICAgIGMwLDAsMC4wMiwwLDAuMDYsMGMwLDAsMCwwLDAuMDQsMC4wM2MwLjAyLDAsMC4wNiwwLjAzLDAuMDksMC4wM2MwLjA2LDAuMDcsMC4xLDAuMDksMC4xMiwwLjEzYzAuMDQsMC4wNCwwLjA4LDAuMSwwLjEsMC4xICAgICBDMC45Nyw0OC4wNCwwLjk3LDQ4LjA3LDAuOTcsNDguMDdMMC45Nyw0OC4wN0MwLjk3LDQ4LjA3LDAuOTcsNDguMDcsMC45Nyw0OC4wN3oiLz4mI3hhOwkJPC9nPiYjeGE7CQk8ZyBpZD0ic2hhcGU3MDkwLTUwIiB0cmFuc2Zvcm09InRyYW5zbGF0ZSg4LjE2ODI0LC00NC4xODE3KSI+JiN4YTsJCQk8dGl0bGUgaWQ9InRpdGxlMzExNzUzIj5TaGVldC43MDkwPC90aXRsZT4mI3hhOwkJCTxwYXRoIGlkPSJwYXRoMzExNzU1IiBpbmtzY2FwZTpjb25uZWN0b3ItY3VydmF0dXJlPSIwIiBzdHlsZT0iZmlsbDojRkZCOTAwOyIgZD0iTTAuOTUsNDcuODVjMCwwLTAuMDYsMC0wLjE2LTAuMDMgICAgIGMtMC4wNCwwLTAuMSwwLTAuMTYsMGMtMC4wMiwwLTAuMDYsMC0wLjEsMEgwLjUxSDAuNDdjLTAuMTIsMC4wMy0wLjIxLDAuMS0wLjMxLDAuMTZjLTAuMDMsMC4wMy0wLjA2LDAuMDMtMC4wOSwwLjA3ICAgICBjLTAuMDMsMC0wLjAzLDAtMC4wMywwYzAsMC4wMi0wLjA0LDAuMDItMC4wNCwwbDAsMGMwLDAsMC4wNC0wLjA3LDAuMS0wLjEzYzAuMDktMC4xLDAuMTktMC4xNiwwLjM1LTAuMjRoMC4wMiAgICAgYzAuMDQsMCwwLjA0LDAsMC4wNiwwYzAuMDQsMCwwLjEsMCwwLjE0LDBjMC4wNiwwLDAuMDgsMC4wNCwwLjE2LDAuMDRjMC4wMiwwLjA0LDAuMDgsMC4wNiwwLjA4LDAuMDYgICAgIGMwLjA0LDAuMDQsMC4wNiwwLjA0LDAuMDYsMC4wNHMwLDAsMCwwLjAzQzAuOTcsNDcuODUsMC45NSw0Ny44NSwwLjk1LDQ3Ljg1eiIvPiYjeGE7CQk8L2c+JiN4YTsJCTxnIGlkPSJzaGFwZTcwOTEtNTIiIHRyYW5zZm9ybT0idHJhbnNsYXRlKDkuMzM0ODcsLTQyLjQyNDIpIj4mI3hhOwkJCTx0aXRsZSBpZD0idGl0bGUzMTE3NTgiPlNoZWV0LjcwOTE8L3RpdGxlPiYjeGE7CQkJPHBhdGggaWQ9InBhdGgzMTE3NjAiIGlua3NjYXBlOmNvbm5lY3Rvci1jdXJ2YXR1cmU9IjAiIHN0eWxlPSJmaWxsOiNEOUIwN0Y7IiBkPSJNMC43OCw0Ni4zMmMwLDEuNzUsMCwxLjc1LDAsMS43NSAgICAgYy0wLjc4LDAtMC43OCwwLTAuNzgsMGMwLTAuMDQsMC4wNS0wLjExLDAuMS0wLjE1YzAuMTMtMC4xMSwwLjIzLTAuMywwLjI4LTAuNTNjMC4wMy0wLjc2LDAuMDMtMC43NiwwLjAzLTAuNzYgICAgIEMwLjQxLDQ2LjQsMC42OSw0Ni4zMiwwLjc4LDQ2LjMyeiIvPiYjeGE7CQk8L2c+JiN4YTsJCTxnIGlkPSJzaGFwZTcwOTItNTQiIHRyYW5zZm9ybT0idHJhbnNsYXRlKDIuMzM1MSwtMjQuNTIwNCkiPiYjeGE7CQkJPHRpdGxlIGlkPSJ0aXRsZTMxMTc2MyI+U2hlZXQuNzA5MjwvdGl0bGU+JiN4YTsJCQk8cGF0aCBpZD0icGF0aDMxMTc2NSIgaW5rc2NhcGU6Y29ubmVjdG9yLWN1cnZhdHVyZT0iMCIgc3R5bGU9ImZpbGw6I0U2MUUyNzsiIGQ9Ik00LjA2LDQ4LjA3bDYuMDUtNS45bC00LjEyLTQuMjJMMCw0My44OCAgICAgTDQuMDYsNDguMDd6Ii8+JiN4YTsJCTwvZz4mI3hhOwkJPGcgaWQ9InNoYXBlNzA5My01NiIgdHJhbnNmb3JtPSJ0cmFuc2xhdGUoMi4zMzUxLC0yNC41MjA0KSI+JiN4YTsJCQk8dGl0bGUgaWQ9InRpdGxlMzExNzY4Ij5TaGVldC43MDkzPC90aXRsZT4mI3hhOwkJCTxwYXRoIGlkPSJwYXRoMzExNzcwIiBpbmtzY2FwZTpjb25uZWN0b3ItY3VydmF0dXJlPSIwIiBzdHlsZT0iZmlsbDojRUQ0RTVBOyIgZD0iTTQuMDYsNDguMDdsNi4wNS01Ljg0TDAsNDMuOTNMNC4wNiw0OC4wN3oiLz4mI3hhOwkJPC9nPiYjeGE7CQk8ZyBpZD0ic2hhcGU3MDk0LTU4IiB0cmFuc2Zvcm09InRyYW5zbGF0ZSgwLjM5MDcxNSwtMzAuOTQyNCkiPiYjeGE7CQkJPHRpdGxlIGlkPSJ0aXRsZTMxMTc3MyI+U2hlZXQuNzA5NDwvdGl0bGU+JiN4YTsJCQk8cGF0aCBpZD0icGF0aDMxMTc3NSIgaW5rc2NhcGU6Y29ubmVjdG9yLWN1cnZhdHVyZT0iMCIgc3R5bGU9ImZpbGw6I0NFOUM1RTsiIGQ9Ik0wLDQ2LjRsMi4zNiwxLjY3bDQuMDYtNC42NGwtMy4yNC0yLjM3TDAsNDYuNCAgICAgeiIvPiYjeGE7CQk8L2c+JiN4YTsJCTxnIGlkPSJzaGFwZTcwOTUtNjAiIHRyYW5zZm9ybT0idHJhbnNsYXRlKDMuMTgyNzQsLTM0LjcxNzQpIj4mI3hhOwkJCTx0aXRsZSBpZD0idGl0bGUzMTE3NzgiPlNoZWV0LjcwOTU8L3RpdGxlPiYjeGE7CQkJPHBhdGggaWQ9InBhdGgzMTE3ODAiIGlua3NjYXBlOmNvbm5lY3Rvci1jdXJ2YXR1cmU9IjAiIHN0eWxlPSJmaWxsOiNFNkU3RTg7IiBkPSJNMC4zOCw0NC45NWMwLjYzLTAuODYsMS44Ni0xLjA5LDIuNzYtMC40MiAgICAgYzAuODksMC42NCwxLjA3LDEuODUsMC40NCwyLjc0Yy0wLjY3LDAuODUtMS44NiwxLjA3LTIuNzYsMC40NUMtMC4wNyw0Ny4wOS0wLjI2LDQ1Ljg3LDAuMzgsNDQuOTV6Ii8+JiN4YTsJCTwvZz4mI3hhOwkJPGcgaWQ9InNoYXBlNzA5Ni02MiIgdHJhbnNmb3JtPSJ0cmFuc2xhdGUoNS40NDYxMSwtMjYuNTQzMikiPiYjeGE7CQkJPHRpdGxlIGlkPSJ0aXRsZTMxMTc4MyI+U2hlZXQuNzA5NjwvdGl0bGU+JiN4YTsJCQk8cGF0aCBpZD0icGF0aDMxMTc4NSIgaW5rc2NhcGU6Y29ubmVjdG9yLWN1cnZhdHVyZT0iMCIgc3R5bGU9ImZpbGw6I0NEOUI1RTsiIGQ9Ik0xLjUzLDQ2Ljk1YzAuOTIsMC44NywxLjM3LDAuOTQsMi40MiwxLjA5ICAgICBjMC42MywwLjEsMC44NS0wLjA4LDAuNjMtMC4zYzAuNTUsMC4yNiwxLjExLTAuMTIsMC43MS0wLjNjMC4xNCwwLDAuNTEtMC4xMSwwLjUxLTAuMzRjMC4wMy0wLjE4LTAuMzctMC4yMi0wLjUxLTAuMjIgICAgIGMwLjE0LTAuMiwwLjExLTAuNDUtMC4zOC0wLjQ5Yy0wLjM4LTAuMDMtMC42LTAuMjMtMC42LTAuMjNjMC40NS0wLjExLDAuNi0wLjQxLDAuNDktMC41OWMtMC40OSwwLjAzLTEuMjMtMC4xNi0xLjgyLTAuMTEgICAgIGMtMC4xMSwwLTAuMjIsMC4wMy0wLjMzLDAuMDdjLTIuMzgtMS40Ny0yLjM4LTEuNDctMi4zOC0xLjQ3QzAsNDYuMTMsMCw0Ni4xMywwLDQ2LjEzTDEuNTMsNDYuOTV6Ii8+JiN4YTsJCTwvZz4mI3hhOwkJPGcgaWQ9InNoYXBlNzA5Ny02NCIgdHJhbnNmb3JtPSJ0cmFuc2xhdGUoMCwtMzAuMzY3MSkiPiYjeGE7CQkJPHRpdGxlIGlkPSJ0aXRsZTMxMTc4OCI+U2hlZXQuNzA5NzwvdGl0bGU+JiN4YTsJCQk8cGF0aCBpZD0icGF0aDMxMTc5MCIgaW5rc2NhcGU6Y29ubmVjdG9yLWN1cnZhdHVyZT0iMCIgc3R5bGU9ImZpbGw6I0NFOUM1RTsiIGQ9Ik0yLjI1LDQ1LjQyYzAuNjgsMC40MiwwLjg2LDEuMjgsMC40OSwxLjk5ICAgICBjLTAuNDIsMC42NC0xLjMzLDAuODYtMi4wMSwwLjQ1QzAsNDcuNDktMC4xOSw0Ni41OCwwLjIsNDUuOTFDMC42NSw0NS4xOSwxLjUyLDQ0Ljk2LDIuMjUsNDUuNDJ6Ii8+JiN4YTsJCTwvZz4mI3hhOwkJPGcgaWQ9InNoYXBlNzA5OC02NiIgdHJhbnNmb3JtPSJ0cmFuc2xhdGUoMC43Nzk1OTEsLTI3LjYzNDEpIj4mI3hhOwkJCTx0aXRsZSBpZD0idGl0bGUzMTE3OTMiPlNoZWV0LjcwOTg8L3RpdGxlPiYjeGE7CQkJPHBhdGggaWQ9InBhdGgzMTE3OTUiIGlua3NjYXBlOmNvbm5lY3Rvci1jdXJ2YXR1cmU9IjAiIHN0eWxlPSJmaWxsOiNDRTlDNUU7IiBkPSJNNi4yMiw0OC4wN2wwLjM5LTEuODNsLTUuMTMtMy40M0wwLDQ1LjE2ICAgICBMNi4yMiw0OC4wN3oiLz4mI3hhOwkJPC9nPiYjeGE7CQk8ZyBpZD0ic2hhcGU3MDk5LTY4IiB0cmFuc2Zvcm09InRyYW5zbGF0ZSgxLjE2ODQ3LC0zMi4zMDQ2KSI+JiN4YTsJCQk8dGl0bGUgaWQ9InRpdGxlMzExNzk4Ij5TaGVldC43MDk5PC90aXRsZT4mI3hhOwkJCTxwYXRoIGlkPSJwYXRoMzExODAwIiBpbmtzY2FwZTpjb25uZWN0b3ItY3VydmF0dXJlPSIwIiBzdHlsZT0iZmlsbDojRTZFN0U4OyIgZD0iTTAsNDUuOTVsMy4yMSwyLjEybDMuNC0zLjk4bC0yLjczLTEuNjdIMi40MiAgICAgTDAsNDUuOTV6Ii8+JiN4YTsJCTwvZz4mI3hhOwkJPGcgaWQ9InNoYXBlNzEwMC03MCIgdHJhbnNmb3JtPSJ0cmFuc2xhdGUoMTIuODM0OCwtMzEuMTM3KSI+JiN4YTsJCQk8dGl0bGUgaWQ9InRpdGxlMzExODAzIj5TaGVldC43MTAwPC90aXRsZT4mI3hhOwkJCTxwYXRoIGlkPSJwYXRoMzExODA1IiBpbmtzY2FwZTpjb25uZWN0b3ItY3VydmF0dXJlPSIwIiBzdHlsZT0iZmlsbDojQ0U5QzVFOyIgZD0iTTYuMjIsNDYuNzVsLTIuMzQsMS4zMkwwLDQzLjU0bDMuMTEtMi4yOCAgICAgTDYuMjIsNDYuNzV6Ii8+JiN4YTsJCTwvZz4mI3hhOwkJPGcgaWQ9InNoYXBlNzEwMS03MiIgdHJhbnNmb3JtPSJ0cmFuc2xhdGUoMTIuMzI5MSwtMzQuOTA3NSkiPiYjeGE7CQkJPHRpdGxlIGlkPSJ0aXRsZTMxMTgwOCI+U2hlZXQuNzEwMTwvdGl0bGU+JiN4YTsJCQk8cGF0aCBpZD0icGF0aDMxMTgxMCIgaW5rc2NhcGU6Y29ubmVjdG9yLWN1cnZhdHVyZT0iMCIgc3R5bGU9ImZpbGw6I0U2RTdFODsiIGQ9Ik0zLjYsNDQuOTFjLTAuNjYtMC44Ni0xLjg1LTEuMDUtMi43OS0wLjQxICAgICBjLTAuODksMC42Ny0xLjA4LDEuODYtMC40LDIuNzdjMC42MywwLjg4LDEuODYsMS4wNywyLjc2LDAuNDNDNC4wMiw0Ny4wNyw0LjIsNDUuODQsMy42LDQ0LjkxeiIvPiYjeGE7CQk8L2c+JiN4YTsJCTxnIGlkPSJzaGFwZTcxMDItNzQiIHRyYW5zZm9ybT0idHJhbnNsYXRlKDEzLjIyMzYsLTIyLjcwMSkiPiYjeGE7CQkJPHRpdGxlIGlkPSJ0aXRsZTMxMTgxMyI+U2hlZXQuNzEwMjwvdGl0bGU+JiN4YTsJCQk8cGF0aCBpZD0icGF0aDMxMTgxNSIgaW5rc2NhcGU6Y29ubmVjdG9yLWN1cnZhdHVyZT0iMCIgc3R5bGU9ImZpbGw6I0NEOUI1RTsiIGQ9Ik0zLjI5LDQ1LjEzYy0wLjE4LDEuMi0wLjQ3LDEuNTMtMS4xNCwyLjMgICAgIGMtMC40LDAuNDctMC42OCwwLjQ3LTAuNjQsMC4xOGMtMC4yNiwwLjU1LTAuOSwwLjU4LTAuNzIsMC4yMmMtMC4xMSwwLjA3LTAuNDMsMC4yNS0wLjU3LDAuMDdjLTAuMTUtMC4xMSwwLjExLTAuNCwwLjIyLTAuNDcgICAgIGMtMC4yMi0wLjA3LTAuMzctMC4yOSwwLTAuNjJjMC4yNC0wLjI2LDAuMzEtMC41NSwwLjMxLTAuNTVDMC4zMyw0Ni40NCwwLjA0LDQ2LjMzLDAsNDYuMTFjMC40LTAuMjUsMC44My0wLjg3LDEuMjktMS4yICAgICBjMC4xMS0wLjA3LDAuMjItMC4xNSwwLjMzLTAuMThjMC44NS0yLjU3LDAuODUtMi41NywwLjg1LTIuNTdjMS40MiwxLjM2LDEuNDIsMS4zNiwxLjQyLDEuMzZMMy4yOSw0NS4xM3oiLz4mI3hhOwkJPC9nPiYjeGE7CQk8ZyBpZD0ic2hhcGU3MTAzLTc2IiB0cmFuc2Zvcm09InRyYW5zbGF0ZSgxNy4wODA3LC0zMC43MjEyKSI+JiN4YTsJCQk8dGl0bGUgaWQ9InRpdGxlMzExODE4Ij5TaGVldC43MTAzPC90aXRsZT4mI3hhOwkJCTxwYXRoIGlkPSJwYXRoMzExODIwIiBpbmtzY2FwZTpjb25uZWN0b3ItY3VydmF0dXJlPSIwIiBzdHlsZT0iZmlsbDojQ0U5QzVFOyIgZD0iTTAuNTIsNDUuODZjLTAuNSwwLjM0LTAuNjgsMS4xMS0wLjM1LDEuNjYgICAgIGMwLjMxLDAuNTMsMC45OSwwLjcyLDEuNTMsMC4zOGMwLjUzLTAuMzEsMC42Ni0xLjA0LDAuMzUtMS42MUMxLjczLDQ1LjcxLDEuMDUsNDUuNTEsMC41Miw0NS44NnoiLz4mI3hhOwkJPC9nPiYjeGE7CQk8ZyBpZD0ic2hhcGU3MTA0LTc4IiB0cmFuc2Zvcm09InRyYW5zbGF0ZSgxNC45NzM2LC0yNS40OTM0KSI+JiN4YTsJCQk8dGl0bGUgaWQ9InRpdGxlMzExODIzIj5TaGVldC43MTA0PC90aXRsZT4mI3hhOwkJCTxwYXRoIGlkPSJwYXRoMzExODI1IiBpbmtzY2FwZTpjb25uZWN0b3ItY3VydmF0dXJlPSIwIiBzdHlsZT0iZmlsbDojQ0U5QzVFOyIgZD0iTTEuNTEsNDguMDdMMCw0Ni44OWwxLjctNi4wMmwyLjU4LDEuMDYgICAgIEwxLjUxLDQ4LjA3eiIvPiYjeGE7CQk8L2c+JiN4YTsJCTxnIGlkPSJzaGFwZTcxMDUtODAiIHRyYW5zZm9ybT0idHJhbnNsYXRlKDExLjg2MjYsLTMyLjQ5OTMpIj4mI3hhOwkJCTx0aXRsZSBpZD0idGl0bGUzMTE4MjgiPlNoZWV0LjcxMDU8L3RpdGxlPiYjeGE7CQkJPHBhdGggaWQ9InBhdGgzMTE4MzAiIGlua3NjYXBlOmNvbm5lY3Rvci1jdXJ2YXR1cmU9IjAiIHN0eWxlPSJmaWxsOiNFNkU3RTg7IiBkPSJNNi40Miw0NmwtMy4wOCwyLjA3TDAsNDQuMjZsMi42NC0xLjY0aDEuNDcgICAgIEw2LjQyLDQ2eiIvPiYjeGE7CQk8L2c+JiN4YTsJPC9nPiYjeGE7PC9nPiYjeGE7PC9zdmc+;" parent="1" vertex="1">
          <mxGeometry x="397.5" y="750.5" width="27" height="68" as="geometry" />
        </mxCell>
        <mxCell id="AcxdMaKK0mU5kZiv2lnr-40" value="Azure Log Analytics" style="shape=image;verticalLabelPosition=bottom;labelBackgroundColor=none;verticalAlign=top;aspect=fixed;imageAspect=0;image=data:image/svg+xml,PHN2ZyB4bWxuczpkYz0iaHR0cDovL3B1cmwub3JnL2RjL2VsZW1lbnRzLzEuMS8iIHhtbG5zOmNjPSJodHRwOi8vY3JlYXRpdmVjb21tb25zLm9yZy9ucyMiIHhtbG5zOnJkZj0iaHR0cDovL3d3dy53My5vcmcvMTk5OS8wMi8yMi1yZGYtc3ludGF4LW5zIyIgeG1sbnM6c3ZnPSJodHRwOi8vd3d3LnczLm9yZy8yMDAwL3N2ZyIgeG1sbnM9Imh0dHA6Ly93d3cudzMub3JnLzIwMDAvc3ZnIiB4bWxuczpzb2RpcG9kaT0iaHR0cDovL3NvZGlwb2RpLnNvdXJjZWZvcmdlLm5ldC9EVEQvc29kaXBvZGktMC5kdGQiIHhtbG5zOmlua3NjYXBlPSJodHRwOi8vd3d3Lmlua3NjYXBlLm9yZy9uYW1lc3BhY2VzL2lua3NjYXBlIiB2ZXJzaW9uPSIxLjEiIGlkPSJzdmc4OTE5OCIgaW5rc2NhcGU6dmVyc2lvbj0iMC45Mi4zICgyNDA1NTQ2LCAyMDE4LTAzLTExKSIgc29kaXBvZGk6ZG9jbmFtZT0ib3BlcmF0aW9uc19tYW5hZ2VtZW50X3N1aXRlX29tcy5zdmciIHg9IjBweCIgeT0iMHB4IiB2aWV3Qm94PSIwIDAgNzMuMDUwMDAxIDczLjA1IiB4bWw6c3BhY2U9InByZXNlcnZlIiB3aWR0aD0iNzMuMDUwMDAzIiBoZWlnaHQ9IjczLjA1MDAwMyI+PG1ldGFkYXRhIGlkPSJtZXRhZGF0YTYyMzIiPjxyZGY6UkRGPjxjYzpXb3JrIHJkZjphYm91dD0iIj48ZGM6Zm9ybWF0PmltYWdlL3N2Zyt4bWw8L2RjOmZvcm1hdD48ZGM6dHlwZSByZGY6cmVzb3VyY2U9Imh0dHA6Ly9wdXJsLm9yZy9kYy9kY21pdHlwZS9TdGlsbEltYWdlIi8+PGRjOnRpdGxlLz48L2NjOldvcms+PC9yZGY6UkRGPjwvbWV0YWRhdGE+PGRlZnMgaWQ9ImRlZnM2MjMwIj4mI3hhOwkmI3hhOyYjeGE7CSYjeGE7JiN4YTsJJiN4YTsmI3hhOwkmI3hhOyYjeGE7CSYjeGE7JiN4YTsJJiN4YTsmI3hhOwkmI3hhOyYjeGE7CSYjeGE7JiN4YTsJJiN4YTsmI3hhOwkmI3hhOyYjeGE7CSYjeGE7JiN4YTsJJiN4YTsmI3hhOwkmI3hhOyYjeGE7CSYjeGE7JiN4YTsJJiN4YTsmI3hhOwkmI3hhOyYjeGE7CSYjeGE7JiN4YTsJJiN4YTsmI3hhOwkmI3hhOyYjeGE7CSYjeGE7JiN4YTsJJiN4YTsmI3hhOwkmI3hhOyYjeGE7CSYjeGE7JiN4YTsJJiN4YTsmI3hhOwkmI3hhOyYjeGE7CSYjeGE7JiN4YTsJJiN4YTsmI3hhOwkmI3hhOyYjeGE7CSYjeGE7PC9kZWZzPiYjeGE7PGZpbHRlciBpZD0iZmlsdGVyXzIiPiYjeGE7CTxmZUdhdXNzaWFuQmx1ciBpZD0iZmVHYXVzc2lhbkJsdXI4ODk1NSIgc3RkRGV2aWF0aW9uPSIyIi8+JiN4YTs8L2ZpbHRlcj4mI3hhOzxzb2RpcG9kaTpuYW1lZHZpZXcgYm9yZGVyY29sb3I9IiM2NjY2NjYiIGJvcmRlcm9wYWNpdHk9IjEiIGZpdC1tYXJnaW4tYm90dG9tPSIwIiBmaXQtbWFyZ2luLWxlZnQ9IjAiIGZpdC1tYXJnaW4tcmlnaHQ9IjAiIGZpdC1tYXJnaW4tdG9wPSIwIiBncmlkdG9sZXJhbmNlPSIxMCIgZ3VpZGV0b2xlcmFuY2U9IjEwIiBpZD0ibmFtZWR2aWV3ODkyMDAiIGlua3NjYXBlOmN1cnJlbnQtbGF5ZXI9InN2Zzg5MTk4IiBpbmtzY2FwZTpjeD0iMTMuNDUyMjgyIiBpbmtzY2FwZTpjeT0iNDEuMjY2NTYzIiBpbmtzY2FwZTpwYWdlb3BhY2l0eT0iMCIgaW5rc2NhcGU6cGFnZXNoYWRvdz0iMiIgaW5rc2NhcGU6d2luZG93LWhlaWdodD0iMTAxNyIgaW5rc2NhcGU6d2luZG93LW1heGltaXplZD0iMSIgaW5rc2NhcGU6d2luZG93LXdpZHRoPSIxOTIwIiBpbmtzY2FwZTp3aW5kb3cteD0iLTgiIGlua3NjYXBlOndpbmRvdy15PSItOCIgaW5rc2NhcGU6em9vbT0iNi42NjcwOTc2IiBvYmplY3R0b2xlcmFuY2U9IjEwIiBwYWdlY29sb3I9IiNmZmZmZmYiIHNob3dncmlkPSJmYWxzZSI+JiN4YTsJPC9zb2RpcG9kaTpuYW1lZHZpZXc+JiN4YTsmI3hhOzxyZWN0IGlkPSJyZWN0ODg5NjgiIHg9IjcuMzg5OTk5NCIgeT0iMzEuNjkwMDAxIiBzdHlsZT0iZmlsbDojNTliNGQ5IiB3aWR0aD0iNC44Mjk5OTk5IiBoZWlnaHQ9IjQuODI5OTk5OSIvPiYjeGE7JiN4YTs8cmVjdCBpZD0icmVjdDg4OTc2IiB4PSI3LjM4OTk5OTQiIHk9IjM4LjkzOTk5OSIgc3R5bGU9ImZpbGw6IzU5YjRkOSIgd2lkdGg9IjQuODI5OTk5OSIgaGVpZ2h0PSI0LjgyOTk5OTkiLz4mI3hhOyYjeGE7PHBhdGggaWQ9InBhdGg4ODk4NCIgaW5rc2NhcGU6Y29ubmVjdG9yLWN1cnZhdHVyZT0iMCIgc3R5bGU9ImZpbGw6IzU5YjRkOSIgZD0iTSA3LjM5MDAwMDYsMjkuMjggSCAxMi4yMjAwMDEgViAyNC45IGMgLTEuODEsMC45MSAtMy4zMjAwMDA0LDEuOTcgLTQuODMwMDAwNCwzLjE3IHoiLz4mI3hhOyYjeGE7PHJlY3QgaWQ9InJlY3Q4ODk5MiIgeD0iMTQuNjM5OTk5IiB5PSI1My41ODAwMDIiIHN0eWxlPSJmaWxsOiM1OWI0ZDkiIHdpZHRoPSI0LjgyOTk5OTkiIGhlaWdodD0iNC44Mjk5OTk5Ii8+JiN4YTsmI3hhOzxyZWN0IGlkPSJyZWN0ODkwMDAiIHg9IjE0LjYzOTk5OSIgeT0iNjAuODIiIHN0eWxlPSJmaWxsOiM1OWI0ZDkiIHdpZHRoPSI0LjgyOTk5OTkiIGhlaWdodD0iNC44Mjk5OTk5Ii8+JiN4YTsmI3hhOzxyZWN0IGlkPSJyZWN0ODkwMDgiIHg9IjE0LjYzOTk5OSIgeT0iNjguMjIwMDAxIiBzdHlsZT0iZmlsbDojNTliNGQ5IiB3aWR0aD0iNC44Mjk5OTk5IiBoZWlnaHQ9IjQuODI5OTk5OSIvPiYjeGE7JiN4YTs8cmVjdCBpZD0icmVjdDg5MDE2IiB4PSIxNC42Mzk5OTkiIHk9IjQ2LjMzMDAwMiIgc3R5bGU9ImZpbGw6IzU5YjRkOSIgd2lkdGg9IjQuODI5OTk5OSIgaGVpZ2h0PSI0LjgyOTk5OTkiLz4mI3hhOyYjeGE7PHJlY3QgaWQ9InJlY3Q4OTAyNCIgeD0iMCIgeT0iMzguOTM5OTk5IiBzdHlsZT0iZmlsbDojNTliNGQ5IiB3aWR0aD0iNC44Mjk5OTk5IiBoZWlnaHQ9IjQuODI5OTk5OSIvPiYjeGE7JiN4YTs8cmVjdCBpZD0icmVjdDg5MDMyIiB4PSI3LjM4OTk5OTQiIHk9IjYwLjgyIiBzdHlsZT0iZmlsbDojNTliNGQ5IiB3aWR0aD0iNC44Mjk5OTk5IiBoZWlnaHQ9IjQuODI5OTk5OSIvPiYjeGE7JiN4YTs8cmVjdCBpZD0icmVjdDg5MDQwIiB4PSIwIiB5PSI1My41ODAwMDIiIHN0eWxlPSJmaWxsOiM1OWI0ZDkiIHdpZHRoPSI0LjgyOTk5OTkiIGhlaWdodD0iNC44Mjk5OTk5Ii8+JiN4YTsmI3hhOzxyZWN0IGlkPSJyZWN0ODkwNDgiIHg9IjAiIHk9IjQ2LjMzMDAwMiIgc3R5bGU9ImZpbGw6IzU5YjRkOSIgd2lkdGg9IjQuODI5OTk5OSIgaGVpZ2h0PSI0LjgyOTk5OTkiLz4mI3hhOyYjeGE7PHBhdGggaWQ9InBhdGg4OTA1NiIgaW5rc2NhcGU6Y29ubmVjdG9yLWN1cnZhdHVyZT0iMCIgc3R5bGU9ImZpbGw6IzU5YjRkOSIgZD0ibSA3LjM5MDAwMDYsNjkuMjcgYyAxLjUxLDEuMjEgMy4xNzAwMDA0LDIuMjcgNC44MzAwMDA0LDMuMTcgViA2OC4wNiBIIDcuMzkwMDAwNiBaIi8+JiN4YTsmI3hhOzxwYXRoIGlkPSJwYXRoODkwNjQiIGlua3NjYXBlOmNvbm5lY3Rvci1jdXJ2YXR1cmU9IjAiIHN0eWxlPSJmaWxsOiM1OWI0ZDkiIGQ9Ik0gMC42MDAwMDA2MSwzNi41MiBIIDQuOTgwMDAwNiB2IC00LjgzIGggLTEuMjEgYyAtMS4zNiwxLjUxIC0yLjQyLDMuMDIgLTMuMTY5OTk5OTksNC44MyB6Ii8+JiN4YTsmI3hhOzxyZWN0IGlkPSJyZWN0ODkwNzIiIHg9IjcuMzg5OTk5NCIgeT0iNTMuNTgwMDAyIiBzdHlsZT0iZmlsbDojNTliNGQ5IiB3aWR0aD0iNC44Mjk5OTk5IiBoZWlnaHQ9IjQuODI5OTk5OSIvPiYjeGE7JiN4YTs8cGF0aCBpZD0icGF0aDg5MDgwIiBpbmtzY2FwZTpjb25uZWN0b3ItY3VydmF0dXJlPSIwIiBzdHlsZT0iZmlsbDojNTliNGQ5IiBkPSJtIDQzLjc3MDAwMSw2NS42NSBoIDEuMjEgYyAxLjIsLTEuNTEgMi4yNiwtMy4xNyAzLjE3LC00LjgzIGggLTQuMzggeiIvPiYjeGE7JiN4YTs8cmVjdCBpZD0icmVjdDg5MDg4IiB4PSIxNC42Mzk5OTkiIHk9IjM4LjkzOTk5OSIgc3R5bGU9ImZpbGw6IzU5YjRkOSIgd2lkdGg9IjQuODI5OTk5OSIgaGVpZ2h0PSI0LjgyOTk5OTkiLz4mI3hhOyYjeGE7PHJlY3QgaWQ9InJlY3Q4OTA5NiIgeD0iMzYuNTIwMDA0IiB5PSI2MC44MiIgc3R5bGU9ImZpbGw6IzU5YjRkOSIgd2lkdGg9IjQuODI5OTk5OSIgaGVpZ2h0PSI0LjgyOTk5OTkiLz4mI3hhOyYjeGE7PHBhdGggaWQ9InBhdGg4OTEwNCIgaW5rc2NhcGU6Y29ubmVjdG9yLWN1cnZhdHVyZT0iMCIgc3R5bGU9ImZpbGw6IzdmYmEwMCIgZD0ibSA0Ny41NDAwMDEsMCBjIC0xNC4wNCwwIC0yNS41MSwxMS40NyAtMjUuNTEsMjUuNSAwLDcuNTUgMCwyNS41MSAwLDI1LjUxIDAsMCAxOS4wMiwwIDI1LjUxLDAgMTQuMDMsMCAyNS41MSwtMTEuNDcgMjUuNTEsLTI1LjUxIDAsLTE0LjAzIC0xMS40OCwtMjUuNSAtMjUuNTEsLTI1LjUgeiIvPiYjeGE7JiN4YTs8cmVjdCBpZD0icmVjdDg5MTEyIiB4PSIzNC4xMTAwMDEiIHk9IjIxLjg3OTk5OSIgc3R5bGU9ImZpbGw6IzY4MjE3YSIgd2lkdGg9IjQuODI5OTk5OSIgaGVpZ2h0PSIxNC42NCIvPiYjeGE7JiN4YTs8cmVjdCBpZD0icmVjdDg5MTIwIiB4PSI0My43NzAwMDQiIHk9IjI2LjcwOTk5OSIgc3R5bGU9ImZpbGw6IzY4MjE3YSIgd2lkdGg9IjQuODI5OTk5OSIgaGVpZ2h0PSI5LjgxMDAwMDQiLz4mI3hhOyYjeGE7PHJlY3QgaWQ9InJlY3Q4OTEyOCIgeD0iNTMuNTgwMDAyIiB5PSIxNy4wNDk5OTkiIHN0eWxlPSJmaWxsOiM2ODIxN2EiIHdpZHRoPSI0LjgyOTk5OTkiIGhlaWdodD0iMTkuNDY5OTk5Ii8+JiN4YTsmI3hhOzxwYXRoIGlkPSJwYXRoODkxMzYiIGlua3NjYXBlOmNvbm5lY3Rvci1jdXJ2YXR1cmU9IjAiIHN0eWxlPSJmaWxsOiM1OWI0ZDkiIGQ9Im0gMzYuNTIwMDAxLDcyLjQ0IGMgMS44MSwtMC45IDMuMzIsLTEuOTYgNC44MywtMy4xNyB2IC0xLjIxIGggLTQuODMgeiIvPiYjeGE7JiN4YTs8cmVjdCBpZD0icmVjdDg5MTQ0IiB4PSI0My43NzAwMDQiIHk9IjUzLjU4MDAwMiIgc3R5bGU9ImZpbGw6IzU5YjRkOSIgd2lkdGg9IjQuODI5OTk5OSIgaGVpZ2h0PSI0LjgyOTk5OTkiLz4mI3hhOyYjeGE7PHJlY3QgaWQ9InJlY3Q4OTE1MiIgeD0iMzYuNTIwMDA0IiB5PSI1My41ODAwMDIiIHN0eWxlPSJmaWxsOiM1OWI0ZDkiIHdpZHRoPSI0LjgyOTk5OTkiIGhlaWdodD0iNC44Mjk5OTk5Ii8+JiN4YTsmI3hhOzxyZWN0IGlkPSJyZWN0ODkxNjAiIHg9IjIxLjg3OTk5NyIgeT0iNjAuODIiIHN0eWxlPSJmaWxsOiM1OWI0ZDkiIHdpZHRoPSI0LjgyOTk5OTkiIGhlaWdodD0iNC44Mjk5OTk5Ii8+JiN4YTsmI3hhOzxyZWN0IGlkPSJyZWN0ODkxNjgiIHg9IjE0LjYzOTk5OSIgeT0iMjQuMjk5OTk5IiBzdHlsZT0iZmlsbDojNTliNGQ5IiB3aWR0aD0iNC44Mjk5OTk5IiBoZWlnaHQ9IjQuOTgiLz4mI3hhOyYjeGE7PHJlY3QgaWQ9InJlY3Q4OTE3NiIgeD0iMjkuMjc5OTk5IiB5PSI2MC44MiIgc3R5bGU9ImZpbGw6IzU5YjRkOSIgd2lkdGg9IjQuODI5OTk5OSIgaGVpZ2h0PSI0LjgyOTk5OTkiLz4mI3hhOyYjeGE7PHJlY3QgaWQ9InJlY3Q4OTE4NCIgeD0iMjkuMjc5OTk5IiB5PSI2OC4yMjAwMDEiIHN0eWxlPSJmaWxsOiM1OWI0ZDkiIHdpZHRoPSI0LjgyOTk5OTkiIGhlaWdodD0iNC44Mjk5OTk5Ii8+JiN4YTsmI3hhOzxyZWN0IGlkPSJyZWN0ODkxOTIiIHg9IjIxLjg3OTk5NyIgeT0iNTMuNTgwMDAyIiBzdHlsZT0iZmlsbDojNTliNGQ5IiB3aWR0aD0iNC44Mjk5OTk5IiBoZWlnaHQ9IjQuODI5OTk5OSIvPiYjeGE7PC9zdmc+;" parent="1" vertex="1">
          <mxGeometry x="858.5" y="748" width="73" height="73" as="geometry" />
        </mxCell>
        <mxCell id="RLjyjs_sm2IHfBNOWAbh-1" value="3" style="ellipse;whiteSpace=wrap;html=1;aspect=fixed;fillColor=#4D9900;strokeColor=none;labelBackgroundColor=none;" parent="1" vertex="1">
          <mxGeometry x="274.5" y="410.5" width="23" height="23" as="geometry" />
        </mxCell>
        <mxCell id="RLjyjs_sm2IHfBNOWAbh-3" value="1" style="ellipse;whiteSpace=wrap;html=1;aspect=fixed;fillColor=#4D9900;strokeColor=none;labelBackgroundColor=none;" parent="1" vertex="1">
          <mxGeometry x="273" y="773.5" width="23" height="23" as="geometry" />
        </mxCell>
        <mxCell id="RLjyjs_sm2IHfBNOWAbh-4" value="1" style="ellipse;whiteSpace=wrap;html=1;aspect=fixed;fillColor=#4D9900;strokeColor=none;labelBackgroundColor=none;" parent="1" vertex="1">
          <mxGeometry x="133.5" y="583.5" width="23" height="23" as="geometry" />
        </mxCell>
        <mxCell id="RLjyjs_sm2IHfBNOWAbh-5" value="4" style="ellipse;whiteSpace=wrap;html=1;aspect=fixed;fillColor=#4D9900;strokeColor=none;labelBackgroundColor=none;" parent="1" vertex="1">
          <mxGeometry x="484.5" y="367.5" width="23" height="23" as="geometry" />
        </mxCell>
        <mxCell id="RLjyjs_sm2IHfBNOWAbh-6" value="5" style="ellipse;whiteSpace=wrap;html=1;aspect=fixed;fillColor=#4D9900;strokeColor=none;labelBackgroundColor=none;" parent="1" vertex="1">
          <mxGeometry x="484.5" y="479.5" width="23" height="23" as="geometry" />
        </mxCell>
        <mxCell id="RLjyjs_sm2IHfBNOWAbh-7" value="4" style="ellipse;whiteSpace=wrap;html=1;aspect=fixed;fillColor=#4D9900;strokeColor=none;labelBackgroundColor=none;" parent="1" vertex="1">
          <mxGeometry x="736" y="314" width="23" height="23" as="geometry" />
        </mxCell>
        <mxCell id="RLjyjs_sm2IHfBNOWAbh-8" value="5" style="ellipse;whiteSpace=wrap;html=1;aspect=fixed;fillColor=#4D9900;strokeColor=none;labelBackgroundColor=none;" parent="1" vertex="1">
          <mxGeometry x="736" y="562" width="23" height="23" as="geometry" />
        </mxCell>
        <mxCell id="RLjyjs_sm2IHfBNOWAbh-9" value="4" style="ellipse;whiteSpace=wrap;html=1;aspect=fixed;fillColor=#4D9900;strokeColor=none;labelBackgroundColor=none;" parent="1" vertex="1">
          <mxGeometry x="885" y="443.5" width="23" height="23" as="geometry" />
        </mxCell>
        <mxCell id="RLjyjs_sm2IHfBNOWAbh-10" value="6" style="ellipse;whiteSpace=wrap;html=1;aspect=fixed;fillColor=#4D9900;strokeColor=none;labelBackgroundColor=none;" parent="1" vertex="1">
          <mxGeometry x="884" y="667.5" width="23" height="23" as="geometry" />
        </mxCell>
        <mxCell id="RLjyjs_sm2IHfBNOWAbh-11" value="7" style="ellipse;whiteSpace=wrap;html=1;aspect=fixed;fillColor=#4D9900;strokeColor=none;labelBackgroundColor=none;" parent="1" vertex="1">
          <mxGeometry x="630" y="773.5" width="23" height="23" as="geometry" />
        </mxCell>
        <mxCell id="qhazRgXepDI2F2iA60wV-1" value="" style="rounded=0;whiteSpace=wrap;html=1;fillColor=#EAEDED;fontSize=22;fontColor=#FFFFFF;strokeColor=none;labelBackgroundColor=none;" parent="1" vertex="1">
          <mxGeometry x="1000" y="162" width="539" height="843" as="geometry" />
        </mxCell>
        <mxCell id="qhazRgXepDI2F2iA60wV-11" value="&lt;span&gt;Engineer Writes changes to the application.&lt;/span&gt;" style="text;html=1;align=left;verticalAlign=top;spacingTop=-4;fontSize=14;labelBackgroundColor=none;whiteSpace=wrap;" parent="1" vertex="1">
          <mxGeometry x="1069.5" y="173.5" width="449" height="118" as="geometry" />
        </mxCell>
        <mxCell id="qhazRgXepDI2F2iA60wV-12" value="&lt;span&gt;Commits them to Github&lt;/span&gt;" style="text;html=1;align=left;verticalAlign=top;spacingTop=-4;fontSize=14;labelBackgroundColor=none;whiteSpace=wrap;" parent="1" vertex="1">
          <mxGeometry x="1068.5" y="296.5" width="450" height="115" as="geometry" />
        </mxCell>
        <mxCell id="qhazRgXepDI2F2iA60wV-13" value="&lt;span&gt;Github triggers Github Action&lt;/span&gt;" style="text;html=1;align=left;verticalAlign=top;spacingTop=-4;fontSize=14;labelBackgroundColor=none;whiteSpace=wrap;" parent="1" vertex="1">
          <mxGeometry x="1068.5" y="414.5" width="450" height="117" as="geometry" />
        </mxCell>
        <mxCell id="qhazRgXepDI2F2iA60wV-14" value="&lt;span&gt;If changes to the application software are made Hashicorp Packer runs and builds a new VM Image. That image gets published to Azure Compute Gallery and distributed to the Azure Virtual Machine Scale Sets via the Latest tag.&lt;/span&gt;" style="text;html=1;align=left;verticalAlign=top;spacingTop=-4;fontSize=14;labelBackgroundColor=none;whiteSpace=wrap;" parent="1" vertex="1">
          <mxGeometry x="1068.5" y="530.5" width="450" height="121" as="geometry" />
        </mxCell>
        <mxCell id="qhazRgXepDI2F2iA60wV-15" value="&lt;span&gt;If there are infrastructure&amp;nbsp;changes Terraform runs, checks the code, and deploys the changes to the environment.&amp;nbsp;&lt;/span&gt;" style="text;html=1;align=left;verticalAlign=top;spacingTop=-4;fontSize=14;labelBackgroundColor=none;whiteSpace=wrap;" parent="1" vertex="1">
          <mxGeometry x="1069.5" y="647.5" width="449" height="114" as="geometry" />
        </mxCell>
        <mxCell id="qhazRgXepDI2F2iA60wV-16" value="&lt;span&gt;The environment&amp;nbsp;sends logs and events to Log Analytics Workspace&lt;/span&gt;" style="text;html=1;align=left;verticalAlign=top;spacingTop=-4;fontSize=14;labelBackgroundColor=none;whiteSpace=wrap;" parent="1" vertex="1">
          <mxGeometry x="1069.5" y="763.5" width="450" height="118" as="geometry" />
        </mxCell>
        <mxCell id="qhazRgXepDI2F2iA60wV-17" value="&lt;span&gt;Log Analytics can be reviewed manually or have automated alerts, which are monitored by the engineer.&lt;/span&gt;" style="text;html=1;align=left;verticalAlign=top;spacingTop=-4;fontSize=14;labelBackgroundColor=none;whiteSpace=wrap;" parent="1" vertex="1">
          <mxGeometry x="1069.5" y="878.5" width="449" height="113" as="geometry" />
        </mxCell>
        <mxCell id="qhazRgXepDI2F2iA60wV-22" value="1" style="ellipse;whiteSpace=wrap;html=1;aspect=fixed;fillColor=#4D9900;strokeColor=none;labelBackgroundColor=none;" parent="1" vertex="1">
          <mxGeometry x="1020.0000000000001" y="180" width="23" height="23" as="geometry" />
        </mxCell>
        <mxCell id="qhazRgXepDI2F2iA60wV-23" value="2" style="ellipse;whiteSpace=wrap;html=1;aspect=fixed;fillColor=#4D9900;strokeColor=none;labelBackgroundColor=none;" parent="1" vertex="1">
          <mxGeometry x="1020.0000000000001" y="301" width="23" height="23" as="geometry" />
        </mxCell>
        <mxCell id="qhazRgXepDI2F2iA60wV-24" value="3" style="ellipse;whiteSpace=wrap;html=1;aspect=fixed;fillColor=#4D9900;strokeColor=none;labelBackgroundColor=none;" parent="1" vertex="1">
          <mxGeometry x="1020.0000000000001" y="422" width="23" height="23" as="geometry" />
        </mxCell>
        <mxCell id="qhazRgXepDI2F2iA60wV-25" value="4" style="ellipse;whiteSpace=wrap;html=1;aspect=fixed;fillColor=#4D9900;strokeColor=none;labelBackgroundColor=none;" parent="1" vertex="1">
          <mxGeometry x="1019.9999999999997" y="539" width="23" height="23" as="geometry" />
        </mxCell>
        <mxCell id="qhazRgXepDI2F2iA60wV-26" value="5" style="ellipse;whiteSpace=wrap;html=1;aspect=fixed;fillColor=#4D9900;strokeColor=none;labelBackgroundColor=none;" parent="1" vertex="1">
          <mxGeometry x="1019.9999999999997" y="651.5" width="23" height="23" as="geometry" />
        </mxCell>
        <mxCell id="qhazRgXepDI2F2iA60wV-27" value="6" style="ellipse;whiteSpace=wrap;html=1;aspect=fixed;fillColor=#4D9900;strokeColor=none;labelBackgroundColor=none;" parent="1" vertex="1">
          <mxGeometry x="1019.9999999999997" y="773" width="23" height="23" as="geometry" />
        </mxCell>
        <mxCell id="qhazRgXepDI2F2iA60wV-28" value="7" style="ellipse;whiteSpace=wrap;html=1;aspect=fixed;fillColor=#4D9900;strokeColor=none;labelBackgroundColor=none;" parent="1" vertex="1">
          <mxGeometry x="1020.0000000000001" y="881.5" width="23" height="23" as="geometry" />
        </mxCell>
        <mxCell id="PO159D4J5o7jx6t-_L3D-1" value="Github" style="shape=image;verticalLabelPosition=bottom;labelBackgroundColor=#ffffff;verticalAlign=top;aspect=fixed;imageAspect=0;image=data:image/svg+xml,PHN2ZyB4bWxuczpjYz0iaHR0cDovL2NyZWF0aXZlY29tbW9ucy5vcmcvbnMjIiB4bWxuczpkYz0iaHR0cDovL3B1cmwub3JnL2RjL2VsZW1lbnRzLzEuMS8iIHhtbG5zOmlua3NjYXBlPSJodHRwOi8vd3d3Lmlua3NjYXBlLm9yZy9uYW1lc3BhY2VzL2lua3NjYXBlIiB4bWxuczpyZGY9Imh0dHA6Ly93d3cudzMub3JnLzE5OTkvMDIvMjItcmRmLXN5bnRheC1ucyMiIHhtbG5zOnNvZGlwb2RpPSJodHRwOi8vc29kaXBvZGkuc291cmNlZm9yZ2UubmV0L0RURC9zb2RpcG9kaS0wLmR0ZCIgeG1sbnM6c3ZnPSJodHRwOi8vd3d3LnczLm9yZy8yMDAwL3N2ZyIgeG1sbnM9Imh0dHA6Ly93d3cudzMub3JnLzIwMDAvc3ZnIiB4bWxuczp4bGluaz0iaHR0cDovL3d3dy53My5vcmcvMTk5OS94bGluayIgdmVyc2lvbj0iMS4xIiBpZD0ic3ZnMTc1NjcxIiBpbmtzY2FwZTp2ZXJzaW9uPSIwLjkyLjMgKDI0MDU1NDYsIDIwMTgtMDMtMTEpIiBzb2RpcG9kaTpkb2NuYW1lPSJnaXRodWIuc3ZnIiB4PSIwcHgiIHk9IjBweCIgdmlld0JveD0iMCAwIDQ1LjI3IDQ1LjI5IiBzdHlsZT0iZW5hYmxlLWJhY2tncm91bmQ6bmV3IDAgMCA0NS4yNyA0NS4yOTsiIHhtbDpzcGFjZT0icHJlc2VydmUiPiYjeGE7PHNvZGlwb2RpOm5hbWVkdmlldyBib3JkZXJjb2xvcj0iIzY2NjY2NiIgYm9yZGVyb3BhY2l0eT0iMSIgZml0LW1hcmdpbi1ib3R0b209IjAiIGZpdC1tYXJnaW4tbGVmdD0iMCIgZml0LW1hcmdpbi1yaWdodD0iMCIgZml0LW1hcmdpbi10b3A9IjAiIGdyaWR0b2xlcmFuY2U9IjEwIiBndWlkZXRvbGVyYW5jZT0iMTAiIGlkPSJuYW1lZHZpZXcxNzU2NzMiIGlua3NjYXBlOmN1cnJlbnQtbGF5ZXI9InN2ZzE3NTY3MSIgaW5rc2NhcGU6Y3g9IjMwLjE3ODAyNSIgaW5rc2NhcGU6Y3k9IjMwLjE5NDMxOSIgaW5rc2NhcGU6cGFnZW9wYWNpdHk9IjAiIGlua3NjYXBlOnBhZ2VzaGFkb3c9IjIiIGlua3NjYXBlOndpbmRvdy1oZWlnaHQ9IjEwMTciIGlua3NjYXBlOndpbmRvdy1tYXhpbWl6ZWQ9IjEiIGlua3NjYXBlOndpbmRvdy13aWR0aD0iMTkyMCIgaW5rc2NhcGU6d2luZG93LXg9Ii04IiBpbmtzY2FwZTp3aW5kb3cteT0iLTgiIGlua3NjYXBlOnpvb209IjEwLjA5NTE1OCIgb2JqZWN0dG9sZXJhbmNlPSIxMCIgcGFnZWNvbG9yPSIjZmZmZmZmIiBzaG93Z3JpZD0iZmFsc2UiPiYjeGE7CTwvc29kaXBvZGk6bmFtZWR2aWV3PiYjeGE7PGcgaWQ9ImcxNzU2NjkiIHRyYW5zZm9ybT0idHJhbnNsYXRlKC05LjU2MjU0MTcsLTkuNTYxMzEpIj4mI3hhOwk8dGl0bGUgaWQ9InRpdGxlMTc1NjU5Ij5QYWdlLTE8L3RpdGxlPiYjeGE7CTxnIGlkPSJncm91cDIyNTAtMSIgdHJhbnNmb3JtPSJ0cmFuc2xhdGUoOS41NjMwOCwtOS4zNzg2OSkiPiYjeGE7CQk8dGl0bGUgaWQ9InRpdGxlMTc1NjYxIj5HaXRIdWI8L3RpdGxlPiYjeGE7CQk8ZyBpZD0ic2hhcGUyMjUxLTIiPiYjeGE7CQkJPHRpdGxlIGlkPSJ0aXRsZTE3NTY2MyI+U2hlZXQuMjI1MTwvdGl0bGU+JiN4YTsJCQk8cGF0aCBpZD0icGF0aDE3NTY2NSIgaW5rc2NhcGU6Y29ubmVjdG9yLWN1cnZhdHVyZT0iMCIgZD0iTTIyLjYzLDE4Ljk0QzEwLjE0LDE4Ljk0LDAsMjkuMzMsMCw0Mi4xNSAgICAgYy0wLjA3LDkuODksNi4xNSwxOC43MywxNS40OCwyMi4wMWMxLjEzLDAuMjIsMS41NC0wLjUsMS41NC0xLjExYzAtMC42MiwwLTIuMDEsMC0zLjk1Yy02LjI5LDEuNDEtNy42Mi0zLjExLTcuNjItMy4xMSAgICAgYy0xLjAzLTIuNjgtMi41MS0zLjQtMi41MS0zLjRjLTIuMDYtMS40MSwwLjE1LTEuNDEsMC4xNS0xLjQxYzIuMjcsMC4xNiwzLjQ3LDIuMzksMy40NywyLjM5YzIuMDIsMy41NCw1LjMsMi41Miw2LjU4LDEuOTMgICAgIGMwLjEtMS4xNywwLjYtMi4yNiwxLjQyLTMuMUMxMy40OCw1MS44MSw4LjIsNDkuODIsOC4yLDQwLjkyYy0wLjA0LTIuMjksMC43OS00LjUxLDIuMzItNi4yMmMtMC42OS0yLTAuNjEtNC4xOSwwLjIyLTYuMTQgICAgIGMwLDAsMS45MS0wLjYyLDYuMjMsMi40YzMuNy0xLjA0LDcuNjItMS4wNCwxMS4zMiwwYzQuMzItMyw2LjIyLTIuMzcsNi4yMi0yLjM3YzAuODMsMS45NSwwLjkxLDQuMTQsMC4yMiw2LjE0ICAgICBjMS41MywxLjcsMi4zNywzLjkzLDIuMzMsNi4yMmMwLDguOTEtNS4yOSwxMC44OC0xMC4zMywxMS40NWMwLjgxLDAuNzEsMS41MywyLjEyLDEuNTMsNC4zYzAsMy4xMSwwLDUuNjEsMCw2LjM3ICAgICBjMCwwLjYyLDAuNDEsMS4zNCwxLjU2LDEuMTJjOS4zMy0zLjMsMTUuNTMtMTIuMTUsMTUuNDUtMjIuMDRDNDUuMjcsMjkuMzMsMzUuMTMsMTguOTQsMjIuNjMsMTguOTR6Ii8+JiN4YTsJCTwvZz4mI3hhOwk8L2c+JiN4YTs8L2c+JiN4YTs8L3N2Zz4=;" vertex="1" parent="1">
          <mxGeometry x="424.5" y="1056.5" width="60" height="60" as="geometry" />
        </mxCell>
        <mxCell id="PO159D4J5o7jx6t-_L3D-2" value="Project Manager" style="shape=mxgraph.cisco.people.sitting_woman;html=1;pointerEvents=1;dashed=0;fillColor=#036897;strokeColor=#ffffff;strokeWidth=2;verticalLabelPosition=bottom;verticalAlign=top;align=center;outlineConnect=0;" vertex="1" parent="1">
          <mxGeometry x="613" y="1041.5" width="56" height="90" as="geometry" />
        </mxCell>
        <mxCell id="PO159D4J5o7jx6t-_L3D-3" value="Leadership" style="shape=mxgraph.cisco.people.man_woman;html=1;pointerEvents=1;dashed=0;fillColor=#036897;strokeColor=#ffffff;strokeWidth=2;verticalLabelPosition=bottom;verticalAlign=top;align=center;outlineConnect=0;" vertex="1" parent="1">
          <mxGeometry x="613" y="1181.5" width="58.13" height="85" as="geometry" />
        </mxCell>
        <mxCell id="PO159D4J5o7jx6t-_L3D-4" value="Customers" style="verticalLabelPosition=bottom;sketch=0;html=1;fillColor=#282828;strokeColor=none;verticalAlign=top;pointerEvents=1;align=center;shape=mxgraph.cisco_safe.people_places_things_icons.icon1;" vertex="1" parent="1">
          <mxGeometry x="712.5" y="1056.5" width="46.5" height="50" as="geometry" />
        </mxCell>
        <mxCell id="PO159D4J5o7jx6t-_L3D-11" style="edgeStyle=elbowEdgeStyle;rounded=0;orthogonalLoop=1;jettySize=auto;elbow=vertical;html=1;strokeColor=#808080;entryX=1;entryY=0.5;entryDx=0;entryDy=0;startArrow=none;" edge="1" parent="1" source="PO159D4J5o7jx6t-_L3D-12" target="PO159D4J5o7jx6t-_L3D-1">
          <mxGeometry relative="1" as="geometry">
            <mxPoint x="668.5" y="1018" as="sourcePoint" />
            <mxPoint x="441" y="1018" as="targetPoint" />
          </mxGeometry>
        </mxCell>
        <mxCell id="PO159D4J5o7jx6t-_L3D-12" value="1" style="ellipse;whiteSpace=wrap;html=1;aspect=fixed;fillColor=#4D9900;strokeColor=none;labelBackgroundColor=none;" vertex="1" parent="1">
          <mxGeometry x="544" y="1075" width="23" height="23" as="geometry" />
        </mxCell>
        <mxCell id="PO159D4J5o7jx6t-_L3D-14" value="" style="edgeStyle=elbowEdgeStyle;rounded=0;orthogonalLoop=1;jettySize=auto;elbow=vertical;html=1;strokeColor=#808080;entryX=1;entryY=0.5;entryDx=0;entryDy=0;endArrow=none;" edge="1" parent="1" source="PO159D4J5o7jx6t-_L3D-2" target="PO159D4J5o7jx6t-_L3D-12">
          <mxGeometry relative="1" as="geometry">
            <mxPoint x="613" y="1086.5" as="sourcePoint" />
            <mxPoint x="484.5" y="1086.5" as="targetPoint" />
          </mxGeometry>
        </mxCell>
        <mxCell id="PO159D4J5o7jx6t-_L3D-15" value="Engineer" style="shape=image;verticalLabelPosition=bottom;labelBackgroundColor=none;verticalAlign=top;aspect=fixed;imageAspect=0;image=data:image/svg+xml,PHN2ZyB4bWxuczpjYz0iaHR0cDovL2NyZWF0aXZlY29tbW9ucy5vcmcvbnMjIiB4bWxuczpkYz0iaHR0cDovL3B1cmwub3JnL2RjL2VsZW1lbnRzLzEuMS8iIHhtbG5zOmlua3NjYXBlPSJodHRwOi8vd3d3Lmlua3NjYXBlLm9yZy9uYW1lc3BhY2VzL2lua3NjYXBlIiB4bWxuczpyZGY9Imh0dHA6Ly93d3cudzMub3JnLzE5OTkvMDIvMjItcmRmLXN5bnRheC1ucyMiIHhtbG5zOnNvZGlwb2RpPSJodHRwOi8vc29kaXBvZGkuc291cmNlZm9yZ2UubmV0L0RURC9zb2RpcG9kaS0wLmR0ZCIgeG1sbnM6c3ZnPSJodHRwOi8vd3d3LnczLm9yZy8yMDAwL3N2ZyIgeG1sbnM9Imh0dHA6Ly93d3cudzMub3JnLzIwMDAvc3ZnIiB4bWxuczp4bGluaz0iaHR0cDovL3d3dy53My5vcmcvMTk5OS94bGluayIgdmVyc2lvbj0iMS4xIiBpZD0ic3ZnMzExODM2IiBpbmtzY2FwZTp2ZXJzaW9uPSIwLjkyLjMgKDI0MDU1NDYsIDIwMTgtMDMtMTEpIiBzb2RpcG9kaTpkb2NuYW1lPSJkZXZlbG9wZXJfNS5zdmciIHg9IjBweCIgeT0iMHB4IiB2aWV3Qm94PSIwIDAgMTkuMjkgNDguMDciIHN0eWxlPSJlbmFibGUtYmFja2dyb3VuZDpuZXcgMCAwIDE5LjI5IDQ4LjA3OyIgeG1sOnNwYWNlPSJwcmVzZXJ2ZSI+JiN4YTs8c29kaXBvZGk6bmFtZWR2aWV3IGJvcmRlcmNvbG9yPSIjNjY2NjY2IiBib3JkZXJvcGFjaXR5PSIxIiBmaXQtbWFyZ2luLWJvdHRvbT0iMCIgZml0LW1hcmdpbi1sZWZ0PSIwIiBmaXQtbWFyZ2luLXJpZ2h0PSIwIiBmaXQtbWFyZ2luLXRvcD0iMCIgZ3JpZHRvbGVyYW5jZT0iMTAiIGd1aWRldG9sZXJhbmNlPSIxMCIgaWQ9Im5hbWVkdmlldzMxMTgzOCIgaW5rc2NhcGU6Y3VycmVudC1sYXllcj0ic3ZnMzExODM2IiBpbmtzY2FwZTpjeD0iMTIuODYzMjIyIiBpbmtzY2FwZTpjeT0iMzIuMDQ4MDkyIiBpbmtzY2FwZTpwYWdlb3BhY2l0eT0iMCIgaW5rc2NhcGU6cGFnZXNoYWRvdz0iMiIgaW5rc2NhcGU6d2luZG93LWhlaWdodD0iMTAxNyIgaW5rc2NhcGU6d2luZG93LW1heGltaXplZD0iMSIgaW5rc2NhcGU6d2luZG93LXdpZHRoPSIxOTIwIiBpbmtzY2FwZTp3aW5kb3cteD0iLTgiIGlua3NjYXBlOndpbmRvdy15PSItOCIgaW5rc2NhcGU6em9vbT0iMTMuNTI3NzczIiBvYmplY3R0b2xlcmFuY2U9IjEwIiBwYWdlY29sb3I9IiNmZmZmZmYiIHNob3dncmlkPSJmYWxzZSI+JiN4YTsJPC9zb2RpcG9kaTpuYW1lZHZpZXc+JiN4YTs8ZyBpZD0iZzMxMTgzNCIgdHJhbnNmb3JtPSJ0cmFuc2xhdGUoLTAuMDAxNzcxNzcsMC4wMDM0KSI+JiN4YTsJPHRpdGxlIGlkPSJ0aXRsZTMxMTYyOSI+UGFnZS0xPC90aXRsZT4mI3hhOwk8ZyBpZD0iZ3JvdXA3MDY1LTEiPiYjeGE7CQk8dGl0bGUgaWQ9InRpdGxlMzExNjMxIj5EZXZlbG9wZXIgIzU8L3RpdGxlPiYjeGE7CQk8ZyBpZD0ic2hhcGU3MDY2LTIiIHRyYW5zZm9ybT0idHJhbnNsYXRlKDExLjQ3MzcsLTEuMzYyMjQpIj4mI3hhOwkJCTx0aXRsZSBpZD0idGl0bGUzMTE2MzMiPlNoZWV0LjcwNjY8L3RpdGxlPiYjeGE7CQkJPHBhdGggaWQ9InBhdGgzMTE2MzUiIGlua3NjYXBlOmNvbm5lY3Rvci1jdXJ2YXR1cmU9IjAiIGQ9Ik0wLDQ3Ljk3bDIuMzEsMC4xbDAuMDItMi45MmgtMi4xTDAsNDcuOTd6Ii8+JiN4YTsJCTwvZz4mI3hhOwkJPGcgaWQ9InNoYXBlNzA2Ny00IiB0cmFuc2Zvcm09InRyYW5zbGF0ZSgxMC44OTA0KSI+JiN4YTsJCQk8dGl0bGUgaWQ9InRpdGxlMzExNjM4Ij5TaGVldC43MDY3PC90aXRsZT4mI3hhOwkJCTxwYXRoIGlkPSJwYXRoMzExNjQwIiBpbmtzY2FwZTpjb25uZWN0b3ItY3VydmF0dXJlPSIwIiBzdHlsZT0iZmlsbDojNUMyRDkxOyIgZD0iTTAsNDcuODZjMi4xNiwwLjExLDIuMTYsMC4xMSwyLjE2LDAuMTEgICAgIGMwLjEyLTAuMzMsMC4xMi0wLjMzLDAuMTItMC4zM2MwLjcxLDAuMTEsMi4xNiwwLjMzLDIuOTgsMC40M2MwLjU2LDAsMS4zNCwwLDEuNzktMC4yMWMwLDAsMC4xNC0wLjExLDAuMTQtMC4yMiAgICAgYzAtMC44Ni0zLjQyLTEuMzItNC4zMS0yLjNjLTAuMTIsMC0wLjEyLDAtMC4xMiwwQzIuNSw0NS41NiwyLjI4LDQ2LDEuNzMsNDZjLTAuNTYsMC0xLjAxLTAuNTUtMS4yNC0wLjY2ICAgICBDMC4xMiw0NS41NiwwLDQ3Ljc1LDAsNDcuODZ6Ii8+JiN4YTsJCTwvZz4mI3hhOwkJPGcgaWQ9InNoYXBlNzA2OC02IiB0cmFuc2Zvcm09InRyYW5zbGF0ZSgzLjExMjg1LC0wLjM4OTIxMykiPiYjeGE7CQkJPHRpdGxlIGlkPSJ0aXRsZTMxMTY0MyI+U2hlZXQuNzA2ODwvdGl0bGU+JiN4YTsJCQk8cGF0aCBpZD0icGF0aDMxMTY0NSIgaW5rc2NhcGU6Y29ubmVjdG9yLWN1cnZhdHVyZT0iMCIgc3R5bGU9ImZpbGw6IzVDMkQ5MTsiIGQ9Ik0xLjE1LDQ1LjM0YzAsMC40OCwwLDAuNDgsMCwwLjQ4ICAgICBDMCw0Ny4zNSwwLDQ3LjM1LDAsNDcuMzVjMCwwLjUxLDAsMC41MSwwLDAuNTFjMCwwLjExLDAuMTEsMC4yMSwwLjIyLDAuMjFjMi40NywwLDIuNDcsMCwyLjQ3LDBjMC4yNSwwLDAuNDItMC4yMSwwLjQyLTAuNDMgICAgIGMwLTEuNDksMC0xLjQ5LDAtMS40OWMwLTAuNDgsMC0wLjQ4LDAtMC40OGMwLTAuMzMsMC0wLjMzLDAtMC4zM0wxLjE1LDQ1LjM0eiIvPiYjeGE7CQk8L2c+JiN4YTsJCTxnIGlkPSJzaGFwZTcwNjktOCIgdHJhbnNmb3JtPSJ0cmFuc2xhdGUoNC4yNzk0OCwtMy4xMTM3KSI+JiN4YTsJCQk8dGl0bGUgaWQ9InRpdGxlMzExNjQ4Ij5TaGVldC43MDY5PC90aXRsZT4mI3hhOwkJCTxwYXRoIGlkPSJwYXRoMzExNjUwIiBpbmtzY2FwZTpjb25uZWN0b3ItY3VydmF0dXJlPSIwIiBzdHlsZT0iZmlsbDojMDA3OEQ3OyIgZD0iTTcuMyw0OC4wN2MtMC4xOC0xLjE3LDAuMjMtNi45NC0wLjAzLTExLjA4ICAgICBjLTAuMjYtNC4wNC0xLjI1LTUuNjktMS4yNS01LjY5cy0wLjMzLTAuMjItMC40MSwwLjFjLTAuMDMsMC4xNS0xLjg4LDUuMy0xLjg4LDUuM3MtMS4yMSw5LjM1LTEuNywxMS4zN2MtMi4wMywwLTIuMDMsMC0yLjAzLDAgICAgIGMwLjUyLTEyLjAxLDAuNTItMTIuMDEsMC41Mi0xMi4wMWMwLjg5LTguNjIsMC44OS04LjYyLDAuODktOC42MmM4LjM3LTMuMzEsOC4zNy0zLjMxLDguMzctMy4zMWMtMC4yMywxLjE4LDAuOTEsNy4yLDAuODgsMTIuNzUgICAgIGMtMC4wOCw0LjY5LTEuMTQsMTAuMzEtMS4xMSwxMS4xOUw3LjMsNDguMDd6Ii8+JiN4YTsJCTwvZz4mI3hhOwkJPGcgaWQ9InNoYXBlNzA3MC0xMCIgdHJhbnNmb3JtPSJ0cmFuc2xhdGUoMy44OTA2LC0yLjkxOTA5KSI+JiN4YTsJCQk8dGl0bGUgaWQ9InRpdGxlMzExNjUzIj5TaGVldC43MDcwPC90aXRsZT4mI3hhOwkJCTxwYXRoIGlkPSJwYXRoMzExNjU1IiBpbmtzY2FwZTpjb25uZWN0b3ItY3VydmF0dXJlPSIwIiBzdHlsZT0iZmlsbDojMDA3OEQ3OyIgZD0iTTIuNjEsNDguMDdjLTIuNjEsMC0yLjYxLDAtMi42MSwwICAgICBjMC41Ni0xMi4zNCwwLjU2LTEyLjM0LDAuNTYtMTIuMzRjMC44Ny04Ljc5LDAuODctOC43OSwwLjg3LTguNzljOS4wNS0zLjU5LDkuMDUtMy41OSw5LjA1LTMuNTljLTAuMTEsMC41Ni0wLjExLDAuNTYtMC4xMSwwLjU2ICAgICBjLTAuMDgsMC40OCwwLjA3LDEuOTQsMC4yNSwzLjYzYzAuMjksMi40NCwwLjY2LDUuODEsMC42Miw5LjAzYy0wLjA0LDMuMDgtMC41MSw2LjU2LTAuODQsOC44M2MtMC4xNCwxLjE3LTAuMjUsMi4wNS0wLjI1LDIuMzQgICAgIGMwLjAzLDAuMzMsMC4wMywwLjMzLDAuMDMsMC4zM2MtMi44MywwLTIuODMsMC0yLjgzLDBjLTAuMDctMC4yNi0wLjA3LTAuMjYtMC4wNy0wLjI2Yy0wLjA3LTAuNTQtMC4wNC0xLjkzLDAtMy43ICAgICBjMC4wNy0yLjI2LDAuMTEtNS4wOC0wLjA0LTcuNDNjLTAuMTgtMy4xOC0wLjg1LTQuODMtMS4wNy01LjM0Yy0wLjI5LDAuODEtMS41NCw0LjI5LTEuODMsNS4xMmMtMC4wNywwLjctMS4yMiw5LjM4LTEuNjksMTEuMzUgICAgIEwyLjYxLDQ4LjA3eiBNMC42Nyw0Ny40NWMxLjQzLDAsMS40MywwLDEuNDMsMGMwLjUxLTIuNDEsMS42Mi0xMS4wMiwxLjY2LTExLjFjMC0wLjA3LDAtMC4wNywwLTAuMDdjMC43Mi0yLDEuODMtNS4xMiwxLjg3LTUuMjYgICAgIGMwLjA3LTAuMjIsMC4yMi0wLjMsMC4yOS0wLjMzYzAuMjktMC4xMSwwLjU1LDAuMDMsMC41OSwwLjA3YzAuMDgsMC4wNCwwLjA4LDAuMDQsMC4wOCwwLjA0YzAuMDMsMC4wNywwLjAzLDAuMDcsMC4wMywwLjA3ICAgICBjMC4wNCwwLjA3LDAuOTksMS43NSwxLjI0LDUuNzhjMC4xNSwyLjM4LDAuMDgsNS4yLDAuMDQsNy40NmMtMC4wNCwxLjQ0LTAuMDcsMi43Mi0wLjA0LDMuMzRjMS42OSwwLDEuNjksMCwxLjY5LDAgICAgIGMwLTAuNDQsMC4xMS0xLjEzLDAuMjctMi4xMmMwLjI5LTIuMjcsMC43Ni01LjcyLDAuOC04Ljc2YzAuMDQtMy4xOC0wLjMzLTYuNTItMC41OC04Ljk2Yy0wLjE4LTEuNTEtMC4yOS0yLjYtMC4yOS0zLjMgICAgIGMtNy43MiwzLjA4LTcuNzIsMy4wOC03LjcyLDMuMDhjLTAuODUsOC4zOC0wLjg1LDguMzgtMC44NSw4LjM4TDAuNjcsNDcuNDV6Ii8+JiN4YTsJCTwvZz4mI3hhOwkJPGcgaWQ9InNoYXBlNzA3MS0xMiIgdHJhbnNmb3JtPSJ0cmFuc2xhdGUoNC44NjI3OSwtMjMuNzQyKSI+JiN4YTsJCQk8dGl0bGUgaWQ9InRpdGxlMzExNjU4Ij5TaGVldC43MDcxPC90aXRsZT4mI3hhOwkJCTxwYXRoIGlkPSJwYXRoMzExNjYwIiBpbmtzY2FwZTpjb25uZWN0b3ItY3VydmF0dXJlPSIwIiBzdHlsZT0iZmlsbDojRTZFN0U4OyIgZD0iTTcuNTgsNDguMDdIMC4zNmwtMC4xMy04Ljg4TDAsMzQuNTRsNi44OS0wLjQ4ICAgICBMNy41OCw0OC4wN3oiLz4mI3hhOwkJPC9nPiYjeGE7CQk8ZyBpZD0ic2hhcGU3MDcyLTE0IiB0cmFuc2Zvcm09InRyYW5zbGF0ZSg0Ljg2Mjc5LC0zNS44MDc2KSI+JiN4YTsJCQk8dGl0bGUgaWQ9InRpdGxlMzExNjYzIj5TaGVldC43MDcyPC90aXRsZT4mI3hhOwkJCTxwYXRoIGlkPSJwYXRoMzExNjY1IiBpbmtzY2FwZTpjb25uZWN0b3ItY3VydmF0dXJlPSIwIiBzdHlsZT0iZmlsbDojRTZFN0U4OyIgZD0iTTAuNjYsNDguMDdMMCw0NS4ybDQuNjQtMS4wMmwwLjYxLDIuODQgICAgIEwwLjY2LDQ4LjA3eiIvPiYjeGE7CQk8L2c+JiN4YTsJCTxnIGlkPSJzaGFwZTcwNzMtMTYiIHRyYW5zZm9ybT0idHJhbnNsYXRlKDkuOTE4MTgsLTIzLjc0MikiPiYjeGE7CQkJPHRpdGxlIGlkPSJ0aXRsZTMxMTY2OCI+U2hlZXQuNzA3MzwvdGl0bGU+JiN4YTsJCQk8cGF0aCBpZD0icGF0aDMxMTY3MCIgaW5rc2NhcGU6Y29ubmVjdG9yLWN1cnZhdHVyZT0iMCIgc3R5bGU9ImZpbGw6I0U2RTdFODsiIGQ9Ik0wLDQ4LjA3aDQuNjdsMC4xNy04Ljg0bDAuMjItNC42M0wwLDM0LjI1ICAgICBWNDguMDd6Ii8+JiN4YTsJCTwvZz4mI3hhOwkJPGcgaWQ9InNoYXBlNzA3NC0xOCIgdHJhbnNmb3JtPSJ0cmFuc2xhdGUoOS41MjkzMSwtMzUuODA3NikiPiYjeGE7CQkJPHRpdGxlIGlkPSJ0aXRsZTMxMTY3MyI+U2hlZXQuNzA3NDwvdGl0bGU+JiN4YTsJCQk8cGF0aCBpZD0icGF0aDMxMTY3NSIgaW5rc2NhcGU6Y29ubmVjdG9yLWN1cnZhdHVyZT0iMCIgc3R5bGU9ImZpbGw6I0U2RTdFODsiIGQ9Ik01LjA2LDQ4LjA3bC01LjA2LTFsMC42LTIuODlsNS4wNCwxLjA0ICAgICBMNS4wNiw0OC4wN3oiLz4mI3hhOwkJPC9nPiYjeGE7CQk8ZyBpZD0ic2hhcGU3MDc1LTIwIiB0cmFuc2Zvcm09InRyYW5zbGF0ZSg3LjE5NjA1LC0zMi4zMDQ2KSI+JiN4YTsJCQk8dGl0bGUgaWQ9InRpdGxlMzExNjc4Ij5TaGVldC43MDc1PC90aXRsZT4mI3hhOwkJCTxwYXRoIGlkPSJwYXRoMzExNjgwIiBpbmtzY2FwZTpjb25uZWN0b3ItY3VydmF0dXJlPSIwIiBzdHlsZT0iZmlsbDojMDBCMjk0OyIgZD0iTTQuNDEsNDYuMDJjLTAuMTgsMC0wLjM2LDAuMDQtMC41MiwwLjE1ICAgICBjMC0wLjExLTAuMDQtMC4xOC0wLjA3LTAuMjZjLTAuMDgtMC4xOC0wLjA4LTAuMTgtMC4wOC0wLjE4Yy0wLjAzLTAuMTgtMC4xMS0wLjMzLTAuMTEtMC40YzAuMDgtMC4xNCwwLjA4LTAuMTQsMC4wOC0wLjE0ICAgICBjMC0wLjA0LDAtMC4wNC0wLjA0LTAuMDhjLTAuMTEtMC4xMi0wLjExLTAuMTItMC4xMS0wLjEyYzAtMC4wNC0wLjA0LTAuMDQtMC4wNC0wLjA0Yy0wLjQxLDAtMC40MSwwLTAuNDEsMCAgICAgYy0wLjA0LDAtMC4wNywwLjA0LTAuMDcsMC4wOGMwLDAuMDUsMC4wMywwLjA4LDAuMDcsMC4wOGMwLjM4LDAsMC4zOCwwLDAuMzgsMGMwLjA3LDAuMDgsMC4wNywwLjA4LDAuMDcsMC4wOCAgICAgYy0wLjA3LDAuMTQtMC4wNywwLjE0LTAuMDcsMC4xNHMwLDAsMCwwLjA0YzAuMDMsMCwwLjA3LDAuMTQsMC4xNCwwLjMzYy0xLjUyLDAtMS41MiwwLTEuNTIsMGMtMC4wMy0wLjExLTAuMDMtMC4xMS0wLjAzLTAuMTEgICAgIGMwLjE0LTAuMDQsMC4zNC0wLjExLDAuNDEtMC4yMmMtMC45MywwLTAuOTMsMC0wLjkzLDBjMCwwLjE0LDAuMTUsMC4yNSwwLjM0LDAuMjVjMC4wMywwLDAuMDMsMCwwLjA3LDBsMCwwICAgICBjMC4wNCwwLjE1LDAuMDQsMC4xNSwwLjA0LDAuMTVjLTAuMzcsMC40NC0wLjM3LDAuNDQtMC4zNywwLjQ0Yy0wLjE5LTAuMTEtMC4zOC0wLjE5LTAuNTktMC4xOUMwLjQ5LDQ2LjAyLDAsNDYuNDYsMCw0Ny4wNSAgICAgYzAsMC41NCwwLjQ5LDEuMDIsMS4wNSwxLjAyYzAuNDcsMCwwLjg4LTAuMzMsMC45OS0wLjc3YzAuMjIsMC4wNCwwLjIyLDAuMDQsMC4yMiwwLjA0YzAsMC4wNywwLjA3LDAuMTgsMC4xNiwwLjIyICAgICBjLTAuMDQsMC4yMi0wLjA0LDAuMjItMC4wNCwwLjIyYy0wLjEyLDAtMC4xMiwwLTAuMTIsMGMtMC4wNCwwLTAuMDcsMC0wLjA3LDAuMDNjMCwwLjA0LDAuMDMsMC4wOCwwLjA3LDAuMDhjMC4zLDAsMC4zLDAsMC4zLDAgICAgIGMwLjA0LDAsMC4wNC0wLjA0LDAuMDQtMC4wOGMwLTAuMDMsMC0wLjAzLTAuMDQtMC4wM2MtMC4wNywwLTAuMDcsMC0wLjA3LDBjMC4wNC0wLjIyLDAuMDQtMC4yMiwwLjA0LTAuMjIgICAgIGMwLjE0LDAsMC4yNS0wLjExLDAuMjUtMC4yNmMwLTAuMDMtMC4wMy0wLjA3LTAuMDctMC4xMWMxLjAzLTEuMTMsMS4wMy0xLjEzLDEuMDMtMS4xM2MwLjA0LDAuMDQsMC4wNCwwLjExLDAuMDgsMC4xNSAgICAgYy0wLjI2LDAuMjItMC40NCwwLjQ3LTAuNDQsMC44NGMwLDAuNTQsMC40NCwxLjAyLDEuMDMsMS4wMmMwLjYsMCwxLjAzLTAuNDgsMS4wMy0xLjAyQzUuNDQsNDYuNDYsNS4wMSw0Ni4wMiw0LjQxLDQ2LjAyeiAgICAgIE0xLjA1LDQ3LjkyYy0wLjQ5LDAtMC44OS0wLjQtMC44OS0wLjg3YzAtMC40OCwwLjQtMC44OCwwLjg5LTAuODhjMC4xOCwwLDAuMzIsMC4wNywwLjQ3LDAuMTVjLTAuNDcsMC42Mi0wLjQ3LDAuNjItMC40NywwLjYyICAgICBsMCwwYy0wLjA0LDAtMC4xMSwwLjAzLTAuMTEsMC4xMWgwLjAzYy0wLjAzLDAuMDMtMC4wMywwLjAzLTAuMDMsMC4wM2MwLjA3LDAsMC4wNywwLDAuMDcsMGMwLDAuMDQsMCwwLjA4LDAuMDQsMC4wOCAgICAgYzAuMDMsMCwwLjAzLTAuMDQsMC4wMy0wLjA0YzAuODIsMC4xNSwwLjgyLDAuMTUsMC44MiwwLjE1QzEuNzksNDcuNjMsMS40NSw0Ny45MiwxLjA1LDQ3LjkyeiBNMS45Myw0Ny4wNWMwLDAuMDMsMCwwLjA3LDAsMC4xMSAgICAgYy0wLjc4LTAuMTUtMC43OC0wLjE1LTAuNzgtMC4xNWMwLjQ5LTAuNjIsMC40OS0wLjYyLDAuNDktMC42MkMxLjgyLDQ2LjU3LDEuOTMsNDYuNzksMS45Myw0Ny4wNXogTTEuNzUsNDYuMjggICAgIGMwLjI5LTAuNCwwLjI5LTAuNCwwLjI5LTAuNGMwLjM4LDEuMjQsMC4zOCwxLjI0LDAuMzgsMS4yNGMtMC4wOSwwLjA0LTAuMDksMC4wNC0wLjEyLDAuMTFjLTAuMjItMC4wNy0wLjIyLTAuMDctMC4yMi0wLjA3ICAgICBjMC0wLjA0LDAtMC4wOCwwLTAuMTFDMi4wOCw0Ni43MiwxLjk3LDQ2LjQ2LDEuNzUsNDYuMjh6IE0yLjY3LDQ3LjA1YzAuMDgtMC4yMiwwLjA4LTAuMjIsMC4wOC0wLjIyYzAuMDcsMCwwLjA3LDAsMC4wNywwICAgICBjMC4wNCwwLDAuMDctMC4wNCwwLjA3LTAuMDRjMC0wLjA0LTAuMDMtMC4wNy0wLjA3LTAuMDdjLTAuMjYsMC0wLjI2LDAtMC4yNiwwYy0wLjAzLDAtMC4wNywwLjAzLTAuMDcsMC4wNyAgICAgYzAsMCwwLjA0LDAuMDQsMC4wNywwLjA0YzAuMDQsMCwwLjA0LDAsMC4wNCwwYy0wLjA0LDAuMjUtMC4wNCwwLjI1LTAuMDQsMC4yNWMtMC4wMywwLTAuMDMsMC0wLjAzLDBsMCwwICAgICBjLTAuMzgtMS4yNy0wLjM4LTEuMjctMC4zOC0xLjI3YzEuNTIsMCwxLjUyLDAsMS41MiwwYzAsMC4wMywwLDAuMDcsMC4wNCwwLjFMMi42Nyw0Ny4wNXogTTQuNDEsNDcuOTIgICAgIGMtMC40NywwLTAuODktMC40LTAuODktMC44N2MwLTAuMywwLjE1LTAuNTEsMC4zMy0wLjY2YzAuMDQsMC4wNywwLjA5LDAuMTUsMC4wOSwwLjIyYzAuMTEsMC4xOCwwLjI5LDAuMzMsMC4zNiwwLjQ0bDAsMCAgICAgYzAsMC4wMywwLjA0LDAuMTEsMC4xMSwwLjExczAuMTEtMC4wOCwwLjExLTAuMTFjMC0wLjA4LTAuMDQtMC4xMS0wLjExLTAuMTFsMCwwYy0wLjExLTAuMDgtMC4yOS0wLjIyLTAuMzYtMC40ICAgICBjMC0wLjA0LTAuMDQtMC4xMS0wLjA4LTAuMjJjMC4xMS0wLjA4LDAuMjYtMC4xNSwwLjQ0LTAuMTVjMC40OSwwLDAuODksMC40LDAuODksMC44OEM1LjMsNDcuNTIsNC45LDQ3LjkyLDQuNDEsNDcuOTJ6Ii8+JiN4YTsJCTwvZz4mI3hhOwkJPGcgaWQ9InNoYXBlNzA3Ni0yMiIgdHJhbnNmb3JtPSJ0cmFuc2xhdGUoOS45MTgxOCwtMzguMzM3NCkiPiYjeGE7CQkJPHRpdGxlIGlkPSJ0aXRsZTMxMTY4MyI+U2hlZXQuNzA3NjwvdGl0bGU+JiN4YTsJCQk8cGF0aCBpZD0icGF0aDMxMTY4NSIgaW5rc2NhcGU6Y29ubmVjdG9yLWN1cnZhdHVyZT0iMCIgc3R5bGU9ImZpbGw6I0YyN0FCNDsiIGQ9Ik0wLjE5LDQ3Ljg3YzAsMC4xNC0wLjA5LDAuMi0wLjE0LDAuMiAgICAgYzAsMCwwLDAtMC4wNS0wLjA2QzAuMTksNDcuODcsMC4xOSw0Ny44NywwLjE5LDQ3Ljg3TDAuMTksNDcuODd6Ii8+JiN4YTsJCTwvZz4mI3hhOwkJPGcgaWQ9InNoYXBlNzA3Ny0yNCIgdHJhbnNmb3JtPSJ0cmFuc2xhdGUoOC4xNjgyNCwtMzcuNzUzNikiPiYjeGE7CQkJPHRpdGxlIGlkPSJ0aXRsZTMxMTY4OCI+U2hlZXQuNzA3NzwvdGl0bGU+JiN4YTsJCQk8cGF0aCBpZD0icGF0aDMxMTY5MCIgaW5rc2NhcGU6Y29ubmVjdG9yLWN1cnZhdHVyZT0iMCIgc3R5bGU9ImZpbGw6I0NFOUM1RTsiIGQ9Ik0xLjg1LDQ4LjA3QzAuODQsNDguMDcsMCw0Ny4zOSwwLDQ2LjMzICAgICBjMC0xLjM4LDAtMS4zOCwwLTEuMzhjMy42OSwwLDMuNjksMCwzLjY5LDBjMCwxLjM4LDAsMS4zOCwwLDEuMzhDMy42OSw0Ny4zOSwyLjg3LDQ4LjA3LDEuODUsNDguMDd6Ii8+JiN4YTsJCTwvZz4mI3hhOwkJPGcgaWQ9InNoYXBlNzA3OC0yNiIgdHJhbnNmb3JtPSJ0cmFuc2xhdGUoNy4wMDE2MSwtMzkuNjk5NykiPiYjeGE7CQkJPHRpdGxlIGlkPSJ0aXRsZTMxMTY5MyI+U2hlZXQuNzA3ODwvdGl0bGU+JiN4YTsJCQk8cGF0aCBpZD0icGF0aDMxMTY5NSIgaW5rc2NhcGU6Y29ubmVjdG9yLWN1cnZhdHVyZT0iMCIgc3R5bGU9ImZpbGw6I0NFOUM1RTsiIGQ9Ik01LjgzLDQ0LjE0YzAsMi4zMy0xLjI2LDMuOTMtMi45MywzLjkzICAgICBjLTEuNjYsMC0yLjktMS42LTIuOS0zLjkzYzAtMi4zNSwxLjI0LTQuMjUsMi45LTQuMjVDNS4wMSwzOS44OSw1LjgzLDQxLjc5LDUuODMsNDQuMTR6Ii8+JiN4YTsJCTwvZz4mI3hhOwkJPGcgaWQ9InNoYXBlNzA3OS0yOCIgdHJhbnNmb3JtPSJ0cmFuc2xhdGUoNi42MTI3MywtNDIuNDI0MikiPiYjeGE7CQkJPHRpdGxlIGlkPSJ0aXRsZTMxMTY5OCI+U2hlZXQuNzA3OTwvdGl0bGU+JiN4YTsJCQk8cGF0aCBpZD0icGF0aDMxMTcwMCIgaW5rc2NhcGU6Y29ubmVjdG9yLWN1cnZhdHVyZT0iMCIgc3R5bGU9ImZpbGw6I0NFOUM1RTsiIGQ9Ik0wLjU4LDQ2LjMyYy0wLjMyLDAtMC4zMiwwLTAuMzIsMCAgICAgQzAuMSw0Ni4zMiwwLDQ2LjQ2LDAsNDYuNjNjMCwxLjEzLDAsMS4xMywwLDEuMTNjMCwwLjE3LDAuMSwwLjMxLDAuMjYsMC4zMWMwLjIsMCwwLjIsMCwwLjIsMEwwLjU4LDQ2LjMyeiIvPiYjeGE7CQk8L2c+JiN4YTsJCTxnIGlkPSJzaGFwZTcwODAtMzAiIHRyYW5zZm9ybT0idHJhbnNsYXRlKDEyLjY0MDMsLTQyLjQyNDIpIj4mI3hhOwkJCTx0aXRsZSBpZD0idGl0bGUzMTE3MDMiPlNoZWV0LjcwODA8L3RpdGxlPiYjeGE7CQkJPHBhdGggaWQ9InBhdGgzMTE3MDUiIGlua3NjYXBlOmNvbm5lY3Rvci1jdXJ2YXR1cmU9IjAiIHN0eWxlPSJmaWxsOiNDRTlDNUU7IiBkPSJNMCw0Ni4zMmMwLjQ2LDAsMC40NiwwLDAuNDYsMCAgICAgYzAuMiwwLDAuMzIsMC4xNCwwLjMyLDAuMzFjMCwxLjEzLDAsMS4xMywwLDEuMTNjMCwwLjE3LTAuMTIsMC4zMS0wLjMyLDAuMzFjLTAuMjksMC0wLjI5LDAtMC4yOSwwTDAsNDYuMzJ6Ii8+JiN4YTsJCTwvZz4mI3hhOwkJPGcgaWQ9InNoYXBlNzA4MS0zMiIgdHJhbnNmb3JtPSJ0cmFuc2xhdGUoOC41NTcxMSwtNDMuNTkxOCkiPiYjeGE7CQkJPHRpdGxlIGlkPSJ0aXRsZTMxMTcwOCI+U2hlZXQuNzA4MTwvdGl0bGU+JiN4YTsJCQk8cGF0aCBpZD0icGF0aDMxMTcxMCIgaW5rc2NhcGU6Y29ubmVjdG9yLWN1cnZhdHVyZT0iMCIgc3R5bGU9ImZpbGw6IzIzMUYyMDsiIGQ9Ik0wLjE5LDQ4LjA3YzAuMSwwLDAuMi0wLjA5LDAuMi0wLjIxICAgICBjMC0wLjA4LTAuMS0wLjE4LTAuMi0wLjE4QzAuMDcsNDcuNjgsMCw0Ny43OCwwLDQ3LjlDMCw0Ny45OCwwLjEsNDguMDcsMC4xOSw0OC4wN3oiLz4mI3hhOwkJPC9nPiYjeGE7CQk8ZyBpZD0ic2hhcGU3MDgyLTM0IiB0cmFuc2Zvcm09InRyYW5zbGF0ZSgxMS4wODQ4LC00My4zOTcyKSI+JiN4YTsJCQk8dGl0bGUgaWQ9InRpdGxlMzExNzEzIj5TaGVldC43MDgyPC90aXRsZT4mI3hhOwkJCTxwYXRoIGlkPSJwYXRoMzExNzE1IiBpbmtzY2FwZTpjb25uZWN0b3ItY3VydmF0dXJlPSIwIiBzdHlsZT0iZmlsbDojMjMxRjIwOyIgZD0iTTAuMTksNDguMDdjMC4xLDAsMC4yLTAuMTQsMC4yLTAuMzEgICAgIGMwLTAuMTMtMC4xLTAuMjgtMC4yLTAuMjhDMC4xLDQ3LjQ4LDAsNDcuNjMsMCw0Ny44QzAsNDcuOTMsMC4xLDQ4LjA3LDAuMTksNDguMDd6Ii8+JiN4YTsJCTwvZz4mI3hhOwkJPGcgaWQ9InNoYXBlNzA4My0zNiIgdHJhbnNmb3JtPSJ0cmFuc2xhdGUoOC4xNjgyNCwtMzkuNTA1MSkiPiYjeGE7CQkJPHRpdGxlIGlkPSJ0aXRsZTMxMTcxOCI+U2hlZXQuNzA4MzwvdGl0bGU+JiN4YTsJCQk8cGF0aCBpZD0icGF0aDMxMTcyMCIgaW5rc2NhcGU6Y29ubmVjdG9yLWN1cnZhdHVyZT0iMCIgc3R5bGU9ImZpbGw6I0NFOUM1RTsiIGQ9Ik0wLDQ2LjcxYzMuNSwwLDMuNSwwLDMuNSwwICAgICBjLTAuNDQsMC44My0xLjAzLDEuMzYtMS43NSwxLjM2QzEuMDUsNDguMDcsMC40NSw0Ny41NCwwLDQ2LjcxeiIvPiYjeGE7CQk8L2c+JiN4YTsJCTxnIGlkPSJzaGFwZTcwODQtMzgiIHRyYW5zZm9ybT0idHJhbnNsYXRlKDguMTY4MjQsLTM5LjMxMDUpIj4mI3hhOwkJCTx0aXRsZSBpZD0idGl0bGUzMTE3MjMiPlNoZWV0LjcwODQ8L3RpdGxlPiYjeGE7CQkJPHBhdGggaWQ9InBhdGgzMTE3MjUiIGlua3NjYXBlOmNvbm5lY3Rvci1jdXJ2YXR1cmU9IjAiIHN0eWxlPSJmaWxsOiNCQThENTc7IiBkPSJNMy42OSw0Ni45YzAsMC4yOSwwLDAuMjksMCwwLjI5ICAgICBjMCwwLjI4LTEuMTksMC44OC0xLjg0LDAuODhDMS4yNCw0OC4wNywwLDQ3LjYyLDAsNDcuMTljMC0wLjI5LDAtMC4yOSwwLTAuMjljMC4yNiwwLjI2LDAuNTUsMC40NiwwLjg3LDAuNjEgICAgIGMwLjMsMC4yNCwwLjYyLDAuMzUsMC45OCwwLjM1czAuNjktMC4xMSwwLjk4LTAuMzVDMy4xNiw0Ny4zNiwzLjQ1LDQ3LjE2LDMuNjksNDYuOXoiLz4mI3hhOwkJPC9nPiYjeGE7CQk8ZyBpZD0ic2hhcGU3MDg1LTQwIiB0cmFuc2Zvcm09InRyYW5zbGF0ZSg4Ljc1MTU1LC00MS4wNjE5KSI+JiN4YTsJCQk8dGl0bGUgaWQ9InRpdGxlMzExNzI4Ij5TaGVldC43MDg1PC90aXRsZT4mI3hhOwkJCTxwYXRoIGlkPSJwYXRoMzExNzMwIiBpbmtzY2FwZTpjb25uZWN0b3ItY3VydmF0dXJlPSIwIiBzdHlsZT0iZmlsbDojRkZGRkZGOyIgZD0iTTEuMTcsNDguMDdjMC41NCwwLDAuOC0wLjEyLDEuMTYtMC4yICAgICBjLTAuMTgsMC4wNC0wLjYyLDAuMDgtMS4xNiwwLjA4Yy0wLjU5LDAtMC45OS0wLjA0LTEuMTctMC4wOEMwLjM2LDQ3Ljk1LDAuNjIsNDguMDcsMS4xNyw0OC4wN3oiLz4mI3hhOwkJPC9nPiYjeGE7CQk8ZyBpZD0ic2hhcGU3MDg2LTQyIiB0cmFuc2Zvcm09InRyYW5zbGF0ZSg4Ljc1MTU1LC00MC44NjczKSI+JiN4YTsJCQk8dGl0bGUgaWQ9InRpdGxlMzExNzMzIj5TaGVldC43MDg2PC90aXRsZT4mI3hhOwkJCTxwYXRoIGlkPSJwYXRoMzExNzM1IiBpbmtzY2FwZTpjb25uZWN0b3ItY3VydmF0dXJlPSIwIiBzdHlsZT0iZmlsbDojQkIxNDFBOyIgZD0iTTEuMjksNDguMDdjLTAuMzgsMC0wLjYxLTAuMS0wLjg2LTAuMTUgICAgIGMtMC4wOS0wLjA1LTAuMi0wLjEtMC4zMS0wLjE0Yy0wLjAzLDAtMC4wMywwLTAuMDcsMEwwLDQ3LjczYzAuMDUtMC4wNSwwLjA1LTAuMDUsMC4wOS0wLjA1YzAsMCwwLjAzLDAsMC4wNywwICAgICBjMC4xOCwwLjA1LDAuNjEsMC4xLDEuMTMsMC4xYzAuNDgsMCwwLjkxLTAuMDUsMS4xMy0wLjFjMC4wMywwLDAuMDMsMCwwLjA3LDBzMC4wNCwwLDAuMDQsMC4wNWMwLDAsMCwwLjA1LTAuMDQsMC4wNSAgICAgYzAsMC0wLjA0LDAtMC4wNywwYy0wLjA3LDAuMDQtMC4xOCwwLjA5LTAuMzEsMC4xNEMxLjksNDcuOTcsMS42Myw0OC4wNywxLjI5LDQ4LjA3eiBNMC42MSw0Ny44N2MwLjE5LDAuMDUsMC40MSwwLjEsMC42OCwwLjEgICAgIHMwLjQ4LTAuMDUsMC42OC0wLjFjLTAuMjMsMC0wLjQ1LDAtMC42OCwwQzEuMDIsNDcuODcsMC44LDQ3Ljg3LDAuNjEsNDcuODd6Ii8+JiN4YTsJCTwvZz4mI3hhOwkJPGcgaWQ9InNoYXBlNzA4Ny00NCIgdHJhbnNmb3JtPSJ0cmFuc2xhdGUoOS4zMzQ4NywtNDEuODQwNCkiPiYjeGE7CQkJPHRpdGxlIGlkPSJ0aXRsZTMxMTczOCI+U2hlZXQuNzA4NzwvdGl0bGU+JiN4YTsJCQk8cGF0aCBpZD0icGF0aDMxMTc0MCIgaW5rc2NhcGU6Y29ubmVjdG9yLWN1cnZhdHVyZT0iMCIgc3R5bGU9ImZpbGw6I0JBOEQ1NzsiIGQ9Ik0xLjE3LDQ3LjQ4YzAsMC4xNS0wLjEsMC4zLTAuMjEsMC4yNSAgICAgYy0wLjA0LDAtMC4wNywwLjA5LTAuMTUsMC4xNGMtMC4wNiwwLjEtMC4xMywwLjItMC4yNCwwLjJjLTAuMDcsMC0wLjE4LTAuMS0wLjI0LTAuMmMtMC4wNy0wLjA1LTAuMTEtMC4xNC0wLjExLTAuMTQgICAgIEMwLjA3LDQ3Ljc4LDAsNDcuNjMsMCw0Ny40OGwwLDBDMS4xNyw0Ny40OCwxLjE3LDQ3LjQ4LDEuMTcsNDcuNDhMMS4xNyw0Ny40OHoiLz4mI3hhOwkJPC9nPiYjeGE7CQk8ZyBpZD0ic2hhcGU3MDg4LTQ2IiB0cmFuc2Zvcm09InRyYW5zbGF0ZSg3LjAwMTYxLC00Mi44MTM0KSI+JiN4YTsJCQk8dGl0bGUgaWQ9InRpdGxlMzExNzQzIj5TaGVldC43MDg4PC90aXRsZT4mI3hhOwkJCTxwYXRoIGlkPSJwYXRoMzExNzQ1IiBpbmtzY2FwZTpjb25uZWN0b3ItY3VydmF0dXJlPSIwIiBzdHlsZT0iZmlsbDojRkZCOTAwOyIgZD0iTTYuMDMsNDUuNTRjMCwyLjUzLDAsMi41MywwLDIuNTMgICAgIGMtMC4yNiwwLTAuMjYsMC0wLjI2LDBjLTAuMTQtMy4wNC0wLjE0LTMuMDQtMC4xNC0zLjA0QzQuOCw0NS4xNyw0LjgsNDUuMTcsNC44LDQ1LjE3Yy0xLjE5LDAuMTUtMi4zOCwwLjE1LTMuNTYsMCAgICAgYy0wLjgzLTAuMTQtMC44My0wLjE0LTAuODMtMC4xNGMtMC4xOCwzLTAuMTgsMy0wLjE4LDNjLTAuMjMsMC0wLjIzLDAtMC4yMywwYzAtMi40OSwwLTIuNDksMC0yLjQ5YzAtMS41MSwxLjA1LTIuNzMsMi4zMS0yLjczICAgICBjMS4zOCwwLDEuMzgsMCwxLjM4LDBDNC45OSw0Mi44MSw2LjAzLDQ0LjAzLDYuMDMsNDUuNTR6Ii8+JiN4YTsJCTwvZz4mI3hhOwkJPGcgaWQ9InNoYXBlNzA4OS00OCIgdHJhbnNmb3JtPSJ0cmFuc2xhdGUoMTAuODkwNCwtNDQuMTc1NikiPiYjeGE7CQkJPHRpdGxlIGlkPSJ0aXRsZTMxMTc0OCI+U2hlZXQuNzA4OTwvdGl0bGU+JiN4YTsJCQk8cGF0aCBpZD0icGF0aDMxMTc1MCIgaW5rc2NhcGU6Y29ubmVjdG9yLWN1cnZhdHVyZT0iMCIgc3R5bGU9ImZpbGw6I0ZGQjkwMDsiIGQ9Ik0wLjk3LDQ4LjA3YzAsMC0wLjA2LTAuMDMtMC4xNi0wLjEgICAgIGMtMC4wMywwLTAuMDYtMC4wMi0wLjEzLTAuMDZjLTAuMDItMC4wNC0wLjA2LTAuMDQtMC4wNi0wLjA0cy0wLjA0LTAuMDItMC4wNi0wLjAyYzAsMCwwLDAtMC4wNCwwYy0wLjEzLTAuMDQtMC4yNSwwLTAuMzUsMCAgICAgYy0wLjA0LDAtMC4wNywwLTAuMSwwcy0wLjA3LDAtMC4wNywwbDAsMGMwLTAuMDQsMC0wLjA0LDAtMC4wNHMwLjA3LTAuMDMsMC4xNy0wLjA2YzAuMS0wLjAzLDAuMjItMC4wNywwLjM5LTAuMDMgICAgIGMwLDAsMC4wMiwwLDAuMDYsMGMwLDAsMCwwLDAuMDQsMC4wM2MwLjAyLDAsMC4wNiwwLjAzLDAuMDksMC4wM2MwLjA2LDAuMDcsMC4xLDAuMDksMC4xMiwwLjEzYzAuMDQsMC4wNCwwLjA4LDAuMSwwLjEsMC4xICAgICBDMC45Nyw0OC4wNCwwLjk3LDQ4LjA3LDAuOTcsNDguMDdMMC45Nyw0OC4wN0MwLjk3LDQ4LjA3LDAuOTcsNDguMDcsMC45Nyw0OC4wN3oiLz4mI3hhOwkJPC9nPiYjeGE7CQk8ZyBpZD0ic2hhcGU3MDkwLTUwIiB0cmFuc2Zvcm09InRyYW5zbGF0ZSg4LjE2ODI0LC00NC4xODE3KSI+JiN4YTsJCQk8dGl0bGUgaWQ9InRpdGxlMzExNzUzIj5TaGVldC43MDkwPC90aXRsZT4mI3hhOwkJCTxwYXRoIGlkPSJwYXRoMzExNzU1IiBpbmtzY2FwZTpjb25uZWN0b3ItY3VydmF0dXJlPSIwIiBzdHlsZT0iZmlsbDojRkZCOTAwOyIgZD0iTTAuOTUsNDcuODVjMCwwLTAuMDYsMC0wLjE2LTAuMDMgICAgIGMtMC4wNCwwLTAuMSwwLTAuMTYsMGMtMC4wMiwwLTAuMDYsMC0wLjEsMEgwLjUxSDAuNDdjLTAuMTIsMC4wMy0wLjIxLDAuMS0wLjMxLDAuMTZjLTAuMDMsMC4wMy0wLjA2LDAuMDMtMC4wOSwwLjA3ICAgICBjLTAuMDMsMC0wLjAzLDAtMC4wMywwYzAsMC4wMi0wLjA0LDAuMDItMC4wNCwwbDAsMGMwLDAsMC4wNC0wLjA3LDAuMS0wLjEzYzAuMDktMC4xLDAuMTktMC4xNiwwLjM1LTAuMjRoMC4wMiAgICAgYzAuMDQsMCwwLjA0LDAsMC4wNiwwYzAuMDQsMCwwLjEsMCwwLjE0LDBjMC4wNiwwLDAuMDgsMC4wNCwwLjE2LDAuMDRjMC4wMiwwLjA0LDAuMDgsMC4wNiwwLjA4LDAuMDYgICAgIGMwLjA0LDAuMDQsMC4wNiwwLjA0LDAuMDYsMC4wNHMwLDAsMCwwLjAzQzAuOTcsNDcuODUsMC45NSw0Ny44NSwwLjk1LDQ3Ljg1eiIvPiYjeGE7CQk8L2c+JiN4YTsJCTxnIGlkPSJzaGFwZTcwOTEtNTIiIHRyYW5zZm9ybT0idHJhbnNsYXRlKDkuMzM0ODcsLTQyLjQyNDIpIj4mI3hhOwkJCTx0aXRsZSBpZD0idGl0bGUzMTE3NTgiPlNoZWV0LjcwOTE8L3RpdGxlPiYjeGE7CQkJPHBhdGggaWQ9InBhdGgzMTE3NjAiIGlua3NjYXBlOmNvbm5lY3Rvci1jdXJ2YXR1cmU9IjAiIHN0eWxlPSJmaWxsOiNEOUIwN0Y7IiBkPSJNMC43OCw0Ni4zMmMwLDEuNzUsMCwxLjc1LDAsMS43NSAgICAgYy0wLjc4LDAtMC43OCwwLTAuNzgsMGMwLTAuMDQsMC4wNS0wLjExLDAuMS0wLjE1YzAuMTMtMC4xMSwwLjIzLTAuMywwLjI4LTAuNTNjMC4wMy0wLjc2LDAuMDMtMC43NiwwLjAzLTAuNzYgICAgIEMwLjQxLDQ2LjQsMC42OSw0Ni4zMiwwLjc4LDQ2LjMyeiIvPiYjeGE7CQk8L2c+JiN4YTsJCTxnIGlkPSJzaGFwZTcwOTItNTQiIHRyYW5zZm9ybT0idHJhbnNsYXRlKDIuMzM1MSwtMjQuNTIwNCkiPiYjeGE7CQkJPHRpdGxlIGlkPSJ0aXRsZTMxMTc2MyI+U2hlZXQuNzA5MjwvdGl0bGU+JiN4YTsJCQk8cGF0aCBpZD0icGF0aDMxMTc2NSIgaW5rc2NhcGU6Y29ubmVjdG9yLWN1cnZhdHVyZT0iMCIgc3R5bGU9ImZpbGw6I0U2MUUyNzsiIGQ9Ik00LjA2LDQ4LjA3bDYuMDUtNS45bC00LjEyLTQuMjJMMCw0My44OCAgICAgTDQuMDYsNDguMDd6Ii8+JiN4YTsJCTwvZz4mI3hhOwkJPGcgaWQ9InNoYXBlNzA5My01NiIgdHJhbnNmb3JtPSJ0cmFuc2xhdGUoMi4zMzUxLC0yNC41MjA0KSI+JiN4YTsJCQk8dGl0bGUgaWQ9InRpdGxlMzExNzY4Ij5TaGVldC43MDkzPC90aXRsZT4mI3hhOwkJCTxwYXRoIGlkPSJwYXRoMzExNzcwIiBpbmtzY2FwZTpjb25uZWN0b3ItY3VydmF0dXJlPSIwIiBzdHlsZT0iZmlsbDojRUQ0RTVBOyIgZD0iTTQuMDYsNDguMDdsNi4wNS01Ljg0TDAsNDMuOTNMNC4wNiw0OC4wN3oiLz4mI3hhOwkJPC9nPiYjeGE7CQk8ZyBpZD0ic2hhcGU3MDk0LTU4IiB0cmFuc2Zvcm09InRyYW5zbGF0ZSgwLjM5MDcxNSwtMzAuOTQyNCkiPiYjeGE7CQkJPHRpdGxlIGlkPSJ0aXRsZTMxMTc3MyI+U2hlZXQuNzA5NDwvdGl0bGU+JiN4YTsJCQk8cGF0aCBpZD0icGF0aDMxMTc3NSIgaW5rc2NhcGU6Y29ubmVjdG9yLWN1cnZhdHVyZT0iMCIgc3R5bGU9ImZpbGw6I0NFOUM1RTsiIGQ9Ik0wLDQ2LjRsMi4zNiwxLjY3bDQuMDYtNC42NGwtMy4yNC0yLjM3TDAsNDYuNCAgICAgeiIvPiYjeGE7CQk8L2c+JiN4YTsJCTxnIGlkPSJzaGFwZTcwOTUtNjAiIHRyYW5zZm9ybT0idHJhbnNsYXRlKDMuMTgyNzQsLTM0LjcxNzQpIj4mI3hhOwkJCTx0aXRsZSBpZD0idGl0bGUzMTE3NzgiPlNoZWV0LjcwOTU8L3RpdGxlPiYjeGE7CQkJPHBhdGggaWQ9InBhdGgzMTE3ODAiIGlua3NjYXBlOmNvbm5lY3Rvci1jdXJ2YXR1cmU9IjAiIHN0eWxlPSJmaWxsOiNFNkU3RTg7IiBkPSJNMC4zOCw0NC45NWMwLjYzLTAuODYsMS44Ni0xLjA5LDIuNzYtMC40MiAgICAgYzAuODksMC42NCwxLjA3LDEuODUsMC40NCwyLjc0Yy0wLjY3LDAuODUtMS44NiwxLjA3LTIuNzYsMC40NUMtMC4wNyw0Ny4wOS0wLjI2LDQ1Ljg3LDAuMzgsNDQuOTV6Ii8+JiN4YTsJCTwvZz4mI3hhOwkJPGcgaWQ9InNoYXBlNzA5Ni02MiIgdHJhbnNmb3JtPSJ0cmFuc2xhdGUoNS40NDYxMSwtMjYuNTQzMikiPiYjeGE7CQkJPHRpdGxlIGlkPSJ0aXRsZTMxMTc4MyI+U2hlZXQuNzA5NjwvdGl0bGU+JiN4YTsJCQk8cGF0aCBpZD0icGF0aDMxMTc4NSIgaW5rc2NhcGU6Y29ubmVjdG9yLWN1cnZhdHVyZT0iMCIgc3R5bGU9ImZpbGw6I0NEOUI1RTsiIGQ9Ik0xLjUzLDQ2Ljk1YzAuOTIsMC44NywxLjM3LDAuOTQsMi40MiwxLjA5ICAgICBjMC42MywwLjEsMC44NS0wLjA4LDAuNjMtMC4zYzAuNTUsMC4yNiwxLjExLTAuMTIsMC43MS0wLjNjMC4xNCwwLDAuNTEtMC4xMSwwLjUxLTAuMzRjMC4wMy0wLjE4LTAuMzctMC4yMi0wLjUxLTAuMjIgICAgIGMwLjE0LTAuMiwwLjExLTAuNDUtMC4zOC0wLjQ5Yy0wLjM4LTAuMDMtMC42LTAuMjMtMC42LTAuMjNjMC40NS0wLjExLDAuNi0wLjQxLDAuNDktMC41OWMtMC40OSwwLjAzLTEuMjMtMC4xNi0xLjgyLTAuMTEgICAgIGMtMC4xMSwwLTAuMjIsMC4wMy0wLjMzLDAuMDdjLTIuMzgtMS40Ny0yLjM4LTEuNDctMi4zOC0xLjQ3QzAsNDYuMTMsMCw0Ni4xMywwLDQ2LjEzTDEuNTMsNDYuOTV6Ii8+JiN4YTsJCTwvZz4mI3hhOwkJPGcgaWQ9InNoYXBlNzA5Ny02NCIgdHJhbnNmb3JtPSJ0cmFuc2xhdGUoMCwtMzAuMzY3MSkiPiYjeGE7CQkJPHRpdGxlIGlkPSJ0aXRsZTMxMTc4OCI+U2hlZXQuNzA5NzwvdGl0bGU+JiN4YTsJCQk8cGF0aCBpZD0icGF0aDMxMTc5MCIgaW5rc2NhcGU6Y29ubmVjdG9yLWN1cnZhdHVyZT0iMCIgc3R5bGU9ImZpbGw6I0NFOUM1RTsiIGQ9Ik0yLjI1LDQ1LjQyYzAuNjgsMC40MiwwLjg2LDEuMjgsMC40OSwxLjk5ICAgICBjLTAuNDIsMC42NC0xLjMzLDAuODYtMi4wMSwwLjQ1QzAsNDcuNDktMC4xOSw0Ni41OCwwLjIsNDUuOTFDMC42NSw0NS4xOSwxLjUyLDQ0Ljk2LDIuMjUsNDUuNDJ6Ii8+JiN4YTsJCTwvZz4mI3hhOwkJPGcgaWQ9InNoYXBlNzA5OC02NiIgdHJhbnNmb3JtPSJ0cmFuc2xhdGUoMC43Nzk1OTEsLTI3LjYzNDEpIj4mI3hhOwkJCTx0aXRsZSBpZD0idGl0bGUzMTE3OTMiPlNoZWV0LjcwOTg8L3RpdGxlPiYjeGE7CQkJPHBhdGggaWQ9InBhdGgzMTE3OTUiIGlua3NjYXBlOmNvbm5lY3Rvci1jdXJ2YXR1cmU9IjAiIHN0eWxlPSJmaWxsOiNDRTlDNUU7IiBkPSJNNi4yMiw0OC4wN2wwLjM5LTEuODNsLTUuMTMtMy40M0wwLDQ1LjE2ICAgICBMNi4yMiw0OC4wN3oiLz4mI3hhOwkJPC9nPiYjeGE7CQk8ZyBpZD0ic2hhcGU3MDk5LTY4IiB0cmFuc2Zvcm09InRyYW5zbGF0ZSgxLjE2ODQ3LC0zMi4zMDQ2KSI+JiN4YTsJCQk8dGl0bGUgaWQ9InRpdGxlMzExNzk4Ij5TaGVldC43MDk5PC90aXRsZT4mI3hhOwkJCTxwYXRoIGlkPSJwYXRoMzExODAwIiBpbmtzY2FwZTpjb25uZWN0b3ItY3VydmF0dXJlPSIwIiBzdHlsZT0iZmlsbDojRTZFN0U4OyIgZD0iTTAsNDUuOTVsMy4yMSwyLjEybDMuNC0zLjk4bC0yLjczLTEuNjdIMi40MiAgICAgTDAsNDUuOTV6Ii8+JiN4YTsJCTwvZz4mI3hhOwkJPGcgaWQ9InNoYXBlNzEwMC03MCIgdHJhbnNmb3JtPSJ0cmFuc2xhdGUoMTIuODM0OCwtMzEuMTM3KSI+JiN4YTsJCQk8dGl0bGUgaWQ9InRpdGxlMzExODAzIj5TaGVldC43MTAwPC90aXRsZT4mI3hhOwkJCTxwYXRoIGlkPSJwYXRoMzExODA1IiBpbmtzY2FwZTpjb25uZWN0b3ItY3VydmF0dXJlPSIwIiBzdHlsZT0iZmlsbDojQ0U5QzVFOyIgZD0iTTYuMjIsNDYuNzVsLTIuMzQsMS4zMkwwLDQzLjU0bDMuMTEtMi4yOCAgICAgTDYuMjIsNDYuNzV6Ii8+JiN4YTsJCTwvZz4mI3hhOwkJPGcgaWQ9InNoYXBlNzEwMS03MiIgdHJhbnNmb3JtPSJ0cmFuc2xhdGUoMTIuMzI5MSwtMzQuOTA3NSkiPiYjeGE7CQkJPHRpdGxlIGlkPSJ0aXRsZTMxMTgwOCI+U2hlZXQuNzEwMTwvdGl0bGU+JiN4YTsJCQk8cGF0aCBpZD0icGF0aDMxMTgxMCIgaW5rc2NhcGU6Y29ubmVjdG9yLWN1cnZhdHVyZT0iMCIgc3R5bGU9ImZpbGw6I0U2RTdFODsiIGQ9Ik0zLjYsNDQuOTFjLTAuNjYtMC44Ni0xLjg1LTEuMDUtMi43OS0wLjQxICAgICBjLTAuODksMC42Ny0xLjA4LDEuODYtMC40LDIuNzdjMC42MywwLjg4LDEuODYsMS4wNywyLjc2LDAuNDNDNC4wMiw0Ny4wNyw0LjIsNDUuODQsMy42LDQ0LjkxeiIvPiYjeGE7CQk8L2c+JiN4YTsJCTxnIGlkPSJzaGFwZTcxMDItNzQiIHRyYW5zZm9ybT0idHJhbnNsYXRlKDEzLjIyMzYsLTIyLjcwMSkiPiYjeGE7CQkJPHRpdGxlIGlkPSJ0aXRsZTMxMTgxMyI+U2hlZXQuNzEwMjwvdGl0bGU+JiN4YTsJCQk8cGF0aCBpZD0icGF0aDMxMTgxNSIgaW5rc2NhcGU6Y29ubmVjdG9yLWN1cnZhdHVyZT0iMCIgc3R5bGU9ImZpbGw6I0NEOUI1RTsiIGQ9Ik0zLjI5LDQ1LjEzYy0wLjE4LDEuMi0wLjQ3LDEuNTMtMS4xNCwyLjMgICAgIGMtMC40LDAuNDctMC42OCwwLjQ3LTAuNjQsMC4xOGMtMC4yNiwwLjU1LTAuOSwwLjU4LTAuNzIsMC4yMmMtMC4xMSwwLjA3LTAuNDMsMC4yNS0wLjU3LDAuMDdjLTAuMTUtMC4xMSwwLjExLTAuNCwwLjIyLTAuNDcgICAgIGMtMC4yMi0wLjA3LTAuMzctMC4yOSwwLTAuNjJjMC4yNC0wLjI2LDAuMzEtMC41NSwwLjMxLTAuNTVDMC4zMyw0Ni40NCwwLjA0LDQ2LjMzLDAsNDYuMTFjMC40LTAuMjUsMC44My0wLjg3LDEuMjktMS4yICAgICBjMC4xMS0wLjA3LDAuMjItMC4xNSwwLjMzLTAuMThjMC44NS0yLjU3LDAuODUtMi41NywwLjg1LTIuNTdjMS40MiwxLjM2LDEuNDIsMS4zNiwxLjQyLDEuMzZMMy4yOSw0NS4xM3oiLz4mI3hhOwkJPC9nPiYjeGE7CQk8ZyBpZD0ic2hhcGU3MTAzLTc2IiB0cmFuc2Zvcm09InRyYW5zbGF0ZSgxNy4wODA3LC0zMC43MjEyKSI+JiN4YTsJCQk8dGl0bGUgaWQ9InRpdGxlMzExODE4Ij5TaGVldC43MTAzPC90aXRsZT4mI3hhOwkJCTxwYXRoIGlkPSJwYXRoMzExODIwIiBpbmtzY2FwZTpjb25uZWN0b3ItY3VydmF0dXJlPSIwIiBzdHlsZT0iZmlsbDojQ0U5QzVFOyIgZD0iTTAuNTIsNDUuODZjLTAuNSwwLjM0LTAuNjgsMS4xMS0wLjM1LDEuNjYgICAgIGMwLjMxLDAuNTMsMC45OSwwLjcyLDEuNTMsMC4zOGMwLjUzLTAuMzEsMC42Ni0xLjA0LDAuMzUtMS42MUMxLjczLDQ1LjcxLDEuMDUsNDUuNTEsMC41Miw0NS44NnoiLz4mI3hhOwkJPC9nPiYjeGE7CQk8ZyBpZD0ic2hhcGU3MTA0LTc4IiB0cmFuc2Zvcm09InRyYW5zbGF0ZSgxNC45NzM2LC0yNS40OTM0KSI+JiN4YTsJCQk8dGl0bGUgaWQ9InRpdGxlMzExODIzIj5TaGVldC43MTA0PC90aXRsZT4mI3hhOwkJCTxwYXRoIGlkPSJwYXRoMzExODI1IiBpbmtzY2FwZTpjb25uZWN0b3ItY3VydmF0dXJlPSIwIiBzdHlsZT0iZmlsbDojQ0U5QzVFOyIgZD0iTTEuNTEsNDguMDdMMCw0Ni44OWwxLjctNi4wMmwyLjU4LDEuMDYgICAgIEwxLjUxLDQ4LjA3eiIvPiYjeGE7CQk8L2c+JiN4YTsJCTxnIGlkPSJzaGFwZTcxMDUtODAiIHRyYW5zZm9ybT0idHJhbnNsYXRlKDExLjg2MjYsLTMyLjQ5OTMpIj4mI3hhOwkJCTx0aXRsZSBpZD0idGl0bGUzMTE4MjgiPlNoZWV0LjcxMDU8L3RpdGxlPiYjeGE7CQkJPHBhdGggaWQ9InBhdGgzMTE4MzAiIGlua3NjYXBlOmNvbm5lY3Rvci1jdXJ2YXR1cmU9IjAiIHN0eWxlPSJmaWxsOiNFNkU3RTg7IiBkPSJNNi40Miw0NmwtMy4wOCwyLjA3TDAsNDQuMjZsMi42NC0xLjY0aDEuNDcgICAgIEw2LjQyLDQ2eiIvPiYjeGE7CQk8L2c+JiN4YTsJPC9nPiYjeGE7PC9nPiYjeGE7PC9zdmc+;" vertex="1" parent="1">
          <mxGeometry x="626" y="929" width="27" height="68" as="geometry" />
        </mxCell>
        <mxCell id="PO159D4J5o7jx6t-_L3D-16" value="Developer" style="shape=image;verticalLabelPosition=bottom;labelBackgroundColor=#ffffff;verticalAlign=top;aspect=fixed;imageAspect=0;image=data:image/svg+xml,PHN2ZyB4bWxuczpjYz0iaHR0cDovL2NyZWF0aXZlY29tbW9ucy5vcmcvbnMjIiB4bWxuczpkYz0iaHR0cDovL3B1cmwub3JnL2RjL2VsZW1lbnRzLzEuMS8iIHhtbG5zOmlua3NjYXBlPSJodHRwOi8vd3d3Lmlua3NjYXBlLm9yZy9uYW1lc3BhY2VzL2lua3NjYXBlIiB4bWxuczpyZGY9Imh0dHA6Ly93d3cudzMub3JnLzE5OTkvMDIvMjItcmRmLXN5bnRheC1ucyMiIHhtbG5zOnNvZGlwb2RpPSJodHRwOi8vc29kaXBvZGkuc291cmNlZm9yZ2UubmV0L0RURC9zb2RpcG9kaS0wLmR0ZCIgeG1sbnM6c3ZnPSJodHRwOi8vd3d3LnczLm9yZy8yMDAwL3N2ZyIgeG1sbnM9Imh0dHA6Ly93d3cudzMub3JnLzIwMDAvc3ZnIiB4bWxuczp4bGluaz0iaHR0cDovL3d3dy53My5vcmcvMTk5OS94bGluayIgdmVyc2lvbj0iMS4xIiBpZD0ic3ZnMTUxMDczIiBpbmtzY2FwZTp2ZXJzaW9uPSIwLjkyLjMgKDI0MDU1NDYsIDIwMTgtMDMtMTEpIiBzb2RpcG9kaTpkb2NuYW1lPSJkZXZlbG9wZXJfMi5zdmciIHg9IjBweCIgeT0iMHB4IiB2aWV3Qm94PSIwIDAgMzEuMDIgNTUuOTEiIHN0eWxlPSJlbmFibGUtYmFja2dyb3VuZDpuZXcgMCAwIDMxLjAyIDU1LjkxOyIgeG1sOnNwYWNlPSJwcmVzZXJ2ZSI+JiN4YTs8c29kaXBvZGk6bmFtZWR2aWV3IGJvcmRlcmNvbG9yPSIjNjY2NjY2IiBib3JkZXJvcGFjaXR5PSIxIiBmaXQtbWFyZ2luLWJvdHRvbT0iMCIgZml0LW1hcmdpbi1sZWZ0PSIwIiBmaXQtbWFyZ2luLXJpZ2h0PSIwIiBmaXQtbWFyZ2luLXRvcD0iMCIgZ3JpZHRvbGVyYW5jZT0iMTAiIGd1aWRldG9sZXJhbmNlPSIxMCIgaWQ9Im5hbWVkdmlldzE1MTA3NSIgaW5rc2NhcGU6Y3VycmVudC1sYXllcj0ic3ZnMTUxMDczIiBpbmtzY2FwZTpjeD0iMjAuNjgwMTYiIGlua3NjYXBlOmN5PSIzNy4yNzI5NDkiIGlua3NjYXBlOnBhZ2VvcGFjaXR5PSIwIiBpbmtzY2FwZTpwYWdlc2hhZG93PSIyIiBpbmtzY2FwZTp3aW5kb3ctaGVpZ2h0PSIxMDE3IiBpbmtzY2FwZTp3aW5kb3ctbWF4aW1pemVkPSIxIiBpbmtzY2FwZTp3aW5kb3ctd2lkdGg9IjE5MjAiIGlua3NjYXBlOndpbmRvdy14PSItOCIgaW5rc2NhcGU6d2luZG93LXk9Ii04IiBpbmtzY2FwZTp6b29tPSI5LjU0MTM4IiBvYmplY3R0b2xlcmFuY2U9IjEwIiBwYWdlY29sb3I9IiNmZmZmZmYiIHNob3dncmlkPSJmYWxzZSI+JiN4YTsJPC9zb2RpcG9kaTpuYW1lZHZpZXc+JiN4YTs8ZyBpZD0iZzE1MTA3MSIgdHJhbnNmb3JtPSJ0cmFuc2xhdGUoLTYuMTIzMDA5MiwtNi4xMTc2NTMyKSI+JiN4YTsJPHRpdGxlIGlkPSJ0aXRsZTE1MDg1MiI+UGFnZS0xPC90aXRsZT4mI3hhOwk8ZyBpZD0iZ3JvdXA0MjItMSIgdHJhbnNmb3JtPSJ0cmFuc2xhdGUoNi4wNjc0NywtNi4xMikiPiYjeGE7CQk8dGl0bGUgaWQ9InRpdGxlMTUwODU0Ij5EZXZlbG9wZXIgIzI8L3RpdGxlPiYjeGE7CQk8ZyBpZD0ic2hhcGU0MjMtMiIgdHJhbnNmb3JtPSJ0cmFuc2xhdGUoMTIuNzgxNCwtMi4yOTQxKSI+JiN4YTsJCQk8dGl0bGUgaWQ9InRpdGxlMTUwODU2Ij5TaGVldC40MjM8L3RpdGxlPiYjeGE7CQkJPHBhdGggaWQ9InBhdGgxNTA4NTgiIGlua3NjYXBlOmNvbm5lY3Rvci1jdXJ2YXR1cmU9IjAiIHN0eWxlPSJmaWxsOiMzODM4Mzg7IiBkPSJNMi4xLDY1LjMzbC0wLjItMS43TDAsNDQuNDJoMTIuNDVsLTEuOSwxOS4yMSAgICAgbC0wLjE5LDEuN2wtMC4yLDEuNzFsMS4xMSwxLjExSDYuNzV2LTIuODJ2LTEuN3YtMTUuOGMwLTAuMzMtMC4yNi0wLjU5LTAuNTktMC41OXMtMC41OSwwLjI2LTAuNTksMC41OXYxNS44djEuN3YyLjgySDEuMDUgICAgIGwxLjExLTEuMTFMMi4xLDY1LjMzeiIvPiYjeGE7CQk8L2c+JiN4YTsJCTxnIGlkPSJzaGFwZTQyNC00IiB0cmFuc2Zvcm09InRyYW5zbGF0ZSgxOS41OTgyLC0wLjUyNDM2NikiPiYjeGE7CQkJPHRpdGxlIGlkPSJ0aXRsZTE1MDg2MSI+U2hlZXQuNDI0PC90aXRsZT4mI3hhOwkJCTxwYXRoIGlkPSJwYXRoMTUwODYzIiBpbmtzY2FwZTpjb25uZWN0b3ItY3VydmF0dXJlPSIwIiBzdHlsZT0iZmlsbDojMUYxRjFGOyIgZD0iTTUuNTcsNjcuNTZjMC0wLjY1LTAuNTItMS4xMS0xLjExLTEuMTEgICAgIGwtMS4xMi0xLjEybDAuNTktNS42M0gwdjguNDVoNS42NHYtMC41OUw1LjU3LDY3LjU2eiIvPiYjeGE7CQk8L2c+JiN4YTsJCTxnIGlkPSJzaGFwZTQyNS02IiB0cmFuc2Zvcm09InRyYW5zbGF0ZSgxOS41MzI2KSI+JiN4YTsJCQk8dGl0bGUgaWQ9InRpdGxlMTUwODY2Ij5TaGVldC40MjU8L3RpdGxlPiYjeGE7CQkJPHBhdGggaWQ9InBhdGgxNTA4NjgiIGlua3NjYXBlOmNvbm5lY3Rvci1jdXJ2YXR1cmU9IjAiIHN0eWxlPSJmaWxsOiMzODM4Mzg7IiBkPSJNNS42NCw2Ny41NnYwLjU5SDIuMjlMMS43LDY3LjU2djAuNTlIMHYtMC41OSAgICAgSDUuNjR6Ii8+JiN4YTsJCTwvZz4mI3hhOwkJPGcgaWQ9InNoYXBlNDI2LTgiIHRyYW5zZm9ybT0idHJhbnNsYXRlKDEyLjcxNTksLTAuNTI0MzY2KSI+JiN4YTsJCQk8dGl0bGUgaWQ9InRpdGxlMTUwODcxIj5TaGVldC40MjY8L3RpdGxlPiYjeGE7CQkJPHBhdGggaWQ9InBhdGgxNTA4NzMiIGlua3NjYXBlOmNvbm5lY3Rvci1jdXJ2YXR1cmU9IjAiIHN0eWxlPSJmaWxsOiMxRjFGMUY7IiBkPSJNMC4wNyw2Ny41NmMwLTAuNjUsMC41Mi0xLjExLDEuMTEtMS4xMSAgICAgbDEuMTEtMS4xMkwxLjcsNTkuN2gzLjk0djguNDVIMHYtMC41OUwwLjA3LDY3LjU2eiIvPiYjeGE7CQk8L2c+JiN4YTsJCTxnIGlkPSJzaGFwZTQyNy0xMCIgdHJhbnNmb3JtPSJ0cmFuc2xhdGUoMTIuNzgxNCkiPiYjeGE7CQkJPHRpdGxlIGlkPSJ0aXRsZTE1MDg3NiI+U2hlZXQuNDI3PC90aXRsZT4mI3hhOwkJCTxwYXRoIGlkPSJwYXRoMTUwODc4IiBpbmtzY2FwZTpjb25uZWN0b3ItY3VydmF0dXJlPSIwIiBzdHlsZT0iZmlsbDojMzgzODM4OyIgZD0iTTAsNjcuNTZ2MC41OWgzLjQxbDAuNTItMC41OXYwLjU5aDEuNzF2LTAuNTkgICAgIEgweiIvPiYjeGE7CQk8L2c+JiN4YTsJCTxnIGlkPSJzaGFwZTQyOC0xMiIgdHJhbnNmb3JtPSJ0cmFuc2xhdGUoMTMuMzA1OCwtNDMuNTIyNCkiPiYjeGE7CQkJPHRpdGxlIGlkPSJ0aXRsZTE1MDg4MSI+U2hlZXQuNDI4PC90aXRsZT4mI3hhOwkJCTxwYXRoIGlkPSJwYXRoMTUwODgzIiBpbmtzY2FwZTpjb25uZWN0b3ItY3VydmF0dXJlPSIwIiBzdHlsZT0iZmlsbDojMzgzODM4OyIgZD0iTTAsNjEuNGMwLTMuMTUsMi41Ni01LjY0LDUuNjQtNS42NCAgICAgczUuNjMsMi41Niw1LjYzLDUuNjR2Ni43NUgwVjYxLjR6Ii8+JiN4YTsJCTwvZz4mI3hhOwkJPGcgaWQ9InNoYXBlNDI5LTE0IiB0cmFuc2Zvcm09InRyYW5zbGF0ZSgxMy44OTU3LC00NC41NzExKSI+JiN4YTsJCQk8dGl0bGUgaWQ9InRpdGxlMTUwODg2Ij5TaGVldC40Mjk8L3RpdGxlPiYjeGE7CQkJPHBhdGggaWQ9InBhdGgxNTA4ODgiIGlua3NjYXBlOmNvbm5lY3Rvci1jdXJ2YXR1cmU9IjAiIHN0eWxlPSJmaWxsOiNCQjkxNjc7IiBkPSJNMCw2My4wNGMyLjgyLDAsNS4xMS0yLjMsNS4xMS01LjExICAgICBjMCwyLjgxLDIuMyw1LjExLDUuMTIsNS4xMWMwLDIuODItMi4zLDUuMTEtNS4xMiw1LjExUzAsNjUuODYsMCw2My4wNHoiLz4mI3hhOwkJPC9nPiYjeGE7CQk8ZyBpZD0ic2hhcGU0MzAtMTYiIHRyYW5zZm9ybT0idHJhbnNsYXRlKDguNjUyMDMsLTMxLjA2ODcpIj4mI3hhOwkJCTx0aXRsZSBpZD0idGl0bGUxNTA4OTEiPlNoZWV0LjQzMDwvdGl0bGU+JiN4YTsJCQk8cGF0aCBpZD0icGF0aDE1MDg5MyIgaW5rc2NhcGU6Y29ubmVjdG9yLWN1cnZhdHVyZT0iMCIgc3R5bGU9ImZpbGw6I0E4QThBODsiIGQ9Ik0xLjg0LDY4LjE1Yy0wLjE0LDAtMC4yNywwLTAuNC0wLjA3ICAgICBDMC41Miw2Ny44OSwwLDY2Ljk3LDAuMiw2Ni4wNWwyLjIzLTkuMDRjMC4xOS0wLjkyLDEuMTEtMS40NCwyLjAzLTEuMjVjMC45MSwwLjIsMS40NCwxLjEyLDEuMjQsMi4wM2wtMi4yMyw5LjA1ICAgICBDMy4zNCw2Ny42MywyLjYyLDY4LjE1LDEuODQsNjguMTV6Ii8+JiN4YTsJCTwvZz4mI3hhOwkJPGcgaWQ9InNoYXBlNDMxLTE4IiB0cmFuc2Zvcm09InRyYW5zbGF0ZSgyNC42MjEzLC0yOS4yNzM1KSI+JiN4YTsJCQk8dGl0bGUgaWQ9InRpdGxlMTUwODk2Ij5TaGVldC40MzE8L3RpdGxlPiYjeGE7CQkJPHBhdGggaWQ9InBhdGgxNTA4OTgiIGlua3NjYXBlOmNvbm5lY3Rvci1jdXJ2YXR1cmU9IjAiIHN0eWxlPSJmaWxsOiNBOEE4QTg7IiBkPSJNMS45Nyw2OC4xNWMtMC4yNywwLTAuNTMtMC4wNy0wLjc5LTAuMiAgICAgQzAuMzMsNjcuNTYsMCw2Ni41MSwwLjM5LDY1LjY2bDIuODItNS42NGMwLjQtMC44NSwxLjQ0LTEuMTgsMi4zLTAuNzhjMC44NSwwLjM5LDEuMTgsMS40NCwwLjc4LDIuMjlsLTIuODIsNS42NCAgICAgQzMuMTUsNjcuODIsMi41Niw2OC4xNSwxLjk3LDY4LjE1eiIvPiYjeGE7CQk8L2c+JiN4YTsJCTxnIGlkPSJzaGFwZTQzMi0yMCIgdHJhbnNmb3JtPSJ0cmFuc2xhdGUoMjIuOTY1OCwtMzUuNTQ1MSkiPiYjeGE7CQkJPHRpdGxlIGlkPSJ0aXRsZTE1MDkwMSI+U2hlZXQuNDMyPC90aXRsZT4mI3hhOwkJCTxwYXRoIGlkPSJwYXRoMTUwOTAzIiBpbmtzY2FwZTpjb25uZWN0b3ItY3VydmF0dXJlPSIwIiBzdHlsZT0iZmlsbDojQThBOEE4OyIgZD0iTTYuMzYsNjguMTVjLTAuNDYsMC0wLjg1LTAuMi0xLjE4LTAuNTIgICAgIEwwLjY2LDYzLjFDMCw2Mi40NSwwLDYxLjQsMC42Niw2MC42OGMwLjY1LTAuNjYsMS43LTAuNjYsMi40MiwwTDcuNiw2NS4yYzAuNjYsMC42NiwwLjY2LDEuNzEsMCwyLjQzICAgICBDNy4yOCw2OC4wMiw2LjgyLDY4LjE1LDYuMzYsNjguMTV6Ii8+JiN4YTsJCTwvZz4mI3hhOwkJPGcgaWQ9InNoYXBlNDMzLTIyIiB0cmFuc2Zvcm09InRyYW5zbGF0ZSgyMC42NDY5LC00OC41Njk0KSI+JiN4YTsJCQk8dGl0bGUgaWQ9InRpdGxlMTUwOTA2Ij5TaGVldC40MzM8L3RpdGxlPiYjeGE7CQkJPHBhdGggaWQ9InBhdGgxNTA5MDgiIGlua3NjYXBlOmNvbm5lY3Rvci1jdXJ2YXR1cmU9IjAiIHN0eWxlPSJmaWxsOiMxRjFGMUY7IiBkPSJNMCw2Ny4wNGMwLTAuMzMsMC4yNi0wLjU5LDAuNTktMC41OSAgICAgczAuNTksMC4yNiwwLjU5LDAuNTl2MC41MmMwLDAuMzMtMC4yNiwwLjU5LTAuNTksMC41OUMwLjI2LDY4LjE1LDAsNjcuODksMCw2Ny41NlY2Ny4wNHoiLz4mI3hhOwkJPC9nPiYjeGE7CQk8ZyBpZD0ic2hhcGU0MzQtMjQiIHRyYW5zZm9ybT0idHJhbnNsYXRlKDE2LjE4OTgsLTQ4LjU2OTQpIj4mI3hhOwkJCTx0aXRsZSBpZD0idGl0bGUxNTA5MTEiPlNoZWV0LjQzNDwvdGl0bGU+JiN4YTsJCQk8cGF0aCBpZD0icGF0aDE1MDkxMyIgaW5rc2NhcGU6Y29ubmVjdG9yLWN1cnZhdHVyZT0iMCIgc3R5bGU9ImZpbGw6IzFGMUYxRjsiIGQ9Ik0wLDY3LjA0YzAtMC4zMywwLjI2LTAuNTksMC41OS0wLjU5ICAgICBzMC41OSwwLjI2LDAuNTksMC41OXYwLjUyYzAsMC4zMy0wLjI2LDAuNTktMC41OSwwLjU5QzAuMjYsNjguMTUsMCw2Ny44OSwwLDY3LjU2VjY3LjA0eiIvPiYjeGE7CQk8L2c+JiN4YTsJCTxnIGlkPSJzaGFwZTQzNS0yNiIgdHJhbnNmb3JtPSJ0cmFuc2xhdGUoMTguMzUyOCwtNDcuOTc5NSkiPiYjeGE7CQkJPHRpdGxlIGlkPSJ0aXRsZTE1MDkxNiI+U2hlZXQuNDM1PC90aXRsZT4mI3hhOwkJCTxwYXRoIGlkPSJwYXRoMTUwOTE4IiBpbmtzY2FwZTpjb25uZWN0b3ItY3VydmF0dXJlPSIwIiBzdHlsZT0iZmlsbDojOTk3NzU4OyIgZD0iTTEuMTgsNjcuNTZjMCwwLjMzLTAuMjYsMC41OS0wLjU5LDAuNTkgICAgIEMwLjI2LDY4LjE1LDAsNjcuODksMCw2Ny41NkgxLjE4eiIvPiYjeGE7CQkJPHBhdGggaWQ9InBhdGgxNTA5MjAiIGlua3NjYXBlOmNvbm5lY3Rvci1jdXJ2YXR1cmU9IjAiIHN0eWxlPSJmaWxsOm5vbmU7IiBkPSJNMS4xOCw2Ny41NmMwLDAuMzMtMC4yNiwwLjU5LTAuNTksMC41OSAgICAgQzAuMjYsNjguMTUsMCw2Ny44OSwwLDY3LjU2Ii8+JiN4YTsJCTwvZz4mI3hhOwkJPGcgaWQ9InNoYXBlNDM2LTI5IiB0cmFuc2Zvcm09InRyYW5zbGF0ZSgxOC4xNTYyLC00Ni4wMTMxKSI+JiN4YTsJCQk8dGl0bGUgaWQ9InRpdGxlMTUwOTIzIj5TaGVldC40MzY8L3RpdGxlPiYjeGE7CQkJPHBhdGggaWQ9InBhdGgxNTA5MjUiIGlua3NjYXBlOmNvbm5lY3Rvci1jdXJ2YXR1cmU9IjAiIHN0eWxlPSJmaWxsOiNGRkZGRkY7IiBkPSJNMS43LDY3LjNjMCwwLjQ2LTAuMzksMC44NS0wLjg1LDAuODUgICAgIFMwLDY3Ljc2LDAsNjcuM0gxLjd6Ii8+JiN4YTsJCQk8cGF0aCBpZD0icGF0aDE1MDkyNyIgaW5rc2NhcGU6Y29ubmVjdG9yLWN1cnZhdHVyZT0iMCIgc3R5bGU9ImZpbGw6bm9uZTsiIGQ9Ik0xLjcsNjcuM2MwLDAuNDYtMC4zOSwwLjg1LTAuODUsMC44NSAgICAgUzAsNjcuNzYsMCw2Ny4zIi8+JiN4YTsJCTwvZz4mI3hhOwkJPGcgaWQ9InNoYXBlNDM3LTMyIiB0cmFuc2Zvcm09InRyYW5zbGF0ZSgxNS41OTk5LC00MC4zNzYyKSI+JiN4YTsJCQk8dGl0bGUgaWQ9InRpdGxlMTUwOTMwIj5TaGVldC40Mzc8L3RpdGxlPiYjeGE7CQkJPHBhdGggaWQ9InBhdGgxNTA5MzIiIGlua3NjYXBlOmNvbm5lY3Rvci1jdXJ2YXR1cmU9IjAiIHN0eWxlPSJmaWxsOiMwMEIyOTQ7IiBkPSJNNi4yMyw2NS4wN2MwLDEuNy0xLjM4LDMuMDgtMy4wOCwzLjA4ICAgICBDMS40NCw2OC4xNSwwLDY2Ljc3LDAsNjUuMDdINi4yM3oiLz4mI3hhOwkJCTxwYXRoIGlkPSJwYXRoMTUwOTM0IiBpbmtzY2FwZTpjb25uZWN0b3ItY3VydmF0dXJlPSIwIiBzdHlsZT0iZmlsbDpub25lOyIgZD0iTTYuMjMsNjUuMDdjMCwxLjctMS4zOCwzLjA4LTMuMDgsMy4wOCAgICAgQzEuNDQsNjguMTUsMCw2Ni43NywwLDY1LjA3Ii8+JiN4YTsJCTwvZz4mI3hhOwkJPGcgaWQ9InNoYXBlNDM4LTM1IiB0cmFuc2Zvcm09InRyYW5zbGF0ZSgxNi4xMjQyLC00MC45MDA1KSI+JiN4YTsJCQk8dGl0bGUgaWQ9InRpdGxlMTUwOTM3Ij5TaGVldC40Mzg8L3RpdGxlPiYjeGE7CQkJPHBhdGggaWQ9InBhdGgxNTA5MzkiIGlua3NjYXBlOmNvbm5lY3Rvci1jdXJ2YXR1cmU9IjAiIHN0eWxlPSJmaWxsOiNCQjkxNjc7IiBkPSJNNS4xMSw2NS41OWMwLDEuMzgtMS4xMSwyLjU2LTIuNTUsMi41NiAgICAgQzEuMTEsNjguMTUsMCw2Ny4wNCwwLDY1LjU5SDUuMTF6Ii8+JiN4YTsJCQk8cGF0aCBpZD0icGF0aDE1MDk0MSIgaW5rc2NhcGU6Y29ubmVjdG9yLWN1cnZhdHVyZT0iMCIgc3R5bGU9ImZpbGw6bm9uZTsiIGQ9Ik01LjExLDY1LjU5YzAsMS4zOC0xLjExLDIuNTYtMi41NSwyLjU2ICAgICBDMS4xMSw2OC4xNSwwLDY3LjA0LDAsNjUuNTkiLz4mI3hhOwkJPC9nPiYjeGE7CQk8ZyBpZD0ic2hhcGU0MzktMzgiIHRyYW5zZm9ybT0idHJhbnNsYXRlKDE4Ljk0MjcsLTIyLjYxMzMpIj4mI3hhOwkJCTx0aXRsZSBpZD0idGl0bGUxNTA5NDQiPlNoZWV0LjQzOTwvdGl0bGU+JiN4YTsJCQk8cGF0aCBpZD0icGF0aDE1MDk0NiIgaW5rc2NhcGU6Y29ubmVjdG9yLWN1cnZhdHVyZT0iMCIgc3R5bGU9ImZpbGw6I0YyRjJGMjsiIGQ9Ik0wLjA3LDY1LjkyYzAsMS4yNSwwLjk4LDIuMjMsMi4yMiwyLjIzaDMuOTQgICAgIHYtMy40MUgwdjEuMThIMC4wN3oiLz4mI3hhOwkJPC9nPiYjeGE7CQk8ZyBpZD0ic2hhcGU0NDAtNDAiIHRyYW5zZm9ybT0icm90YXRlKDE4MCwxMi41OTI5NSw0Ni4zOTIzKSI+JiN4YTsJCQk8dGl0bGUgaWQ9InRpdGxlMTUwOTQ5Ij5TaGVldC40NDA8L3RpdGxlPiYjeGE7CQkJPHJlY3QgaWQ9InJlY3QxNTA5NTEiIHg9IjAiIHk9IjUxLjc2IiBzdHlsZT0iZmlsbDojQThBOEE4OyIgd2lkdGg9IjEyLjQ1IiBoZWlnaHQ9IjE2LjM5Ii8+JiN4YTsJCTwvZz4mI3hhOwkJPGcgaWQ9InNoYXBlNDQxLTQyIiB0cmFuc2Zvcm09InRyYW5zbGF0ZSgxNi43MTQyLC00MS4yMjgzKSI+JiN4YTsJCQk8dGl0bGUgaWQ9InRpdGxlMTUwOTU0Ij5TaGVldC40NDE8L3RpdGxlPiYjeGE7CQkJPHBhdGggaWQ9InBhdGgxNTA5NTYiIGlua3NjYXBlOmNvbm5lY3Rvci1jdXJ2YXR1cmU9IjAiIHN0eWxlPSJmaWxsOiM4M0JFRUM7IiBkPSJNMi4yOSw2OC4xNWwyLjIzLTIuMjNIMEwyLjI5LDY4LjE1eiIvPiYjeGE7CQkJPHBhdGggaWQ9InBhdGgxNTA5NTgiIGlua3NjYXBlOmNvbm5lY3Rvci1jdXJ2YXR1cmU9IjAiIHN0eWxlPSJmaWxsOm5vbmU7IiBkPSJNMi4yOSw2OC4xNWwyLjIzLTIuMjNIMCIvPiYjeGE7CQk8L2c+JiN4YTsJCTxnIGlkPSJzaGFwZTQ0Mi00NSIgdHJhbnNmb3JtPSJ0cmFuc2xhdGUoMTIuODQ3LC0yMi42MTMzKSI+JiN4YTsJCQk8dGl0bGUgaWQ9InRpdGxlMTUwOTYxIj5TaGVldC40NDI8L3RpdGxlPiYjeGE7CQkJPHBhdGggaWQ9InBhdGgxNTA5NjMiIGlua3NjYXBlOmNvbm5lY3Rvci1jdXJ2YXR1cmU9IjAiIHN0eWxlPSJmaWxsOiNGMkYyRjI7IiBkPSJNNi4xNiw2NS45MmMwLDEuMjUtMC45OCwyLjIzLTIuMjMsMi4yM0gwICAgICB2LTMuNDFoNi4yM3YxLjE4SDYuMTZ6Ii8+JiN4YTsJCTwvZz4mI3hhOwkJPGcgaWQ9InNoYXBlNDQzLTQ3IiB0cmFuc2Zvcm09InRyYW5zbGF0ZSgxNy44Mjg0LC00Mi4zNDI1KSI+JiN4YTsJCQk8dGl0bGUgaWQ9InRpdGxlMTUwOTY2Ij5TaGVldC40NDM8L3RpdGxlPiYjeGE7CQkJPHBhdGggaWQ9InBhdGgxNTA5NjgiIGlua3NjYXBlOmNvbm5lY3Rvci1jdXJ2YXR1cmU9IjAiIHN0eWxlPSJmaWxsOiNFNUU1RTU7IiBkPSJNMi4yOSw2Ny4wNGwtMS4xMSwxLjExTDAsNjcuMDRIMi4yOXoiLz4mI3hhOwkJPC9nPiYjeGE7CQk8ZyBpZD0ic2hhcGU0NDQtNDkiIHRyYW5zZm9ybT0icm90YXRlKDE4MCwxMi41OTI5NSw1NC42MDgpIj4mI3hhOwkJCTx0aXRsZSBpZD0idGl0bGUxNTA5NzEiPlNoZWV0LjQ0NDwvdGl0bGU+JiN4YTsJCQk8cmVjdCBpZD0icmVjdDE1MDk3MyIgeD0iMCIgeT0iNjYuNDUiIHN0eWxlPSJmaWxsOiM4M0JFRUM7IiB3aWR0aD0iMTIuNDUiIGhlaWdodD0iMS43Ii8+JiN4YTsJCTwvZz4mI3hhOwkJPGcgaWQ9InNoYXBlNDQ1LTUxIiB0cmFuc2Zvcm09InJvdGF0ZSgtMjYuNTY1MSwtNzkuOTY4OTI0LDUuNTY2MjkxNikiPiYjeGE7CQkJPHRpdGxlIGlkPSJ0aXRsZTE1MDk3NiI+U2hlZXQuNDQ1PC90aXRsZT4mI3hhOwkJCSYjeGE7CQkJCTxyZWN0IGlkPSJyZWN0MTUwOTc4IiB4PSIwIiB5PSI2Ni45MSIgdHJhbnNmb3JtPSJtYXRyaXgoLTEgMi45NDA5NjBlLTA2IC0yLjk0MDk2MGUtMDYgLTEgMi41NTY0IDEzNS4wNTU4KSIgc3R5bGU9ImZpbGw6I0YyRjJGMjsiIHdpZHRoPSIyLjU2IiBoZWlnaHQ9IjEuMjUiLz4mI3hhOwkJPC9nPiYjeGE7CQk8ZyBpZD0ic2hhcGU0NDYtNTMiIHRyYW5zZm9ybT0icm90YXRlKC02My40MzQ5LC0yNS4wMzM1OTksMzIuMDk0NTA1KSI+JiN4YTsJCQk8dGl0bGUgaWQ9InRpdGxlMTUwOTgxIj5TaGVldC40NDY8L3RpdGxlPiYjeGE7CQkJJiN4YTsJCQkJPHJlY3QgaWQ9InJlY3QxNTA5ODMiIHg9IjAiIHk9IjY1LjU5IiB0cmFuc2Zvcm09Im1hdHJpeCgtMSAyLjEwMjc0N2UtMDYgLTIuMTAyNzQ3ZS0wNiAtMSAxLjI0NTMgMTMzLjc0NDkpIiBzdHlsZT0iZmlsbDojRjJGMkYyOyIgd2lkdGg9IjEuMjUiIGhlaWdodD0iMi41NiIvPiYjeGE7CQk8L2c+JiN4YTsJCTxnIGlkPSJzaGFwZTQ0Ny01NSIgdHJhbnNmb3JtPSJ0cmFuc2xhdGUoMjEuODY4NCwtMjcuMDQ1KSI+JiN4YTsJCQk8dGl0bGUgaWQ9InRpdGxlMTUwOTg2Ij5TaGVldC40NDc8L3RpdGxlPiYjeGE7CQkJPHBhdGggaWQ9InBhdGgxNTA5ODgiIGlua3NjYXBlOmNvbm5lY3Rvci1jdXJ2YXR1cmU9IjAiIHN0eWxlPSJmaWxsOiNCQjkxNjc7IiBkPSJNMS45LDY4LjE1Yy0wLjU5LDAtMS4yNC0wLjMzLTEuNTEtMC45MiAgICAgQzAsNjYuMzgsMC4zMyw2NS40LDEuMTgsNjQuOTRsMi4yMy0xLjEyYzAuODUtMC4zOSwxLjgzLTAuMDYsMi4yOSwwLjc5YzAuNCwwLjg1LDAuMDcsMS44NC0wLjc4LDIuM2wtMi4yMywxLjExICAgICBDMi40Myw2OC4xNSwyLjE2LDY4LjE1LDEuOSw2OC4xNXoiLz4mI3hhOwkJPC9nPiYjeGE7CQk8ZyBpZD0ic2hhcGU0NDgtNTciIHRyYW5zZm9ybT0idHJhbnNsYXRlKDMuNzM2MTEsLTMxLjA2ODcpIj4mI3hhOwkJCTx0aXRsZSBpZD0idGl0bGUxNTA5OTEiPlNoZWV0LjQ0ODwvdGl0bGU+JiN4YTsJCQk8cGF0aCBpZD0icGF0aDE1MDk5MyIgaW5rc2NhcGU6Y29ubmVjdG9yLWN1cnZhdHVyZT0iMCIgc3R5bGU9ImZpbGw6I0E4QThBODsiIGQ9Ik02Ljc1LDY4LjE1SDEuN2MtMC45MSwwLTEuNy0wLjc5LTEuNy0xLjcgICAgIGMwLTAuOTIsMC43OS0xLjcxLDEuNy0xLjcxaDUuMTJjMC45MSwwLDEuNywwLjc5LDEuNywxLjcxQzguNTIsNjcuMzYsNy43Myw2OC4xNSw2Ljc1LDY4LjE1eiIvPiYjeGE7CQk8L2c+JiN4YTsJCTxnIGlkPSJzaGFwZTQ0OS01OSIgdHJhbnNmb3JtPSJ0cmFuc2xhdGUoMi4zNTk2NSwtMzAuODA2NSkiPiYjeGE7CQkJPHRpdGxlIGlkPSJ0aXRsZTE1MDk5NiI+U2hlZXQuNDQ5PC90aXRsZT4mI3hhOwkJCTxwYXRoIGlkPSJwYXRoMTUwOTk4IiBpbmtzY2FwZTpjb25uZWN0b3ItY3VydmF0dXJlPSIwIiBzdHlsZT0iZmlsbDojRjJGMkYyOyIgZD0iTTMuMDgsNjguMTVIMS45N0MwLjg1LDY4LjE1LDAsNjcuMjMsMCw2Ni4xOCAgICAgYzAtMS4xMSwwLjkyLTEuOTYsMS45Ny0xLjk2aDEuMTFjMS4xMSwwLDEuOTcsMC45MiwxLjk3LDEuOTZDNS4wNSw2Ny4zLDQuMTksNjguMTUsMy4wOCw2OC4xNXoiLz4mI3hhOwkJPC9nPiYjeGE7CQk8ZyBpZD0iZ3JvdXA0NTAtNjEiIHRyYW5zZm9ybT0idHJhbnNsYXRlKDAsLTMzLjI5NzIpIj4mI3hhOwkJCTx0aXRsZSBpZD0idGl0bGUxNTEwMDEiPlNoZWV0LjQ1MDwvdGl0bGU+JiN4YTsJCQk8ZyBpZD0ic2hhcGU0NTEtNjIiIHRyYW5zZm9ybT0idHJhbnNsYXRlKDkuMTc2NCkiPiYjeGE7CQkJCTx0aXRsZSBpZD0idGl0bGUxNTEwMDMiPlNoZWV0LjQ1MTwvdGl0bGU+JiN4YTsJCQkJPHBhdGggaWQ9InBhdGgxNTEwMDUiIGlua3NjYXBlOmNvbm5lY3Rvci1jdXJ2YXR1cmU9IjAiIHN0eWxlPSJmaWxsOiMxRjFGMUY7IiBkPSJNMy4zNCw2OC4xNWMwLjMzLDAsMC41OS0wLjI2LDAuNTktMC41OXYtMC41OSAgICAgIEgwdjEuMTFoMy4zNFY2OC4xNXoiLz4mI3hhOwkJCTwvZz4mI3hhOwkJCTxnIGlkPSJzaGFwZTQ1Mi02NCIgdHJhbnNmb3JtPSJ0cmFuc2xhdGUoMC4zMjc3MjkpIj4mI3hhOwkJCQk8dGl0bGUgaWQ9InRpdGxlMTUxMDA4Ij5TaGVldC40NTI8L3RpdGxlPiYjeGE7CQkJCTxwYXRoIGlkPSJwYXRoMTUxMDEwIiBpbmtzY2FwZTpjb25uZWN0b3ItY3VydmF0dXJlPSIwIiBzdHlsZT0iZmlsbDojMUYxRjFGOyIgZD0iTTAsNjEuNzNsMS41Nyw2LjIyYzAsMC4xMywwLjEzLDAuMiwwLjI3LDAuMiAgICAgIGg4LjE5YzAuMiwwLDAuMzMtMC4yLDAuMjYtMC4zM0w4LjcyLDYxLjZjMC0wLjE0LTAuMTMtMC4yLTAuMjYtMC4ySDAuMzNDMC4xMyw2MS4zMywwLDYxLjUzLDAsNjEuNzN6Ii8+JiN4YTsJCQk8L2c+JiN4YTsJCQk8ZyBpZD0ic2hhcGU0NTMtNjYiPiYjeGE7CQkJCTx0aXRsZSBpZD0idGl0bGUxNTEwMTMiPlNoZWV0LjQ1MzwvdGl0bGU+JiN4YTsJCQkJPHBhdGggaWQ9InBhdGgxNTEwMTUiIGlua3NjYXBlOmNvbm5lY3Rvci1jdXJ2YXR1cmU9IjAiIHN0eWxlPSJmaWxsOiMzODM4Mzg7IiBkPSJNMC4wNyw2MS43M2wxLjU3LDYuMjIgICAgICBjMCwwLjEzLDAuMTMsMC4yLDAuMjYsMC4yaDguMTljMC4yLDAsMC4zMy0wLjIsMC4yNy0wLjMzTDguNzgsNjEuNmMwLTAuMTQtMC4xMy0wLjItMC4yNi0wLjJIMC4zMyAgICAgIEMwLjIsNjEuMzMsMCw2MS41MywwLjA3LDYxLjczeiIvPiYjeGE7CQkJPC9nPiYjeGE7CQk8L2c+JiN4YTsJCTxnIGlkPSJzaGFwZTQ1NC02OCIgdHJhbnNmb3JtPSJ0cmFuc2xhdGUoMS44MzUyOCwtMzEuMDY4NykiPiYjeGE7CQkJPHRpdGxlIGlkPSJ0aXRsZTE1MTAxOSI+U2hlZXQuNDU0PC90aXRsZT4mI3hhOwkJCTxwYXRoIGlkPSJwYXRoMTUxMDIxIiBpbmtzY2FwZTpjb25uZWN0b3ItY3VydmF0dXJlPSIwIiBzdHlsZT0iZmlsbDojQkI5MTY3OyIgZD0iTTIuNDksNjguMTVjLTAuNTksMC0xLjI0LTAuMzMtMS41MS0wLjkyICAgICBsLTAuNTktMS4xMWMtMC4zOS0wLjg1LTAuMDYtMS45LDAuNzItMi4zYzAuODYtMC4zOSwxLjg0LTAuMDYsMi4zLDAuNzlMNCw2NS43M2MwLjM5LDAuODUsMC4wNiwxLjgzLTAuNzksMi4yOSAgICAgQzIuOTUsNjguMDgsMi43NSw2OC4xNSwyLjQ5LDY4LjE1eiIvPiYjeGE7CQk8L2c+JiN4YTsJCTxnIGlkPSJzaGFwZTQ1NS03MCIgdHJhbnNmb3JtPSJ0cmFuc2xhdGUoMTUuMDEsLTQ3LjcxNzMpIj4mI3hhOwkJCTx0aXRsZSBpZD0idGl0bGUxNTEwMjQiPlNoZWV0LjQ1NTwvdGl0bGU+JiN4YTsJCQk8cGF0aCBpZD0icGF0aDE1MTAyNiIgaW5rc2NhcGU6Y29ubmVjdG9yLWN1cnZhdHVyZT0iMCIgc3R5bGU9ImZpbGw6I0NBNTAxMDsiIGQ9Ik0wLjQ2LDY1LjkydjEuNTFjMCwwLjI2LDAuMiwwLjM5LDAuMzksMC4zOSAgICAgaDEuNDRjMC40LDAsMC43My0wLjMyLDAuNzMtMC43MnYtMS44M0gxLjdjMC4xNC0wLjA3LDAuMjctMC4yLDAuNC0wLjI3aDEuMTh2MC43OWMwLjE5LTAuMTMsMC40Ni0wLjI2LDAuNzItMC4yNiAgICAgczAuNTIsMC4wNiwwLjcyLDAuMjZWNjVoMS4xMWMwLjEzLDAuMTQsMC4yNywwLjIsMC40LDAuMjdINC45MnYxLjgzYzAsMC40LDAuMzIsMC43MiwwLjcyLDAuNzJoMS40NGMwLjI2LDAsMC4zOS0wLjE5LDAuMzktMC4zOSAgICAgdi0xLjUxYzAuMDcsMCwwLjIsMC4wNywwLjI2LDAuMDd2MS40NGMwLDAuMzktMC4zMiwwLjcyLTAuNzIsMC43Mkg1LjU3Yy0wLjUyLDAtMC45OC0wLjQ2LTAuOTgtMC45OHYtMC45MiAgICAgYy0wLjItMC4yLTAuNDYtMC4zMy0wLjcyLTAuMzNzLTAuNTMsMC4xMy0wLjcyLDAuMzN2MC45MmMwLDAuNTItMC40NiwwLjk4LTAuOTksMC45OEgwLjcyQzAuMzMsNjguMTUsMCw2Ny44MiwwLDY3LjQzdi0xLjQ0ICAgICBDMC4yNiw2NS45OSwwLjMzLDY1Ljk5LDAuNDYsNjUuOTJ6Ii8+JiN4YTsJCTwvZz4mI3hhOwkJPGcgaWQ9Imdyb3VwNDU2LTcyIiB0cmFuc2Zvcm09InRyYW5zbGF0ZSgxNS40Njg4LC0zMi41MTA3KSI+JiN4YTsJCQk8dGl0bGUgaWQ9InRpdGxlMTUxMDI5Ij5TaGVldC40NTY8L3RpdGxlPiYjeGE7CQkJPGcgaWQ9InNoYXBlNDU3LTczIiB0cmFuc2Zvcm09InRyYW5zbGF0ZSg0LjI2MDQ3LC0zLjIxMTc0KSI+JiN4YTsJCQkJPHRpdGxlIGlkPSJ0aXRsZTE1MTAzMSI+U2hlZXQuNDU3PC90aXRsZT4mI3hhOwkJCQk8cGF0aCBpZD0icGF0aDE1MTAzMyIgaW5rc2NhcGU6Y29ubmVjdG9yLWN1cnZhdHVyZT0iMCIgc3R5bGU9ImZpbGw6I0YyRjJGMjsiIGQ9Ik0wLjEzLDY4LjE1QzAuMDcsNjguMTUsMC4wNyw2OC4xNSwwLjEzLDY4LjE1ICAgICAgQzAsNjguMTUsMCw2OC4wMiwwLDY3Ljk1bDIuNTYtNy42YzAtMC4wNiwwLjEzLTAuMTMsMC4xOS0wLjA2YzAuMDcsMCwwLjEzLDAuMTMsMC4wNywwLjE5bC0yLjU2LDcuNiAgICAgIEMwLjIsNjguMTUsMC4xMyw2OC4xNSwwLjEzLDY4LjE1eiIvPiYjeGE7CQkJPC9nPiYjeGE7CQkJPGcgaWQ9InNoYXBlNDU4LTc1IiB0cmFuc2Zvcm09InRyYW5zbGF0ZSgwLC0zLjIxMTc0KSI+JiN4YTsJCQkJPHRpdGxlIGlkPSJ0aXRsZTE1MTAzNiI+U2hlZXQuNDU4PC90aXRsZT4mI3hhOwkJCQk8cGF0aCBpZD0icGF0aDE1MTAzOCIgaW5rc2NhcGU6Y29ubmVjdG9yLWN1cnZhdHVyZT0iMCIgc3R5bGU9ImZpbGw6I0YyRjJGMjsiIGQ9Ik0yLjY5LDY4LjE1Yy0wLjA3LDAtMC4xMy0wLjA3LTAuMTMtMC4wNyAgICAgIEwwLDYwLjQ4YzAtMC4wNiwwLTAuMTMsMC4wNy0wLjE5YzAuMDYsMCwwLjEzLDAsMC4xOSwwLjA2bDIuNTYsNy42QzIuODIsNjguMDIsMi44Miw2OC4xNSwyLjY5LDY4LjE1TDIuNjksNjguMTV6Ii8+JiN4YTsJCQk8L2c+JiN4YTsJCQk8ZyBpZD0ic2hhcGU0NTktNzciIHRyYW5zZm9ybT0idHJhbnNsYXRlKDIuNDI1MTkpIj4mI3hhOwkJCQk8dGl0bGUgaWQ9InRpdGxlMTUxMDQxIj5TaGVldC40NTk8L3RpdGxlPiYjeGE7CQkJCTxwYXRoIGlkPSJwYXRoMTUxMDQzIiBpbmtzY2FwZTpjb25uZWN0b3ItY3VydmF0dXJlPSIwIiBzdHlsZT0iZmlsbDojRTVFNUU1OyIgZD0iTTIuMjMsNjcuODljMCwwLjEzLTAuMTMsMC4yNi0wLjI2LDAuMjZIMC4yNiAgICAgIEMwLjEzLDY4LjE1LDAsNjguMDIsMCw2Ny44OXYtMy40MWMwLTAuMTMsMC4xMy0wLjI2LDAuMjYtMC4yNmgxLjcxYzAuMTMsMCwwLjI2LDAuMTMsMC4yNiwwLjI2VjY3Ljg5eiIvPiYjeGE7CQkJPC9nPiYjeGE7CQkJPGcgaWQ9Imdyb3VwNDYwLTc5IiB0cmFuc2Zvcm09InRyYW5zbGF0ZSgyLjYzODE1LC0xLjExODQ3KSI+JiN4YTsJCQkJPHRpdGxlIGlkPSJ0aXRsZTE1MTA0NiI+U2hlZXQuNDYwPC90aXRsZT4mI3hhOwkJCQk8ZyBpZD0ic2hhcGU0NjEtODAiIHRyYW5zZm9ybT0icm90YXRlKDE4MCwwLjg1MjA2LDY3LjI5ODUpIj4mI3hhOwkJCQkJPHRpdGxlIGlkPSJ0aXRsZTE1MTA0OCI+U2hlZXQuNDYxPC90aXRsZT4mI3hhOwkJCQkJPHJlY3QgaWQ9InJlY3QxNTEwNTAiIHg9IjAiIHk9IjY3LjM2IiBzdHlsZT0iZmlsbDojRTgxMjI0OyIgd2lkdGg9IjAuNzkiIGhlaWdodD0iMC43OSIvPiYjeGE7CQkJCTwvZz4mI3hhOwkJCQk8ZyBpZD0ic2hhcGU0NjItODIiIHRyYW5zZm9ybT0icm90YXRlKDE4MCwwLjM5MzI3NDUsNjcuMjk4NSkiPiYjeGE7CQkJCQk8dGl0bGUgaWQ9InRpdGxlMTUxMDUzIj5TaGVldC40NjI8L3RpdGxlPiYjeGE7CQkJCQk8cmVjdCBpZD0icmVjdDE1MTA1NSIgeD0iMCIgeT0iNjcuMzYiIHN0eWxlPSJmaWxsOiMxM0ExMEU7IiB3aWR0aD0iMC43OSIgaGVpZ2h0PSIwLjc5Ii8+JiN4YTsJCQkJPC9nPiYjeGE7CQkJCTxnIGlkPSJzaGFwZTQ2My04NCIgdHJhbnNmb3JtPSJyb3RhdGUoMTgwLDAuODUyMDYsNjcuNzU3KSI+JiN4YTsJCQkJCTx0aXRsZSBpZD0idGl0bGUxNTEwNTgiPlNoZWV0LjQ2MzwvdGl0bGU+JiN4YTsJCQkJCTxyZWN0IGlkPSJyZWN0MTUxMDYwIiB4PSIwIiB5PSI2Ny4zNiIgc3R5bGU9ImZpbGw6IzNBOTZERDsiIHdpZHRoPSIwLjc5IiBoZWlnaHQ9IjAuNzkiLz4mI3hhOwkJCQk8L2c+JiN4YTsJCQkJPGcgaWQ9InNoYXBlNDY0LTg2IiB0cmFuc2Zvcm09InJvdGF0ZSgxODAsMC4zOTMyNzQ1LDY3Ljc1NykiPiYjeGE7CQkJCQk8dGl0bGUgaWQ9InRpdGxlMTUxMDYzIj5TaGVldC40NjQ8L3RpdGxlPiYjeGE7CQkJCQk8cmVjdCBpZD0icmVjdDE1MTA2NSIgeD0iMCIgeT0iNjcuMzYiIHN0eWxlPSJmaWxsOiNGRkI5MDA7IiB3aWR0aD0iMC43OSIgaGVpZ2h0PSIwLjc5Ii8+JiN4YTsJCQkJPC9nPiYjeGE7CQkJPC9nPiYjeGE7CQk8L2c+JiN4YTsJPC9nPiYjeGE7PC9nPiYjeGE7PC9zdmc+;" vertex="1" parent="1">
          <mxGeometry x="712.5" y="928" width="38.75" height="70" as="geometry" />
        </mxCell>
      </root>
    </mxGraphModel>
  </diagram>
</mxfile>
